<svg width="649" height="172" viewBox="0 0 649 172" fill="none" xmlns="http://www.w3.org/2000/svg">
<g clip-path="url(#clip0_1060_1105)">
<path fill-rule="evenodd" clip-rule="evenodd" d="M341.594 0.713409L341.594 384.588L342.351 384.588L342.351 0.713409L341.594 0.713409Z" fill="url(#paint0_linear_1060_1105)" fill-opacity="0.3"/>
<path fill-rule="evenodd" clip-rule="evenodd" d="M264.932 0.713409L264.932 384.588L265.689 384.588L265.689 0.713409L264.932 0.713409Z" fill="url(#paint1_linear_1060_1105)" fill-opacity="0.75"/>
<path fill-rule="evenodd" clip-rule="evenodd" d="M648.243 0.713379L648.243 384.588L649 384.588L649 0.713379L648.243 0.713379Z" fill="url(#paint2_linear_1060_1105)" fill-opacity="0.75"/>
<path fill-rule="evenodd" clip-rule="evenodd" d="M648.244 158.497L-24.0005 158.497L-24.0005 159.263L648.244 159.263L648.244 158.497Z" fill="url(#paint3_linear_1060_1105)" fill-opacity="0.75"/>
<path fill-rule="evenodd" clip-rule="evenodd" d="M188.27 0.713409L188.27 384.588L189.026 384.588L189.026 0.713409L188.27 0.713409Z" fill="url(#paint4_linear_1060_1105)" fill-opacity="0.75"/>
<path fill-rule="evenodd" clip-rule="evenodd" d="M571.581 0.713409L571.581 384.588L572.337 384.588L572.337 0.713409L571.581 0.713409Z" fill="url(#paint5_linear_1060_1105)" fill-opacity="0.75"/>
<path fill-rule="evenodd" clip-rule="evenodd" d="M648.244 79.6069L-24.0006 79.6068L-24.0006 80.373L648.244 80.373L648.244 79.6069Z" fill="url(#paint6_linear_1060_1105)" fill-opacity="0.75"/>
<path fill-rule="evenodd" clip-rule="evenodd" d="M111.608 0.713409L111.608 384.588L112.365 384.588L112.365 0.713409L111.608 0.713409Z" fill="url(#paint7_linear_1060_1105)" fill-opacity="0.75"/>
<path fill-rule="evenodd" clip-rule="evenodd" d="M494.919 0.713409L494.919 384.588L495.675 384.588L495.675 0.713409L494.919 0.713409Z" fill="url(#paint8_linear_1060_1105)" fill-opacity="0.75"/>
<path fill-rule="evenodd" clip-rule="evenodd" d="M34.9454 0.71344L34.9454 384.588L35.7021 384.588L35.7022 0.71344L34.9454 0.71344Z" fill="url(#paint9_linear_1060_1105)" fill-opacity="0.75"/>
<path fill-rule="evenodd" clip-rule="evenodd" d="M418.257 0.713409L418.257 384.588L419.014 384.588L419.014 0.713409L418.257 0.713409Z" fill="url(#paint10_linear_1060_1105)" fill-opacity="0.75"/>
<path d="M264.937 237.39L189.028 237.39L189.028 159.263L264.937 159.264L264.937 237.39Z" fill="white" fill-opacity="0.08"/>
</g>
<defs>
<linearGradient id="paint0_linear_1060_1105" x1="233.424" y1="384.588" x2="360.309" y2="28.4346" gradientUnits="userSpaceOnUse">
<stop stop-color="white"/>
<stop offset="1" stop-color="white" stop-opacity="0"/>
</linearGradient>
<linearGradient id="paint1_linear_1060_1105" x1="233.426" y1="384.588" x2="360.31" y2="28.4346" gradientUnits="userSpaceOnUse">
<stop stop-color="white"/>
<stop offset="1" stop-color="white" stop-opacity="0"/>
</linearGradient>
<linearGradient id="paint2_linear_1060_1105" x1="233.427" y1="384.588" x2="360.313" y2="28.4365" gradientUnits="userSpaceOnUse">
<stop stop-color="white"/>
<stop offset="1" stop-color="white" stop-opacity="0"/>
</linearGradient>
<linearGradient id="paint3_linear_1060_1105" x1="233.427" y1="384.586" x2="360.312" y2="28.4364" gradientUnits="userSpaceOnUse">
<stop stop-color="white"/>
<stop offset="1" stop-color="white" stop-opacity="0"/>
</linearGradient>
<linearGradient id="paint4_linear_1060_1105" x1="233.427" y1="384.588" x2="360.312" y2="28.4347" gradientUnits="userSpaceOnUse">
<stop stop-color="white"/>
<stop offset="1" stop-color="white" stop-opacity="0"/>
</linearGradient>
<linearGradient id="paint5_linear_1060_1105" x1="233.426" y1="384.588" x2="360.312" y2="28.4363" gradientUnits="userSpaceOnUse">
<stop stop-color="white"/>
<stop offset="1" stop-color="white" stop-opacity="0"/>
</linearGradient>
<linearGradient id="paint6_linear_1060_1105" x1="233.426" y1="384.586" x2="360.312" y2="28.4363" gradientUnits="userSpaceOnUse">
<stop stop-color="white"/>
<stop offset="1" stop-color="white" stop-opacity="0"/>
</linearGradient>
<linearGradient id="paint7_linear_1060_1105" x1="233.423" y1="384.588" x2="360.313" y2="28.4395" gradientUnits="userSpaceOnUse">
<stop stop-color="white"/>
<stop offset="1" stop-color="white" stop-opacity="0"/>
</linearGradient>
<linearGradient id="paint8_linear_1060_1105" x1="233.424" y1="384.588" x2="360.31" y2="28.4359" gradientUnits="userSpaceOnUse">
<stop stop-color="white"/>
<stop offset="1" stop-color="white" stop-opacity="0"/>
</linearGradient>
<linearGradient id="paint9_linear_1060_1105" x1="233.431" y1="384.588" x2="360.316" y2="28.4347" gradientUnits="userSpaceOnUse">
<stop stop-color="white"/>
<stop offset="1" stop-color="white" stop-opacity="0"/>
</linearGradient>
<linearGradient id="paint10_linear_1060_1105" x1="233.428" y1="384.588" x2="360.316" y2="28.4371" gradientUnits="userSpaceOnUse">
<stop stop-color="white"/>
<stop offset="1" stop-color="white" stop-opacity="0"/>
</linearGradient>
<clipPath id="clip0_1060_1105">
<rect width="673" height="384.588" fill="white" transform="translate(649 384.588) rotate(-180)"/>
</clipPath>
</defs>
</svg>
