<svg width="514" height="240" viewBox="0 0 514 240" fill="none" xmlns="http://www.w3.org/2000/svg">
<g clip-path="url(#clip0_1060_1121)">
<path fill-rule="evenodd" clip-rule="evenodd" d="M0.756348 2.3075L673 2.30765L673 1.54165L0.756348 1.5415L0.756348 2.3075Z" fill="url(#paint0_linear_1060_1121)" fill-opacity="0.3"/>
<path fill-rule="evenodd" clip-rule="evenodd" d="M307.406 317.875L307.406 -66L306.649 -66L306.649 317.875H307.406Z" fill="url(#paint1_linear_1060_1121)" fill-opacity="0.3"/>
<path fill-rule="evenodd" clip-rule="evenodd" d="M0.756348 81.198L673 81.1981L673 80.4321L0.756348 80.4321L0.756348 81.198Z" fill="url(#paint2_linear_1060_1121)" fill-opacity="0.3"/>
<path fill-rule="evenodd" clip-rule="evenodd" d="M384.068 317.875L384.068 -66L383.311 -66L383.311 317.875H384.068Z" fill="url(#paint3_linear_1060_1121)" fill-opacity="0.75"/>
<path fill-rule="evenodd" clip-rule="evenodd" d="M0.756542 317.875L0.756574 -66L3.31478e-05 -66L8.16481e-07 317.875H0.756542Z" fill="url(#paint4_linear_1060_1121)" fill-opacity="0.75"/>
<path fill-rule="evenodd" clip-rule="evenodd" d="M0.756348 160.091L673 160.091L673 159.325L0.756348 159.325L0.756348 160.091Z" fill="url(#paint5_linear_1060_1121)" fill-opacity="0.75"/>
<path fill-rule="evenodd" clip-rule="evenodd" d="M460.73 317.875L460.73 -66L459.974 -66L459.974 317.875H460.73Z" fill="url(#paint6_linear_1060_1121)" fill-opacity="0.75"/>
<path fill-rule="evenodd" clip-rule="evenodd" d="M77.4192 317.875L77.4192 -66L76.6626 -66L76.6626 317.875H77.4192Z" fill="url(#paint7_linear_1060_1121)" fill-opacity="0.75"/>
<path fill-rule="evenodd" clip-rule="evenodd" d="M0.756348 238.981L673.001 238.981L673.001 238.215L0.756348 238.215L0.756348 238.981Z" fill="url(#paint8_linear_1060_1121)" fill-opacity="0.75"/>
<path fill-rule="evenodd" clip-rule="evenodd" d="M154.081 317.875L154.081 -66L153.325 -66L153.325 317.875H154.081Z" fill="url(#paint9_linear_1060_1121)" fill-opacity="0.75"/>
<path fill-rule="evenodd" clip-rule="evenodd" d="M230.743 317.875L230.743 -66L229.986 -66L229.986 317.875H230.743Z" fill="url(#paint10_linear_1060_1121)" fill-opacity="0.75"/>
<path d="M460.731 2.30761L536.636 2.30762L536.636 80.4338L460.731 80.4338L460.731 2.30761Z" fill="white" fill-opacity="0.08"/>
<path d="M384.063 81.1982L459.972 81.1982L459.972 159.325L384.063 159.325L384.063 81.1982Z" fill="white" fill-opacity="0.08"/>
</g>
<defs>
<linearGradient id="paint0_linear_1060_1121" x1="415.573" y1="-65.9995" x2="288.687" y2="290.153" gradientUnits="userSpaceOnUse">
<stop stop-color="white"/>
<stop offset="1" stop-color="white" stop-opacity="0"/>
</linearGradient>
<linearGradient id="paint1_linear_1060_1121" x1="415.576" y1="-66" x2="288.692" y2="290.154" gradientUnits="userSpaceOnUse">
<stop stop-color="white"/>
<stop offset="1" stop-color="white" stop-opacity="0"/>
</linearGradient>
<linearGradient id="paint2_linear_1060_1121" x1="415.573" y1="-65.9992" x2="288.688" y2="290.151" gradientUnits="userSpaceOnUse">
<stop stop-color="white"/>
<stop offset="1" stop-color="white" stop-opacity="0"/>
</linearGradient>
<linearGradient id="paint3_linear_1060_1121" x1="415.574" y1="-66" x2="288.69" y2="290.154" gradientUnits="userSpaceOnUse">
<stop stop-color="white"/>
<stop offset="1" stop-color="white" stop-opacity="0"/>
</linearGradient>
<linearGradient id="paint4_linear_1060_1121" x1="415.573" y1="-66" x2="288.687" y2="290.152" gradientUnits="userSpaceOnUse">
<stop stop-color="white"/>
<stop offset="1" stop-color="white" stop-opacity="0"/>
</linearGradient>
<linearGradient id="paint5_linear_1060_1121" x1="415.573" y1="-65.998" x2="288.688" y2="290.152" gradientUnits="userSpaceOnUse">
<stop stop-color="white"/>
<stop offset="1" stop-color="white" stop-opacity="0"/>
</linearGradient>
<linearGradient id="paint6_linear_1060_1121" x1="415.573" y1="-66" x2="288.688" y2="290.154" gradientUnits="userSpaceOnUse">
<stop stop-color="white"/>
<stop offset="1" stop-color="white" stop-opacity="0"/>
</linearGradient>
<linearGradient id="paint7_linear_1060_1121" x1="415.574" y1="-66" x2="288.688" y2="290.152" gradientUnits="userSpaceOnUse">
<stop stop-color="white"/>
<stop offset="1" stop-color="white" stop-opacity="0"/>
</linearGradient>
<linearGradient id="paint8_linear_1060_1121" x1="415.574" y1="-65.9979" x2="288.688" y2="290.152" gradientUnits="userSpaceOnUse">
<stop stop-color="white"/>
<stop offset="1" stop-color="white" stop-opacity="0"/>
</linearGradient>
<linearGradient id="paint9_linear_1060_1121" x1="415.576" y1="-66" x2="288.69" y2="290.153" gradientUnits="userSpaceOnUse">
<stop stop-color="white"/>
<stop offset="1" stop-color="white" stop-opacity="0"/>
</linearGradient>
<linearGradient id="paint10_linear_1060_1121" x1="415.572" y1="-66" x2="288.684" y2="290.151" gradientUnits="userSpaceOnUse">
<stop stop-color="white"/>
<stop offset="1" stop-color="white" stop-opacity="0"/>
</linearGradient>
<clipPath id="clip0_1060_1121">
<rect width="673" height="384.588" fill="white" transform="translate(0 -66)"/>
</clipPath>
</defs>
</svg>
