<svg width="1471" height="240" viewBox="0 0 1471 240" fill="none" xmlns="http://www.w3.org/2000/svg">
<g clip-path="url(#clip0_1157_144)">
<g filter="url(#filter0_f_1157_144)">
<rect x="1151" width="320" height="320" rx="160" fill="white" fill-opacity="0.05"/>
</g>
<g clip-path="url(#clip1_1157_144)">
<path fill-rule="evenodd" clip-rule="evenodd" d="M341.595 68.7134L341.595 452.588L342.352 452.588L342.352 68.7134L341.595 68.7134Z" fill="url(#paint0_linear_1157_144)" fill-opacity="0.3"/>
<path fill-rule="evenodd" clip-rule="evenodd" d="M264.933 68.7134L264.933 452.588L265.689 452.588L265.689 68.7134L264.933 68.7134Z" fill="url(#paint1_linear_1157_144)" fill-opacity="0.75"/>
<path fill-rule="evenodd" clip-rule="evenodd" d="M648.243 68.7134L648.243 452.588L649 452.588L649 68.7134L648.243 68.7134Z" fill="url(#paint2_linear_1157_144)" fill-opacity="0.75"/>
<path fill-rule="evenodd" clip-rule="evenodd" d="M648.243 226.497L-24.0009 226.497L-24.0009 227.263L648.243 227.263L648.243 226.497Z" fill="url(#paint3_linear_1157_144)" fill-opacity="0.75"/>
<path fill-rule="evenodd" clip-rule="evenodd" d="M188.27 68.7134L188.27 452.588L189.026 452.588L189.026 68.7134L188.27 68.7134Z" fill="url(#paint4_linear_1157_144)" fill-opacity="0.75"/>
<path fill-rule="evenodd" clip-rule="evenodd" d="M571.58 68.7134L571.58 452.588L572.337 452.588L572.337 68.7134L571.58 68.7134Z" fill="url(#paint5_linear_1157_144)" fill-opacity="0.75"/>
<path fill-rule="evenodd" clip-rule="evenodd" d="M648.243 147.607L-24.0011 147.607L-24.0011 148.373L648.243 148.373L648.243 147.607Z" fill="url(#paint6_linear_1157_144)" fill-opacity="0.75"/>
<path fill-rule="evenodd" clip-rule="evenodd" d="M111.608 68.7134L111.608 452.588L112.364 452.588L112.364 68.7134L111.608 68.7134Z" fill="url(#paint7_linear_1157_144)" fill-opacity="0.75"/>
<path fill-rule="evenodd" clip-rule="evenodd" d="M494.919 68.7134L494.919 452.588L495.676 452.588L495.676 68.7134L494.919 68.7134Z" fill="url(#paint8_linear_1157_144)" fill-opacity="0.75"/>
<path fill-rule="evenodd" clip-rule="evenodd" d="M34.9454 68.7134L34.9454 452.588L35.7021 452.588L35.7022 68.7134L34.9454 68.7134Z" fill="url(#paint9_linear_1157_144)" fill-opacity="0.75"/>
<path fill-rule="evenodd" clip-rule="evenodd" d="M418.257 68.7134L418.257 452.588L419.014 452.588L419.014 68.7134L418.257 68.7134Z" fill="url(#paint10_linear_1157_144)" fill-opacity="0.75"/>
<path d="M264.937 305.39L189.028 305.39L189.028 227.263L264.937 227.264L264.937 305.39Z" fill="white" fill-opacity="0.08"/>
</g>
<g clip-path="url(#clip2_1157_144)">
<path fill-rule="evenodd" clip-rule="evenodd" d="M957.757 2.3075L1630 2.30765L1630 1.54165L957.757 1.5415L957.757 2.3075Z" fill="url(#paint11_linear_1157_144)" fill-opacity="0.3"/>
<path fill-rule="evenodd" clip-rule="evenodd" d="M1264.41 317.875L1264.41 -66L1263.65 -66L1263.65 317.875H1264.41Z" fill="url(#paint12_linear_1157_144)" fill-opacity="0.3"/>
<path fill-rule="evenodd" clip-rule="evenodd" d="M957.757 81.198L1630 81.1981L1630 80.4321L957.757 80.4321L957.757 81.198Z" fill="url(#paint13_linear_1157_144)" fill-opacity="0.3"/>
<path fill-rule="evenodd" clip-rule="evenodd" d="M1341.07 317.875L1341.07 -66L1340.31 -66L1340.31 317.875H1341.07Z" fill="url(#paint14_linear_1157_144)" fill-opacity="0.75"/>
<path fill-rule="evenodd" clip-rule="evenodd" d="M957.757 317.875L957.757 -66L957 -66L957 317.875H957.757Z" fill="url(#paint15_linear_1157_144)" fill-opacity="0.75"/>
<path fill-rule="evenodd" clip-rule="evenodd" d="M957.757 160.091L1630 160.091L1630 159.325L957.757 159.325L957.757 160.091Z" fill="url(#paint16_linear_1157_144)" fill-opacity="0.75"/>
<path fill-rule="evenodd" clip-rule="evenodd" d="M1417.73 317.875L1417.73 -66L1416.97 -66L1416.97 317.875H1417.73Z" fill="url(#paint17_linear_1157_144)" fill-opacity="0.75"/>
<path fill-rule="evenodd" clip-rule="evenodd" d="M1034.42 317.875L1034.42 -66L1033.66 -66L1033.66 317.875H1034.42Z" fill="url(#paint18_linear_1157_144)" fill-opacity="0.75"/>
<path fill-rule="evenodd" clip-rule="evenodd" d="M957.757 238.981L1630 238.981L1630 238.215L957.757 238.215L957.757 238.981Z" fill="url(#paint19_linear_1157_144)" fill-opacity="0.75"/>
<path fill-rule="evenodd" clip-rule="evenodd" d="M1111.08 317.875L1111.08 -66L1110.32 -66L1110.32 317.875H1111.08Z" fill="url(#paint20_linear_1157_144)" fill-opacity="0.75"/>
<path fill-rule="evenodd" clip-rule="evenodd" d="M1187.74 317.875L1187.74 -66L1186.99 -66L1186.99 317.875H1187.74Z" fill="url(#paint21_linear_1157_144)" fill-opacity="0.75"/>
<path d="M1417.73 2.30761L1493.64 2.30762L1493.64 80.4338L1417.73 80.4338L1417.73 2.30761Z" fill="white" fill-opacity="0.08"/>
<path d="M1341.06 81.1982L1416.97 81.1982L1416.97 159.325L1341.06 159.325L1341.06 81.1982Z" fill="white" fill-opacity="0.08"/>
</g>
</g>
<defs>
<filter id="filter0_f_1157_144" x="1087" y="-64" width="448" height="448" filterUnits="userSpaceOnUse" color-interpolation-filters="sRGB">
<feFlood flood-opacity="0" result="BackgroundImageFix"/>
<feBlend mode="normal" in="SourceGraphic" in2="BackgroundImageFix" result="shape"/>
<feGaussianBlur stdDeviation="32" result="effect1_foregroundBlur_1157_144"/>
</filter>
<linearGradient id="paint0_linear_1157_144" x1="233.425" y1="452.588" x2="360.309" y2="96.4346" gradientUnits="userSpaceOnUse">
<stop stop-color="white"/>
<stop offset="1" stop-color="white" stop-opacity="0"/>
</linearGradient>
<linearGradient id="paint1_linear_1157_144" x1="233.427" y1="452.588" x2="360.311" y2="96.4346" gradientUnits="userSpaceOnUse">
<stop stop-color="white"/>
<stop offset="1" stop-color="white" stop-opacity="0"/>
</linearGradient>
<linearGradient id="paint2_linear_1157_144" x1="233.427" y1="452.588" x2="360.313" y2="96.4365" gradientUnits="userSpaceOnUse">
<stop stop-color="white"/>
<stop offset="1" stop-color="white" stop-opacity="0"/>
</linearGradient>
<linearGradient id="paint3_linear_1157_144" x1="233.426" y1="452.586" x2="360.311" y2="96.4364" gradientUnits="userSpaceOnUse">
<stop stop-color="white"/>
<stop offset="1" stop-color="white" stop-opacity="0"/>
</linearGradient>
<linearGradient id="paint4_linear_1157_144" x1="233.427" y1="452.588" x2="360.312" y2="96.4347" gradientUnits="userSpaceOnUse">
<stop stop-color="white"/>
<stop offset="1" stop-color="white" stop-opacity="0"/>
</linearGradient>
<linearGradient id="paint5_linear_1157_144" x1="233.426" y1="452.588" x2="360.312" y2="96.4363" gradientUnits="userSpaceOnUse">
<stop stop-color="white"/>
<stop offset="1" stop-color="white" stop-opacity="0"/>
</linearGradient>
<linearGradient id="paint6_linear_1157_144" x1="233.426" y1="452.586" x2="360.311" y2="96.4363" gradientUnits="userSpaceOnUse">
<stop stop-color="white"/>
<stop offset="1" stop-color="white" stop-opacity="0"/>
</linearGradient>
<linearGradient id="paint7_linear_1157_144" x1="233.422" y1="452.588" x2="360.312" y2="96.4395" gradientUnits="userSpaceOnUse">
<stop stop-color="white"/>
<stop offset="1" stop-color="white" stop-opacity="0"/>
</linearGradient>
<linearGradient id="paint8_linear_1157_144" x1="233.425" y1="452.588" x2="360.311" y2="96.4359" gradientUnits="userSpaceOnUse">
<stop stop-color="white"/>
<stop offset="1" stop-color="white" stop-opacity="0"/>
</linearGradient>
<linearGradient id="paint9_linear_1157_144" x1="233.431" y1="452.588" x2="360.316" y2="96.4347" gradientUnits="userSpaceOnUse">
<stop stop-color="white"/>
<stop offset="1" stop-color="white" stop-opacity="0"/>
</linearGradient>
<linearGradient id="paint10_linear_1157_144" x1="233.428" y1="452.588" x2="360.316" y2="96.4371" gradientUnits="userSpaceOnUse">
<stop stop-color="white"/>
<stop offset="1" stop-color="white" stop-opacity="0"/>
</linearGradient>
<linearGradient id="paint11_linear_1157_144" x1="1372.57" y1="-65.9995" x2="1245.69" y2="290.153" gradientUnits="userSpaceOnUse">
<stop stop-color="white"/>
<stop offset="1" stop-color="white" stop-opacity="0"/>
</linearGradient>
<linearGradient id="paint12_linear_1157_144" x1="1372.58" y1="-66" x2="1245.69" y2="290.154" gradientUnits="userSpaceOnUse">
<stop stop-color="white"/>
<stop offset="1" stop-color="white" stop-opacity="0"/>
</linearGradient>
<linearGradient id="paint13_linear_1157_144" x1="1372.57" y1="-65.9992" x2="1245.69" y2="290.151" gradientUnits="userSpaceOnUse">
<stop stop-color="white"/>
<stop offset="1" stop-color="white" stop-opacity="0"/>
</linearGradient>
<linearGradient id="paint14_linear_1157_144" x1="1372.57" y1="-66" x2="1245.69" y2="290.154" gradientUnits="userSpaceOnUse">
<stop stop-color="white"/>
<stop offset="1" stop-color="white" stop-opacity="0"/>
</linearGradient>
<linearGradient id="paint15_linear_1157_144" x1="1372.57" y1="-66" x2="1245.69" y2="290.152" gradientUnits="userSpaceOnUse">
<stop stop-color="white"/>
<stop offset="1" stop-color="white" stop-opacity="0"/>
</linearGradient>
<linearGradient id="paint16_linear_1157_144" x1="1372.57" y1="-65.998" x2="1245.69" y2="290.152" gradientUnits="userSpaceOnUse">
<stop stop-color="white"/>
<stop offset="1" stop-color="white" stop-opacity="0"/>
</linearGradient>
<linearGradient id="paint17_linear_1157_144" x1="1372.57" y1="-66" x2="1245.69" y2="290.154" gradientUnits="userSpaceOnUse">
<stop stop-color="white"/>
<stop offset="1" stop-color="white" stop-opacity="0"/>
</linearGradient>
<linearGradient id="paint18_linear_1157_144" x1="1372.57" y1="-66" x2="1245.69" y2="290.152" gradientUnits="userSpaceOnUse">
<stop stop-color="white"/>
<stop offset="1" stop-color="white" stop-opacity="0"/>
</linearGradient>
<linearGradient id="paint19_linear_1157_144" x1="1372.57" y1="-65.9979" x2="1245.69" y2="290.152" gradientUnits="userSpaceOnUse">
<stop stop-color="white"/>
<stop offset="1" stop-color="white" stop-opacity="0"/>
</linearGradient>
<linearGradient id="paint20_linear_1157_144" x1="1372.58" y1="-66" x2="1245.69" y2="290.153" gradientUnits="userSpaceOnUse">
<stop stop-color="white"/>
<stop offset="1" stop-color="white" stop-opacity="0"/>
</linearGradient>
<linearGradient id="paint21_linear_1157_144" x1="1372.57" y1="-66" x2="1245.68" y2="290.151" gradientUnits="userSpaceOnUse">
<stop stop-color="white"/>
<stop offset="1" stop-color="white" stop-opacity="0"/>
</linearGradient>
<clipPath id="clip0_1157_144">
<rect width="1471" height="240" rx="24" fill="white"/>
</clipPath>
<clipPath id="clip1_1157_144">
<rect width="673" height="384.588" fill="white" transform="translate(649 452.588) rotate(-180)"/>
</clipPath>
<clipPath id="clip2_1157_144">
<rect width="673" height="384.588" fill="white" transform="translate(957 -66)"/>
</clipPath>
</defs>
</svg>
