<svg width="116" height="30" viewBox="0 0 116 30" fill="none" xmlns="http://www.w3.org/2000/svg">
<g clip-path="url(#clip0_546_913)">
<path d="M0 23.3134V18.9835H5.76137C7.44735 18.9835 8.8475 18.624 9.95734 17.9004C11.0672 17.1791 11.9046 16.2747 12.4718 15.185C13.039 14.0975 13.3204 12.9206 13.3204 11.6545C13.3204 10.3883 13.0368 9.21149 12.4718 8.12397C11.9046 7.03646 11.0605 6.13206 9.93947 5.41077C8.81846 4.68948 7.42502 4.32772 5.75913 4.32772H0V0H5.59389C7.5925 0 9.34547 0.33273 10.855 0.99819C12.3646 1.66365 13.6196 2.54795 14.6178 3.64663C15.616 4.74531 16.3708 5.98914 16.8821 7.37589C17.3935 8.76264 17.6481 10.1896 17.6481 11.6545C17.6481 13.1194 17.3935 14.5463 16.8821 15.9353C16.3708 17.3221 15.616 18.5659 14.6178 19.6646C13.6196 20.7633 12.3646 21.6453 10.855 22.313C9.34547 22.9785 7.59027 23.3112 5.59389 23.3112H0V23.3134ZM0 6.99403H4.32996V23.3134H0V6.99403Z" fill="#02AFD2"/>
<path d="M18.9834 14.4883C18.9834 13.2668 19.2156 12.1234 19.6824 11.0583C20.1491 9.99307 20.781 9.05964 21.5805 8.2602C22.3799 7.46075 23.3134 6.82879 24.3785 6.36207C25.4437 5.89536 26.5871 5.66312 27.8086 5.66312H30.3074V9.99307H27.8086C27.1878 9.99307 26.6049 10.1092 26.0601 10.3437C25.5152 10.5759 25.0395 10.8997 24.6286 11.3106C24.2178 11.7215 23.8962 12.1994 23.6617 12.742C23.4295 13.2869 23.3134 13.8697 23.3134 14.4905V23.3157H18.9834V14.4905V14.4883Z" fill="#02AFD2"/>
<path d="M37.3015 16.6186C36.0577 16.6186 35.0193 16.3462 34.1863 15.8036C33.3534 15.2587 32.7259 14.5821 32.3038 13.7715C31.8818 12.9608 31.6719 12.0855 31.6719 11.1409C31.6719 10.1963 31.8773 9.32091 32.2882 8.5103C32.6991 7.69969 33.3266 7.02307 34.1707 6.47819C35.0148 5.93555 36.0577 5.66312 37.3015 5.66312H46.1602V9.99307H37.3015C36.9018 9.99307 36.607 10.1159 36.4194 10.3593C36.2296 10.6049 36.1358 10.864 36.1358 11.1431C36.1358 11.4223 36.2363 11.6813 36.4351 11.9247C36.6338 12.1703 36.9241 12.2909 37.3015 12.2909H41.531C42.7971 12.2909 43.8467 12.5634 44.6774 13.106C45.5103 13.6509 46.1311 14.3275 46.542 15.1381C46.9529 15.9487 47.1583 16.8263 47.1583 17.7687C47.1583 18.7111 46.9462 19.5887 46.5264 20.3993C46.1043 21.2099 45.4768 21.8865 44.6439 22.4314C43.8109 22.9762 42.7726 23.2465 41.531 23.2465H32.3396V18.9165H41.531C41.9083 18.9165 42.1964 18.7959 42.3974 18.5503C42.5961 18.3069 42.6966 18.0456 42.6966 17.7665C42.6966 17.4873 42.6028 17.2283 42.413 16.9849C42.2232 16.7415 41.9307 16.6186 41.531 16.6186H37.3015Z" fill="#02AFD2"/>
<path d="M48.5249 13.8206V9.49062H58.949C59.8154 9.49062 60.4697 9.22489 60.9141 8.69118C61.3585 8.1597 61.5862 7.5657 61.5974 6.90917C61.6086 6.25488 61.392 5.66088 60.9476 5.12717C60.5032 4.59346 59.8377 4.32772 58.949 4.32772H48.5249V0H58.949C60.5478 0 61.8743 0.339429 62.9283 1.01605C63.9823 1.69491 64.7706 2.54795 65.2932 3.57964C65.8157 4.61133 66.077 5.7234 66.077 6.90917C66.077 8.09494 65.8112 9.20702 65.2775 10.2387C64.7438 11.2704 63.9511 12.1257 62.8971 12.8023C61.843 13.4789 60.5277 13.8183 58.9512 13.8183H48.5271L48.5249 13.8206ZM48.5249 6.99403H52.8549V23.3134H48.5249V6.99403Z" fill="#0091A0"/>
<path d="M66.7427 14.4883C66.7427 13.2668 66.9749 12.1234 67.4416 11.0583C67.9083 9.99307 68.5403 9.05964 69.3398 8.2602C70.1392 7.46075 71.0726 6.82879 72.1378 6.36207C73.203 5.89536 74.3463 5.66312 75.5678 5.66312H78.0667V9.99307H75.5678C74.947 9.99307 74.3642 10.1092 73.8193 10.3437C73.2745 10.5759 72.7988 10.8997 72.3879 11.3106C71.977 11.7215 71.6555 12.1994 71.421 12.742C71.1888 13.2869 71.0726 13.8697 71.0726 14.4905V23.3157H66.7427V14.4905V14.4883Z" fill="#0091A0"/>
<path d="M97.0163 14.4883C97.0163 15.7098 96.7885 16.8531 96.333 17.9183C95.8774 18.9835 95.2499 19.9169 94.4505 20.7164C93.6511 21.5158 92.7132 22.1433 91.6368 22.5989C90.5605 23.0544 89.4104 23.2822 88.1889 23.2822C86.9674 23.2822 85.8241 23.0544 84.7589 22.5989C83.6937 22.1433 82.7603 21.5158 81.9608 20.7164C81.1614 19.9169 80.5339 18.9835 80.0783 17.9183C79.6228 16.8531 79.395 15.7098 79.395 14.4883C79.395 13.2668 79.6228 12.119 80.0783 11.0404C80.5339 9.96405 81.1614 9.02615 81.9608 8.22671C82.7603 7.42726 83.6937 6.79976 84.7589 6.34421C85.8241 5.88866 86.9674 5.66089 88.1889 5.66089C89.8325 5.66089 91.313 6.05615 92.635 6.84219C93.957 7.63047 95.0043 8.66886 95.7814 9.95735L92.5166 13.2221C92.2509 12.2887 91.7217 11.5183 90.9356 10.9064C90.1473 10.2968 89.2318 9.99085 88.1889 9.99085C87.5681 9.99085 86.9853 10.107 86.4404 10.3414C85.8955 10.5737 85.4244 10.8975 85.0246 11.3084C84.6249 11.7193 84.3078 12.1971 84.0756 12.7398C83.8433 13.2847 83.725 13.8675 83.725 14.4883C83.725 15.1091 83.8411 15.6919 84.0756 16.2368C84.3078 16.7817 84.6249 17.2529 85.0246 17.6526C85.4244 18.0523 85.8955 18.3694 86.4404 18.6016C86.9831 18.8339 87.5659 18.9522 88.1889 18.9522C88.812 18.9522 89.3926 18.8361 89.9374 18.6016C90.4823 18.3694 90.9579 18.0523 91.3688 17.6526C91.7797 17.2529 92.1013 16.7817 92.3335 16.2368C92.5658 15.6919 92.6841 15.1113 92.6841 14.4883H97.0141H97.0163ZM82.2623 17.3511L91.3219 8.29147L94.3857 11.3553L85.3261 20.4149L82.2623 17.3511Z" fill="#0091A0"/>
<path d="M98.3477 14.4883C98.3477 13.2668 98.5799 12.1234 99.0466 11.0583C99.5133 9.99307 100.145 9.05964 100.945 8.2602C101.744 7.46075 102.675 6.82879 103.743 6.36207C104.808 5.89536 105.951 5.66312 107.173 5.66312C108.394 5.66312 109.538 5.89536 110.603 6.36207C111.668 6.82879 112.601 7.46075 113.401 8.2602C114.2 9.05964 114.832 9.99084 115.299 11.0583C115.766 12.1234 115.998 13.2668 115.998 14.4883C115.998 15.7098 115.766 16.8531 115.299 17.9183C114.832 18.9835 114.2 19.9169 113.401 20.7164C112.601 21.5158 111.668 22.1478 110.603 22.6145C109.538 23.0812 108.394 23.3134 107.173 23.3134H104.674V18.9835H107.173C107.794 18.9835 108.376 18.8674 108.921 18.6351C109.464 18.4029 109.942 18.0813 110.353 17.6682C110.764 17.2573 111.085 16.7817 111.32 16.2368C111.552 15.6919 111.668 15.1113 111.668 14.4883C111.668 13.8652 111.552 13.2846 111.32 12.7398C111.087 12.1949 110.764 11.7193 110.353 11.3084C109.942 10.8975 109.464 10.5759 108.921 10.3414C108.376 10.1092 107.794 9.99084 107.173 9.99084C106.552 9.99084 105.969 10.107 105.424 10.3414C104.879 10.5737 104.404 10.8975 103.993 11.3084C103.582 11.7193 103.26 12.1971 103.028 12.7398C102.796 13.2846 102.678 13.8675 102.678 14.4883V29.9747H98.3477V14.4883Z" fill="#0091A0"/>
</g>
<defs>
<clipPath id="clip0_546_913">
<rect width="116" height="29.9747" fill="white"/>
</clipPath>
</defs>
</svg>
