<svg width="83" height="83" viewBox="0 0 83 83" fill="none" xmlns="http://www.w3.org/2000/svg">
<ellipse cx="41.0779" cy="41.0781" rx="40.5512" ry="40.5512" transform="rotate(0.74939 41.0779 41.0781)" fill="url(#paint0_linear_1408_160)"/>
<path d="M41.1574 30.3431C41.1592 29.7263 41.0377 29.1153 40.7999 28.5462C40.5621 27.977 40.213 27.4611 39.7729 27.0289C39.3329 26.5966 38.8108 26.2568 38.2375 26.0292C37.6642 25.8017 37.0512 25.6911 36.4345 25.7039C35.8178 25.7168 35.2099 25.8528 34.6465 26.1041C34.0832 26.3553 33.5758 26.7166 33.1541 27.1668C32.7325 27.617 32.4051 28.147 32.1913 28.7256C31.9774 29.3042 31.8814 29.9197 31.909 30.5359C31.0025 30.769 30.1609 31.2053 29.448 31.8117C28.7351 32.4182 28.1695 33.179 27.7942 34.0364C27.4188 34.8938 27.2435 35.8254 27.2815 36.7606C27.3195 37.6958 27.5698 38.6101 28.0134 39.4342C27.2334 40.068 26.6199 40.8827 26.2266 41.8075C25.8332 42.7324 25.6717 43.7394 25.7562 44.7409C25.8407 45.7423 26.1687 46.708 26.7115 47.5538C27.2543 48.3997 27.9956 49.1001 28.8709 49.5941C28.7628 50.4303 28.8273 51.2798 29.0604 52.0902C29.2935 52.9005 29.6902 53.6544 30.2261 54.3054C30.762 54.9564 31.4257 55.4906 32.1761 55.875C32.9265 56.2595 33.7478 56.486 34.5892 56.5406C35.4306 56.5952 36.2743 56.4767 37.0681 56.1925C37.862 55.9082 38.5891 55.4643 39.2046 54.888C39.8202 54.3118 40.311 53.6154 40.6469 52.842C40.9827 52.0686 41.1565 51.2346 41.1574 50.3914V30.3431Z" stroke="#0097A7" stroke-width="2.31327" stroke-linecap="round" stroke-linejoin="round"/>
<path d="M41.1582 30.3431C41.1564 29.7263 41.278 29.1153 41.5157 28.5462C41.7535 27.977 42.1026 27.4611 42.5427 27.0289C42.9827 26.5966 43.5048 26.2568 44.0781 26.0292C44.6514 25.8017 45.2645 25.6911 45.8811 25.7039C46.4978 25.7168 47.1057 25.8528 47.6691 26.1041C48.2324 26.3553 48.7399 26.7166 49.1615 27.1668C49.5832 27.617 49.9105 28.147 50.1244 28.7256C50.3382 29.3042 50.4342 29.9197 50.4067 30.5359C51.3131 30.769 52.1547 31.2053 52.8676 31.8117C53.5805 32.4182 54.1461 33.179 54.5214 34.0364C54.8968 34.8938 55.0721 35.8254 55.0341 36.7606C54.9962 37.6958 54.7459 38.6101 54.3022 39.4342C55.0823 40.068 55.6957 40.8827 56.0891 41.8075C56.4825 42.7324 56.6439 43.7394 56.5594 44.7409C56.4749 45.7423 56.1469 46.708 55.6041 47.5538C55.0613 48.3997 54.32 49.1001 53.4447 49.5941C53.5528 50.4303 53.4883 51.2798 53.2552 52.0902C53.0221 52.9005 52.6254 53.6544 52.0895 54.3054C51.5536 54.9564 50.89 55.4906 50.1395 55.875C49.3891 56.2595 48.5678 56.486 47.7264 56.5406C46.885 56.5952 46.0413 56.4767 45.2475 56.1925C44.4537 55.9082 43.7265 55.4643 43.111 54.888C42.4955 54.3118 42.0046 53.6154 41.6687 52.842C41.3329 52.0686 41.1591 51.2346 41.1582 50.3914V30.3431Z" stroke="#0097A7" stroke-width="2.31327" stroke-linecap="round" stroke-linejoin="round"/>
<path d="M45.7833 42.6806C44.4886 42.2251 43.358 41.3959 42.5345 40.2979C41.711 39.1999 41.2315 37.8824 41.1568 36.5119C41.0821 37.8824 40.6027 39.1999 39.7791 40.2979C38.9556 41.3959 37.825 42.2251 36.5303 42.6806" stroke="#0097A7" stroke-width="2.31327" stroke-linecap="round" stroke-linejoin="round"/>
<path d="M49.792 32.6565C50.1652 32.0097 50.3764 31.2821 50.4073 30.536" stroke="#0097A7" stroke-width="2.31327" stroke-linecap="round" stroke-linejoin="round"/>
<path d="M31.9092 30.536C31.9397 31.282 32.1503 32.0095 32.523 32.6565" stroke="#0097A7" stroke-width="2.31327" stroke-linecap="round" stroke-linejoin="round"/>
<path d="M28.0137 39.4358C28.2958 39.2061 28.5977 39.0017 28.9158 38.8251" stroke="#0097A7" stroke-width="2.31327" stroke-linecap="round" stroke-linejoin="round"/>
<path d="M53.3994 38.8251C53.7176 39.0017 54.0195 39.2061 54.3016 39.4358" stroke="#0097A7" stroke-width="2.31327" stroke-linecap="round" stroke-linejoin="round"/>
<path d="M31.9046 50.3913C30.8417 50.3918 29.7968 50.1177 28.8711 49.5956" stroke="#0097A7" stroke-width="2.31327" stroke-linecap="round" stroke-linejoin="round"/>
<path d="M53.4436 49.5956C52.5179 50.1177 51.473 50.3918 50.4102 50.3913" stroke="#0097A7" stroke-width="2.31327" stroke-linecap="round" stroke-linejoin="round"/>
<defs>
<linearGradient id="paint0_linear_1408_160" x1="41.0779" y1="0.526897" x2="41.0779" y2="81.6293" gradientUnits="userSpaceOnUse">
<stop stop-color="white"/>
<stop offset="1" stop-color="#B4DFE5"/>
</linearGradient>
</defs>
</svg>
