<svg width="96" height="96" viewBox="0 0 96 96" fill="none" xmlns="http://www.w3.org/2000/svg">
<path d="M48 0.5C74.2335 0.5 95.5 21.7665 95.5 48C95.5 74.2335 74.2335 95.5 48 95.5C21.7665 95.5 0.5 74.2335 0.5 48C0.5 21.7665 21.7665 0.5 48 0.5Z" fill="url(#paint0_linear_1176_183)"/>
<path d="M48 0.5C74.2335 0.5 95.5 21.7665 95.5 48C95.5 74.2335 74.2335 95.5 48 95.5C21.7665 95.5 0.5 74.2335 0.5 48C0.5 21.7665 21.7665 0.5 48 0.5Z" stroke="url(#paint1_linear_1176_183)"/>
<g clip-path="url(#clip0_1176_183)">
<rect x="33" y="38" width="22" height="18" rx="5" fill="white"/>
<path d="M57.1895 30.4071H54.4475V28.1542C54.4475 27.4132 53.8546 26.8203 53.1136 26.8203C52.3725 26.8203 51.7796 27.4132 51.7796 28.1542V30.4071H45.777V28.1542C45.777 27.4132 45.1841 26.8203 44.443 26.8203C43.702 26.8203 43.1091 27.4132 43.1091 28.1542V30.4071H37.1064V28.1542C37.1064 27.4132 36.5136 26.8203 35.7725 26.8203C35.0314 26.8203 34.4386 27.4132 34.4386 28.1542V30.4071H31.6818C29.2214 30.4071 27.2354 32.3932 27.2354 34.8535V64.7335C27.2354 67.1939 29.2214 69.18 31.6818 69.18H46.103C45.8955 68.5278 45.8362 67.8312 46.0141 67.1494L46.7996 63.8591C47.0368 62.8808 47.5259 62.0212 48.2077 61.3542L58.6864 50.8903L61.5766 47.9853C61.5766 47.9853 61.6062 47.9557 61.6359 47.9408V34.8535C61.6359 32.3932 59.6498 30.4071 57.1895 30.4071ZM44.443 54.8625H35.7725C35.0314 54.8625 34.4386 54.2696 34.4386 53.5285C34.4386 52.7875 35.0314 52.1946 35.7725 52.1946H44.443C45.1841 52.1946 45.777 52.7875 45.777 53.5285C45.777 54.2696 45.1841 54.8625 44.443 54.8625ZM53.1136 48.593H35.7873C35.0462 48.593 34.4534 48.0001 34.4534 47.2591C34.4534 46.518 35.0462 45.9251 35.7873 45.9251H53.1136C53.8546 45.9251 54.4475 46.518 54.4475 47.2591C54.4475 48.0001 53.8546 48.593 53.1136 48.593ZM53.1136 42.3235H35.7873C35.0462 42.3235 34.4534 41.7307 34.4534 40.9896C34.4534 40.2485 35.0462 39.6557 35.7873 39.6557H53.1136C53.8546 39.6557 54.4475 40.2485 54.4475 40.9896C54.4475 41.7307 53.8546 42.3235 53.1136 42.3235Z" fill="#00ACC6"/>
<path d="M59.7249 53.6318L50.1058 63.2361C49.7649 63.577 49.5278 64.0068 49.4092 64.4811L48.6237 67.7863C48.431 68.5718 49.1424 69.2833 49.9428 69.0906L53.2479 68.305C53.7074 68.2013 54.1372 67.9642 54.4781 67.6233L64.0972 58.0042L59.7249 53.6318Z" fill="#00ACC6"/>
<path d="M67.8463 49.8677C66.6309 48.6672 64.6745 48.6672 63.4739 49.8677L61.6064 51.7352L65.9788 56.1075L67.8314 54.2548C69.032 53.0395 69.032 51.083 67.8314 49.8677H67.8463Z" fill="#00ACC6"/>
</g>
<defs>
<linearGradient id="paint0_linear_1176_183" x1="8.5" y1="18" x2="83.5" y2="82" gradientUnits="userSpaceOnUse">
<stop stop-color="#E6F8FC"/>
<stop offset="1" stop-color="#BFE9EF"/>
</linearGradient>
<linearGradient id="paint1_linear_1176_183" x1="48" y1="0" x2="48" y2="116" gradientUnits="userSpaceOnUse">
<stop stop-color="white"/>
<stop offset="1" stop-color="#63C1CF"/>
</linearGradient>
<clipPath id="clip0_1176_183">
<rect width="41.5" height="42.3596" fill="white" transform="translate(27.25 26.8203)"/>
</clipPath>
</defs>
</svg>
