<svg width="96" height="96" viewBox="0 0 96 96" fill="none" xmlns="http://www.w3.org/2000/svg">
<path d="M48 0.5C74.2335 0.5 95.5 21.7665 95.5 48C95.5 74.2335 74.2335 95.5 48 95.5C21.7665 95.5 0.5 74.2335 0.5 48C0.5 21.7665 21.7665 0.5 48 0.5Z" fill="url(#paint0_linear_1176_151)"/>
<path d="M48 0.5C74.2335 0.5 95.5 21.7665 95.5 48C95.5 74.2335 74.2335 95.5 48 95.5C21.7665 95.5 0.5 74.2335 0.5 48C0.5 21.7665 21.7665 0.5 48 0.5Z" stroke="url(#paint1_linear_1176_151)"/>
<g clip-path="url(#clip0_1176_151)">
<rect x="36" y="37" width="23" height="22" fill="white"/>
<path d="M68.2707 33H27.7299C25.8977 33 24.4121 34.4856 24.4121 36.3178C24.4121 36.3178 24.4121 36.3178 24.4121 36.3187V59.6826C24.4121 61.5148 25.8977 63.0003 27.7299 63.0003H68.2707C70.1029 63.0003 71.5885 61.5148 71.5885 59.6826V36.3187C71.5895 34.4865 70.1039 33 68.2717 33C68.2717 33 68.2717 33 68.2707 33ZM53.9041 50.0827L45.8167 54.7522C44.6643 55.4155 43.1931 55.0189 42.5298 53.8664C42.3199 53.5025 42.2092 53.0894 42.2092 52.6697V43.3307C42.2111 42.0011 43.2904 40.9256 44.62 40.9276C45.0397 40.9276 45.4528 41.0392 45.8167 41.2482L53.9041 45.9177C55.0546 46.5839 55.4465 48.057 54.7793 49.2075C54.5684 49.5705 54.2671 49.8728 53.9041 50.0827Z" fill="#00ACC6"/>
</g>
<defs>
<linearGradient id="paint0_linear_1176_151" x1="8.5" y1="18" x2="83.5" y2="82" gradientUnits="userSpaceOnUse">
<stop stop-color="#E6F8FC"/>
<stop offset="1" stop-color="#BFE9EF"/>
</linearGradient>
<linearGradient id="paint1_linear_1176_151" x1="48" y1="0" x2="48" y2="116" gradientUnits="userSpaceOnUse">
<stop stop-color="white"/>
<stop offset="1" stop-color="#63C1CF"/>
</linearGradient>
<clipPath id="clip0_1176_151">
<rect width="47.1764" height="30.0003" fill="white" transform="translate(24.4121 33)"/>
</clipPath>
</defs>
</svg>
