<svg width="137" height="92" viewBox="0 0 137 92" fill="none" xmlns="http://www.w3.org/2000/svg">
<g clip-path="url(#clip0_1176_156)">
<path d="M67.5283 0.5C102.117 0.5 121.366 27.7202 121.366 55.5322C121.366 69.3705 115.445 78.3111 105.877 83.8232C96.2655 89.36 82.9358 91.457 68.126 91.457C53.3162 91.457 39.9864 89.36 30.375 83.8232C20.8065 78.3111 14.8857 69.3705 14.8857 55.5322C14.8858 41.6205 19.4087 27.8579 28.2412 17.5811C37.0656 7.31391 50.2124 0.500053 67.5283 0.5Z" fill="url(#paint0_linear_1176_156)" stroke="url(#paint1_linear_1176_156)"/>
<path d="M81.7079 13.4373C79.664 16.6713 68.225 11.6434 52.1023 17.9133C39.8142 22.6928 31.429 32.0781 27.8898 30.6299C26.2858 29.8929 26.5504 25.9494 30.1919 20.4004C36.8919 10.1839 56.4207 0.0339405 74.0289 5.30049C80.7647 7.31522 82.5862 11.9064 81.7079 13.4373Z" fill="#E9FCFF"/>
<path d="M94.022 42.5947H42.2267C36.248 42.5947 31.4014 47.4414 31.4014 53.42V59.8344C31.4014 65.813 36.248 70.6597 42.2267 70.6597H94.022C100.001 70.6597 104.847 65.813 104.847 59.8344V53.42C104.847 47.4414 100.001 42.5947 94.022 42.5947Z" fill="#00ACC6"/>
<path d="M50.6086 62.4079C52.9721 62.4079 54.8881 60.1801 54.8881 57.432C54.8881 54.6839 52.9721 52.4561 50.6086 52.4561C48.2451 52.4561 46.3291 54.6839 46.3291 57.432C46.3291 60.1801 48.2451 62.4079 50.6086 62.4079Z" fill="white"/>
<path d="M85.6398 62.4079C88.0033 62.4079 89.9193 60.1801 89.9193 57.432C89.9193 54.6839 88.0033 52.4561 85.6398 52.4561C83.2763 52.4561 81.3604 54.6839 81.3604 57.432C81.3604 60.1801 83.2763 62.4079 85.6398 62.4079Z" fill="white"/>
<path d="M132.502 10.7409C133.29 5.88121 129.99 1.30213 125.131 0.513283C120.271 -0.275562 115.692 3.02455 114.903 7.88428C114.114 12.744 117.414 17.3231 122.274 18.1119C127.134 18.9008 131.713 15.6007 132.502 10.7409Z" fill="#00ACC6"/>
<path d="M123.696 46.363C123.062 46.363 122.547 45.8483 122.547 45.2136V17.2622C122.547 16.6274 123.062 16.1128 123.696 16.1128C124.331 16.1128 124.846 16.6274 124.846 17.2622V45.2119C124.846 45.8467 124.331 46.3613 123.696 46.3613V46.363Z" fill="#00ACC6"/>
<path d="M130.391 68.669H124.415C123.696 68.669 123.113 68.0862 123.113 67.367V43.3997C123.113 42.6805 123.696 42.0977 124.415 42.0977H130.391C133.627 42.0977 136.249 44.7196 136.249 47.9552V62.8116C136.249 66.0471 133.627 68.669 130.391 68.669Z" fill="url(#paint2_linear_1176_156)"/>
<path d="M124.679 39.4111H122.245C119.977 39.4111 118.138 41.2501 118.138 43.5185V67.2505C118.138 69.5189 119.977 71.3578 122.245 71.3578H124.679C126.947 71.3578 128.786 69.5189 128.786 67.2505V43.5185C128.786 41.2501 126.947 39.4111 124.679 39.4111Z" fill="#00ACC6"/>
<path d="M14.5997 17.989C19.3914 16.8581 22.359 12.0569 21.2281 7.26518C20.0972 2.4735 15.2959 -0.494118 10.5042 0.636822C5.71255 1.76776 2.74493 6.569 3.87587 11.3607C5.00681 16.1524 9.80805 19.12 14.5997 17.989Z" fill="#00ACC6"/>
<path d="M12.5518 46.3635C11.917 46.3635 11.4023 45.8488 11.4023 45.214V17.2627C11.4023 16.6279 11.917 16.1133 12.5518 16.1133C13.1865 16.1133 13.7012 16.6279 13.7012 17.2627V45.2124C13.7012 45.8472 13.1865 46.3618 12.5518 46.3618V46.3635Z" fill="#00ACC6"/>
<path d="M5.85749 68.669H11.8335C12.5527 68.669 13.1355 68.0862 13.1355 67.367V43.3997C13.1355 42.6805 12.5527 42.0977 11.8335 42.0977H5.85749C2.62191 42.0977 0 44.7196 0 47.9552V62.8116C0 66.0471 2.62191 68.669 5.85749 68.669Z" fill="url(#paint3_linear_1176_156)"/>
<path d="M11.5704 71.356H14.0039C16.2724 71.356 18.1113 69.517 18.1113 67.2486L18.1113 43.5166C18.1113 41.2482 16.2724 39.4092 14.0039 39.4092H11.5704C9.30191 39.4092 7.46297 41.2482 7.46297 43.5166L7.46297 67.2486C7.46297 69.517 9.30191 71.356 11.5704 71.356Z" fill="#00ACC6"/>
<path d="M67.671 83.4005C67.473 83.4005 67.2733 83.3957 67.0736 83.3859C63.0928 83.1879 59.8361 80.9978 58.3604 77.5268C58.112 76.9424 58.3848 76.267 58.9692 76.0186C59.5537 75.7702 60.229 76.043 60.4774 76.6274C61.6155 79.3061 64.062 80.9329 67.1872 81.0887C70.5267 81.2543 73.6844 79.712 75.0351 77.2476C75.3403 76.6907 76.0384 76.4862 76.5969 76.7914C77.1537 77.0966 77.3583 77.7963 77.0515 78.3532C75.3695 81.4199 71.6518 83.4005 67.6694 83.4005H67.671Z" fill="#00ACC6"/>
</g>
<defs>
<linearGradient id="paint0_linear_1176_156" x1="68.126" y1="0" x2="68.126" y2="91.9568" gradientUnits="userSpaceOnUse">
<stop stop-color="#E7F8FC"/>
<stop offset="1" stop-color="#B9E7ED"/>
</linearGradient>
<linearGradient id="paint1_linear_1176_156" x1="68.126" y1="0" x2="68.126" y2="91.9568" gradientUnits="userSpaceOnUse">
<stop stop-color="#FEFFFF"/>
<stop offset="1" stop-color="#7FCCD8"/>
</linearGradient>
<linearGradient id="paint2_linear_1176_156" x1="129.681" y1="42.0977" x2="129.681" y2="68.669" gradientUnits="userSpaceOnUse">
<stop stop-color="#E7F8FC"/>
<stop offset="1" stop-color="#B9E7ED"/>
</linearGradient>
<linearGradient id="paint3_linear_1176_156" x1="6.56776" y1="42.0977" x2="6.56776" y2="68.669" gradientUnits="userSpaceOnUse">
<stop stop-color="#E7F8FC"/>
<stop offset="1" stop-color="#B9E7ED"/>
</linearGradient>
<clipPath id="clip0_1176_156">
<rect width="136.25" height="91.9568" fill="white"/>
</clipPath>
</defs>
</svg>
