<svg width="72" height="72" viewBox="0 0 72 72" fill="none" xmlns="http://www.w3.org/2000/svg">
<ellipse cx="35.9794" cy="35.9788" rx="35.5173" ry="35.5173" transform="rotate(0.74939 35.9794 35.9788)" fill="url(#paint0_linear_1408_172)"/>
<path d="M43.1152 38.0798L51.7742 43.8525C51.8991 43.9355 52.0441 43.9832 52.1939 43.9903C52.3436 43.9975 52.4925 43.9639 52.6247 43.8931C52.7569 43.8224 52.8674 43.7171 52.9445 43.5885C53.0216 43.4598 53.0623 43.3127 53.0624 43.1628V29.575C53.0624 29.4291 53.024 29.2858 52.951 29.1596C52.8779 29.0333 52.7728 28.9286 52.6464 28.8559C52.5199 28.7833 52.3765 28.7453 52.2307 28.7458C52.0848 28.7463 51.9417 28.7853 51.8157 28.8588L43.1152 33.9351" stroke="#0097A7" stroke-width="2.48679" stroke-linecap="round" stroke-linejoin="round"/>
<path d="M39.7996 26.4748H23.221C21.3898 26.4748 19.9053 27.9593 19.9053 29.7905V43.0534C19.9053 44.8846 21.3898 46.3691 23.221 46.3691H39.7996C41.6308 46.3691 43.1153 44.8846 43.1153 43.0534V29.7905C43.1153 27.9593 41.6308 26.4748 39.7996 26.4748Z" stroke="#0097A7" stroke-width="2.48679" stroke-linecap="round" stroke-linejoin="round"/>
<defs>
<linearGradient id="paint0_linear_1408_172" x1="35.9794" y1="0.461491" x2="35.9794" y2="71.496" gradientUnits="userSpaceOnUse">
<stop stop-color="white"/>
<stop offset="1" stop-color="#B4DEE4"/>
</linearGradient>
</defs>
</svg>
