<svg width="40" height="40" viewBox="0 0 40 40" fill="none" xmlns="http://www.w3.org/2000/svg">
<path d="M0 16C0 7.16344 7.16344 0 16 0H24C32.8366 0 40 7.16344 40 16V24C40 32.8366 32.8366 40 24 40H16C7.16344 40 0 32.8366 0 24V16Z" fill="white" fill-opacity="0.1"/>
<path d="M24.1665 11.667H15.8332C13.532 11.667 11.6665 13.5325 11.6665 15.8337V24.167C11.6665 26.4682 13.532 28.3337 15.8332 28.3337H24.1665C26.4677 28.3337 28.3332 26.4682 28.3332 24.167V15.8337C28.3332 13.5325 26.4677 11.667 24.1665 11.667Z" stroke="white" stroke-width="1.25" stroke-linecap="round" stroke-linejoin="round"/>
<path d="M23.3333 19.4753C23.4361 20.1688 23.3176 20.8771 22.9947 21.4994C22.6718 22.1218 22.1609 22.6264 21.5346 22.9416C20.9083 23.2569 20.1986 23.3666 19.5064 23.2552C18.8142 23.1438 18.1747 22.817 17.679 22.3212C17.1832 21.8255 16.8564 21.186 16.745 20.4938C16.6336 19.8015 16.7433 19.0918 17.0585 18.4656C17.3737 17.8393 17.8784 17.3284 18.5007 17.0055C19.1231 16.6825 19.8314 16.5641 20.5249 16.6669C21.2324 16.7718 21.8873 17.1015 22.393 17.6072C22.8987 18.1129 23.2283 18.7678 23.3333 19.4753Z" stroke="white" stroke-width="1.25" stroke-linecap="round" stroke-linejoin="round"/>
<path d="M24.5835 15.417H24.5918" stroke="white" stroke-width="1.25" stroke-linecap="round" stroke-linejoin="round"/>
</svg>
