<svg width="50" height="36" viewBox="0 0 50 36" fill="none" xmlns="http://www.w3.org/2000/svg">
<g clip-path="url(#clip0_723_514)">
<rect x="6" y="4" width="37" height="24" fill="white"/>
<path d="M47.4541 29.4545H46.6359V3.27273C46.6359 1.46455 45.1713 0 43.3632 0H5.72678C3.9186 0 2.45406 1.46455 2.45406 3.27273V29.4545H1.63588C0.735875 29.4545 -0.000488281 30.1909 -0.000488281 31.0909V31.9091C-0.000488281 34.1673 1.83224 36 4.09042 36H44.9995C47.2577 36 49.0904 34.1673 49.0904 31.9091V31.0909C49.0904 30.1909 48.3541 29.4545 47.4541 29.4545ZM6.54497 27V4.90909H42.545V27H6.54497ZM47.4541 31.9091C47.4541 33.2591 46.3495 34.3636 44.9995 34.3636H4.09042C2.74042 34.3636 1.63588 33.2591 1.63588 31.9091V31.0909H18.4741L20.6913 33.3082C20.8468 33.4555 21.0513 33.5455 21.2722 33.5455H27.8177C28.0386 33.5455 28.2431 33.4555 28.3986 33.3082L30.6159 31.0909H47.4541V31.9091Z" fill="#00ACC6"/>
<rect x="10" y="8" width="23" height="5" fill="#00ACC6"/>
<rect x="10" y="16" width="16" height="2" fill="#00ACC6"/>
<rect x="10" y="21" width="10" height="2" fill="#00ACC6"/>
</g>
<defs>
<clipPath id="clip0_723_514">
<rect width="49.0909" height="36" fill="white"/>
</clipPath>
</defs>
</svg>
