<svg width="42" height="43" viewBox="0 0 42 43" fill="none" xmlns="http://www.w3.org/2000/svg">
<path d="M29.9395 3.58679H27.1975V1.33393C27.1975 0.592857 26.6046 0 25.8636 0C25.1225 0 24.5296 0.592857 24.5296 1.33393V3.58679H18.527V1.33393C18.527 0.592857 17.9341 0 17.193 0C16.452 0 15.8591 0.592857 15.8591 1.33393V3.58679H9.85642V1.33393C9.85642 0.592857 9.26357 0 8.5225 0C7.78142 0 7.18857 0.592857 7.18857 1.33393V3.58679H4.43178C1.97142 3.58679 -0.0146484 5.57286 -0.0146484 8.03321V37.9132C-0.0146484 40.3736 1.97142 42.3596 4.43178 42.3596H18.853C18.6455 41.7075 18.5862 41.0109 18.7641 40.3291L19.5496 37.0387C19.7868 36.0605 20.2759 35.2009 20.9577 34.5339L31.4364 24.07L34.3266 21.165C34.3266 21.165 34.3562 21.1354 34.3859 21.1205V8.03321C34.3859 5.57286 32.3998 3.58679 29.9395 3.58679ZM17.193 28.0421H8.5225C7.78142 28.0421 7.18857 27.4493 7.18857 26.7082C7.18857 25.9671 7.78142 25.3743 8.5225 25.3743H17.193C17.9341 25.3743 18.527 25.9671 18.527 26.7082C18.527 27.4493 17.9341 28.0421 17.193 28.0421ZM25.8636 21.7727H8.53732C7.79625 21.7727 7.20339 21.1798 7.20339 20.4388C7.20339 19.6977 7.79625 19.1048 8.53732 19.1048H25.8636C26.6046 19.1048 27.1975 19.6977 27.1975 20.4388C27.1975 21.1798 26.6046 21.7727 25.8636 21.7727ZM25.8636 15.5032H8.53732C7.79625 15.5032 7.20339 14.9104 7.20339 14.1693C7.20339 13.4282 7.79625 12.8354 8.53732 12.8354H25.8636C26.6046 12.8354 27.1975 13.4282 27.1975 14.1693C27.1975 14.9104 26.6046 15.5032 25.8636 15.5032Z" fill="#00ACC6"/>
<path d="M32.4749 26.8115L22.8558 36.4158C22.5149 36.7567 22.2778 37.1865 22.1592 37.6608L21.3737 40.966C21.181 41.7515 21.8924 42.463 22.6928 42.2703L25.9979 41.4847C26.4574 41.381 26.8872 41.1438 27.2281 40.803L36.8472 31.1838L32.4749 26.8115Z" fill="#00ACC6"/>
<path d="M40.5963 23.0474C39.3809 21.8468 37.4245 21.8468 36.2239 23.0474L34.3564 24.9149L38.7288 29.2872L40.5814 27.4345C41.782 26.2192 41.782 24.2627 40.5814 23.0474H40.5963Z" fill="#00ACC6"/>
</svg>
