<svg width="48" height="30" viewBox="0 0 48 30" fill="none" xmlns="http://www.w3.org/2000/svg">
<path d="M43.8586 0H3.31775C1.48557 0 0 1.48557 0 3.31775C0 3.31775 0 3.31775 0 3.31871V26.6826C0 28.5148 1.48557 30.0003 3.31775 30.0003H43.8586C45.6908 30.0003 47.1764 28.5148 47.1764 26.6826V3.31871C47.1773 1.48654 45.6918 0 43.8596 0C43.8596 0 43.8596 0 43.8586 0ZM29.492 17.0827L21.4046 21.7522C20.2521 22.4155 18.781 22.0189 18.1177 20.8664C17.9078 20.5025 17.797 20.0894 17.797 19.6697V10.3307C17.799 9.00106 18.8783 7.92563 20.2079 7.92756C20.6276 7.92756 21.0407 8.03924 21.4046 8.24816L29.492 12.9177C30.6425 13.5839 31.0344 15.057 30.3671 16.2075C30.1563 16.5705 29.8549 16.8728 29.492 17.0827Z" fill="#00ACC6"/>
</svg>
