<svg width="733" height="388" viewBox="0 0 733 388" fill="none" xmlns="http://www.w3.org/2000/svg">
<g clip-path="url(#clip0_1031_2067)">
<g style="mix-blend-mode:multiply" opacity="0.2">
<path d="M183.264 199.27C178.42 194.101 176.405 185.231 177.218 172.659L198.358 165.848C197.777 173.37 198.254 178.767 199.789 182.045C201.323 185.327 203.992 186.664 207.795 186.063C210.625 185.617 212.764 184.387 214.22 182.37C215.673 180.358 216.547 177.929 216.841 175.082C217.323 170.376 216.685 166.548 214.928 163.591C213.164 160.637 210.244 157.554 206.162 154.337L194.975 145.54C190.521 142.192 187.242 138.369 185.143 134.069C183.041 129.772 182.33 124.335 183.005 117.765C184.003 108.056 187.623 100.131 193.869 93.9837C200.116 87.8389 208.261 83.9709 218.31 82.3853C229.04 80.6925 236.183 82.6279 239.738 88.1916C243.29 93.758 244.867 101.299 244.467 110.816L223.225 117.206C223.674 110.962 223.445 106.443 222.534 103.641C221.62 100.842 219.36 99.7279 215.752 100.298C213.116 100.713 210.967 102.044 209.296 104.284C207.626 106.524 206.65 109.021 206.368 111.764C205.964 115.685 206.475 118.862 207.908 121.288C209.336 123.718 211.74 126.254 215.114 128.906L226.024 137.604C231.167 141.712 235.063 146.285 237.715 151.313C240.365 156.346 241.307 162.59 240.54 170.041C239.956 175.728 238.164 181.002 235.171 185.865C232.174 190.729 228.227 194.798 223.335 198.079C218.44 201.36 212.967 203.476 206.921 204.433C195.994 206.156 188.111 204.433 183.267 199.267L183.264 199.27Z" fill="black"/>
<path d="M271.915 93.0304L253.625 95.9166L255.47 77.9731L316.046 68.4116L314.201 86.3552L296.204 89.1962L285.802 190.394L261.513 194.225L271.915 93.0276V93.0304Z" fill="black"/>
<path d="M339.604 64.6926L366.381 60.4663L376.964 176.005L354.724 179.514L353.025 154.027L334.295 156.981L327.066 183.879L304.386 187.459L339.604 64.6926ZM352.224 139.395L349.984 92.5757L338.03 141.636L352.224 139.395Z" fill="black"/>
<path d="M404.055 125.28L388.329 57.0047L411.009 53.4244L419.431 93.3348L435.444 49.5677L457.538 46.0806L427.319 121.61L422.466 168.825L399.202 172.495L404.055 125.28Z" fill="black"/>
</g>
<g style="mix-blend-mode:multiply" opacity="0.2">
<path d="M232.042 229.161L213.751 232.047L215.596 214.104L276.173 204.545L274.328 222.488L256.33 225.33L245.928 326.527L221.64 330.361L232.042 229.164V229.161Z" fill="black"/>
<path d="M287.633 317.121C282.967 314.917 279.9 311.131 278.436 305.765C276.971 300.402 276.692 293.306 277.6 284.481L285.977 202.993L309.682 199.252L300.958 284.123C300.374 289.811 300.597 294.164 301.63 297.186C302.662 300.204 305.323 301.378 309.617 300.698C313.908 300.021 316.901 297.956 318.603 294.505C320.301 291.052 321.441 286.484 322.028 280.797L330.751 195.926L354.603 192.162L346.226 273.65C345.32 282.475 343.549 289.895 340.916 295.905C338.281 301.917 334.3 306.815 328.971 310.595C323.639 314.379 316.585 316.963 307.805 318.348C299.025 319.733 292.302 319.324 287.636 317.118L287.633 317.121Z" fill="black"/>
<path d="M371.426 189.51L388.252 186.855L408.224 244.622L414.589 182.697L434.635 179.534L422.387 298.675L406.145 301.24L386.579 239.501L379.805 305.396L359.173 308.652L371.42 189.51H371.426Z" fill="black"/>
<path d="M452.485 176.715L504.135 168.564L502.411 185.334L474.757 189.699L471.506 221.323L492.869 217.952L491.132 234.865L469.769 238.237L465.929 275.597L493.877 271.187L492.184 287.661L440.241 295.859L452.488 176.718L452.485 176.715Z" fill="black"/>
<path d="M516.721 166.579L545.693 162.005C555.644 160.437 563.287 160.507 568.63 162.22C573.971 163.935 577.56 167.301 579.396 172.315C581.23 177.331 581.69 184.302 580.773 193.223L576.313 236.615C575.376 245.734 573.452 253.25 570.54 259.157C567.629 265.068 563.256 269.811 557.418 273.385C551.581 276.96 543.783 279.516 534.03 281.056L504.474 285.72L516.718 166.579H516.721ZM535.477 264.188C539.669 263.528 542.838 262.374 544.973 260.735C547.106 259.095 548.576 256.96 549.375 254.324C550.173 251.692 550.819 247.971 551.313 243.166L556.377 193.892C556.84 189.383 556.874 186.026 556.479 183.82C556.078 181.616 554.964 180.104 553.13 179.283C551.293 178.465 548.277 178.386 544.085 179.046L538.964 179.856L530.21 265.02L535.477 264.188Z" fill="black"/>
</g>
<path d="M183.264 196C178.42 190.831 176.405 181.961 177.218 169.389L198.358 162.578C197.777 170.1 198.254 175.497 199.789 178.775C201.323 182.057 203.992 183.394 207.795 182.793C210.625 182.347 212.764 181.117 214.22 179.1C215.673 177.088 216.547 174.659 216.841 171.812C217.323 167.106 216.685 163.278 214.928 160.321C213.164 157.367 210.244 154.284 206.162 151.067L194.975 142.27C190.521 138.921 187.242 135.099 185.143 130.799C183.041 126.502 182.33 121.065 183.005 114.495C184.003 104.786 187.623 96.8614 193.869 90.7137C200.116 84.5689 208.261 80.7009 218.31 79.1153C229.04 77.4225 236.183 79.3579 239.738 84.9216C243.29 90.488 244.867 98.0294 244.467 107.546L223.225 113.936C223.674 107.692 223.445 103.173 222.534 100.371C221.62 97.5723 219.36 96.4579 215.752 97.0278C213.116 97.4425 210.967 98.7742 209.296 101.014C207.626 103.254 206.65 105.751 206.368 108.494C205.964 112.415 206.475 115.592 207.908 118.018C209.336 120.448 211.74 122.984 215.114 125.636L226.024 134.334C231.167 138.442 235.063 143.015 237.715 148.043C240.365 153.076 241.307 159.32 240.54 166.771C239.956 172.458 238.164 177.731 235.171 182.595C232.174 187.459 228.227 191.528 223.335 194.809C218.44 198.09 212.967 200.206 206.921 201.163C195.994 202.886 188.111 201.163 183.267 195.997L183.264 196Z" fill="#85E6F5"/>
<path d="M271.915 89.7599L253.625 92.6461L255.47 74.7025L316.046 65.1411L314.201 83.0847L296.204 85.9257L285.802 187.123L261.513 190.955L271.915 89.7571V89.7599Z" fill="#85E6F5"/>
<path d="M339.604 61.4255L366.381 57.1992L376.964 172.738L354.724 176.247L353.025 150.76L334.295 153.714L327.066 180.612L304.386 184.192L339.604 61.4255ZM352.224 136.125L349.984 89.3058L338.03 138.366L352.224 136.125Z" fill="#85E6F5"/>
<path d="M404.055 122.013L388.329 53.7376L411.009 50.1574L419.431 90.0677L435.444 46.3006L457.538 42.8135L427.319 118.343L422.466 165.558L399.202 169.231L404.055 122.016V122.013Z" fill="#85E6F5"/>
<path d="M232.042 225.892L213.751 228.778L215.596 210.834L276.173 201.273L274.328 219.216L256.33 222.058L245.928 323.255L221.64 327.089L232.042 225.892Z" fill="#007682"/>
<path d="M287.633 313.854C282.967 311.651 279.9 307.865 278.436 302.499C276.971 297.135 276.692 290.04 277.6 281.215L285.977 199.727L309.682 195.985L300.958 280.856C300.374 286.544 300.597 290.897 301.63 293.919C302.662 296.938 305.323 298.111 309.617 297.431C313.908 296.754 316.901 294.689 318.603 291.239C320.301 287.785 321.441 283.218 322.028 277.53L330.751 192.659L354.603 188.896L346.226 270.384C345.32 279.209 343.549 286.629 340.916 292.638C338.281 298.65 334.3 303.548 328.971 307.329C323.639 311.112 316.585 313.696 307.805 315.082C299.025 316.467 292.302 316.058 287.636 313.852L287.633 313.854Z" fill="#007682"/>
<path d="M371.426 186.24L388.252 183.585L408.224 241.352L414.589 179.427L434.635 176.264L422.387 295.405L406.145 297.97L386.579 236.231L379.805 302.126L359.173 305.382L371.42 186.24H371.426Z" fill="#007682"/>
<path d="M452.485 173.449L504.135 165.298L502.411 182.068L474.757 186.432L471.506 218.056L492.869 214.685L491.132 231.599L469.769 234.97L465.929 272.33L493.877 267.92L492.184 284.394L440.241 292.593L452.488 173.451L452.485 173.449Z" fill="#007682"/>
<path d="M516.721 163.312L545.693 158.738C555.644 157.17 563.287 157.24 568.63 158.953C573.971 160.668 577.56 164.034 579.396 169.047C581.23 174.064 581.69 181.035 580.773 189.956L576.313 233.348C575.376 242.466 573.452 249.982 570.54 255.89C567.629 261.801 563.256 266.544 557.418 270.118C551.581 273.693 543.783 276.249 534.03 277.789L504.474 282.453L516.718 163.312H516.721ZM535.477 260.921C539.669 260.261 542.838 259.107 544.973 257.467C547.106 255.828 548.576 253.692 549.375 251.057C550.173 248.425 550.819 244.704 551.313 239.899L556.377 190.625C556.84 186.116 556.874 182.759 556.479 180.553C556.078 178.349 554.964 176.837 553.13 176.016C551.293 175.198 548.277 175.119 544.085 175.779L538.964 176.589L530.21 261.753L535.477 260.921Z" fill="#007682"/>
<path d="M183.264 190.721C178.42 185.552 176.405 176.682 177.218 164.11L198.358 157.299C197.777 164.821 198.254 170.218 199.789 173.497C201.323 176.778 203.992 178.115 207.795 177.514C210.625 177.068 212.764 175.838 214.22 173.821C215.673 171.809 216.547 169.38 216.841 166.534C217.323 161.828 216.685 157.999 214.928 155.042C213.164 152.088 210.244 149.005 206.162 145.788L194.975 136.992C190.521 133.643 187.242 129.82 185.143 125.52C183.041 121.223 182.33 115.787 183.005 109.216C184.003 99.5076 187.623 91.5826 193.869 85.4349C200.116 79.2901 208.261 75.4221 218.31 73.8365C229.04 72.1437 236.183 74.0791 239.738 79.6428C243.29 85.2092 244.867 92.7506 244.467 102.267L223.225 108.657C223.674 102.414 223.445 97.8938 222.534 95.0923C221.62 92.2935 219.36 91.1791 215.752 91.749C213.116 92.1637 210.967 93.4954 209.296 95.7355C207.626 97.9756 206.65 100.473 206.368 103.215C205.964 107.136 206.475 110.313 207.908 112.74C209.336 115.169 211.74 117.705 215.114 120.357L226.024 129.055C231.167 133.163 235.063 137.736 237.715 142.764C240.365 147.797 241.307 154.041 240.54 161.492C239.956 167.18 238.164 172.453 235.171 177.317C232.174 182.181 228.227 186.249 223.335 189.53C218.44 192.811 212.967 194.927 206.921 195.884C195.994 197.608 188.111 195.884 183.267 190.718L183.264 190.721Z" fill="#4FABB7"/>
<path d="M271.915 84.4816L253.625 87.3678L255.47 69.4242L316.046 59.8628L314.201 77.8064L296.204 80.6474L285.802 181.845L261.513 185.676L271.915 84.4788V84.4816Z" fill="#4FABB7"/>
<path d="M339.604 56.1472L366.381 51.9209L376.964 167.459L354.724 170.969L353.025 145.481L334.295 148.435L327.066 175.334L304.386 178.914L339.604 56.1472ZM352.224 130.847L349.984 84.0275L338.03 133.087L352.224 130.847Z" fill="#4FABB7"/>
<path d="M404.055 116.735L388.329 48.4588L411.009 44.8786L419.431 84.7889L435.444 41.0218L457.538 37.5347L427.319 113.064L422.466 160.279L399.202 163.949L404.055 116.735Z" fill="#4FABB7"/>
<path d="M273.603 356.987C272.519 355.568 272.136 353.336 272.449 350.286L273.49 340.172C273.809 337.057 274.669 334.605 276.071 332.817C277.473 331.028 279.677 329.897 282.684 329.423C285.554 328.971 287.509 329.352 288.556 330.574C289.602 331.793 289.992 333.717 289.721 336.343L289.478 338.713L283.926 339.591L284.194 336.975C284.281 336.137 284.309 335.469 284.281 334.969C284.253 334.47 284.087 334.078 283.788 333.796C283.486 333.514 282.989 333.423 282.295 333.533C281.257 333.697 280.549 334.143 280.179 334.862C279.809 335.584 279.558 336.597 279.423 337.898L278.103 350.735C277.967 352.058 278.038 353.023 278.317 353.618C278.596 354.214 279.211 354.436 280.159 354.287C281.13 354.135 281.79 353.703 282.134 352.995C282.481 352.289 282.721 351.288 282.854 349.982L283.136 347.225L288.688 346.348L288.448 348.684C288.172 351.384 287.365 353.565 286.033 355.226C284.702 356.888 282.591 357.949 279.699 358.406C276.715 358.877 274.683 358.403 273.6 356.981L273.603 356.987Z" fill="#4FABB7"/>
<path d="M296.286 353.474C295.174 352.106 294.779 349.897 295.093 346.852L296.176 336.318C296.489 333.273 297.361 330.878 298.789 329.146C300.219 327.411 302.428 326.308 305.41 325.836C308.373 325.368 310.412 325.805 311.538 327.151C312.664 328.494 313.07 330.678 312.76 333.702L311.673 344.271C311.363 347.292 310.486 349.693 309.041 351.465C307.597 353.237 305.393 354.357 302.431 354.823C299.446 355.294 297.4 354.845 296.289 353.474H296.286ZM304.914 349.403C305.317 348.686 305.579 347.747 305.698 346.584L307.072 333.225C307.19 332.063 307.117 331.188 306.846 330.602C306.575 330.015 305.955 329.798 304.984 329.953C304.014 330.105 303.325 330.528 302.925 331.222C302.524 331.913 302.264 332.842 302.146 334.004L300.772 347.363C300.651 348.551 300.715 349.445 300.972 350.043C301.232 350.644 301.855 350.864 302.851 350.709C303.822 350.554 304.51 350.119 304.914 349.406V349.403Z" fill="#4FABB7"/>
<path d="M321.334 323.664L327.405 322.708L329.041 339.983L334.551 321.579L340.414 320.654L338.03 348.825L333.869 349.482L335.389 330.37L329.812 350.122L326.274 350.684L324.544 331.981L322.146 351.336L317.948 351.999L321.339 323.67L321.334 323.664Z" fill="#4FABB7"/>
<path d="M348.604 319.362L354.295 318.464L351.392 346.717L345.701 347.614L348.607 319.362H348.604Z" fill="#4FABB7"/>
<path d="M362.031 317.243L366.02 316.614L370.757 330.311L372.267 315.626L377.021 314.876L374.115 343.129L370.264 343.738L365.625 329.098L364.02 344.723L359.128 345.496L362.031 317.243Z" fill="#4FABB7"/>
<path d="M383.374 339.593C382.378 338.092 382.043 335.773 382.364 332.633L383.338 323.181C383.668 319.971 384.537 317.437 385.944 315.581C387.352 313.724 389.559 312.556 392.566 312.082C395.458 311.625 397.444 312.012 398.525 313.236C399.605 314.464 400.009 316.41 399.732 319.085L399.563 320.724L394.011 321.601L394.214 319.612C394.349 318.309 394.301 317.375 394.076 316.805C393.85 316.232 393.229 316.029 392.211 316.19C391.17 316.354 390.461 316.808 390.089 317.553C389.717 318.298 389.463 319.333 389.327 320.659L388.035 333.217C387.9 334.54 387.979 335.527 388.278 336.179C388.574 336.831 389.231 337.076 390.25 336.916C391.243 336.76 391.982 336.269 392.465 335.451C392.947 334.633 393.257 333.547 393.396 332.198L393.706 329.196L390.964 329.631L391.322 326.141L399.233 324.894L397.74 339.404L393.994 339.996L393.872 337.545C392.814 339.632 391.175 340.851 388.955 341.204C386.224 341.636 384.365 341.1 383.369 339.596L383.374 339.593Z" fill="#4FABB7"/>
<path d="M418.883 334.332C417.732 333.107 417.255 331.003 417.447 328.021L422.461 326.407C422.323 328.19 422.435 329.471 422.799 330.247C423.163 331.025 423.798 331.344 424.698 331.2C425.367 331.093 425.877 330.8 426.222 330.323C426.566 329.843 426.775 329.268 426.842 328.593C426.958 327.476 426.806 326.568 426.388 325.871C425.971 325.171 425.279 324.44 424.312 323.676L421.66 321.588C420.602 320.795 419.826 319.887 419.329 318.868C418.83 317.85 418.66 316.56 418.821 315C419.058 312.698 419.916 310.819 421.397 309.36C422.876 307.902 424.808 306.985 427.192 306.61C429.734 306.209 431.43 306.669 432.273 307.989C433.114 309.307 433.489 311.096 433.393 313.35L428.357 314.865C428.465 313.386 428.408 312.314 428.194 311.648C427.976 310.985 427.44 310.72 426.586 310.856C425.962 310.954 425.451 311.27 425.054 311.801C424.656 312.331 424.424 312.924 424.36 313.573C424.264 314.504 424.385 315.257 424.723 315.832C425.062 316.408 425.632 317.009 426.43 317.638L429.018 319.701C430.236 320.674 431.162 321.76 431.791 322.951C432.42 324.144 432.643 325.625 432.46 327.391C432.321 328.743 431.895 329.993 431.187 331.144C430.476 332.298 429.539 333.263 428.38 334.041C427.218 334.817 425.92 335.322 424.486 335.548C421.894 335.957 420.023 335.548 418.878 334.321L418.883 334.332Z" fill="#4FABB7"/>
<path d="M439.967 330.8C438.858 329.428 438.46 327.222 438.774 324.178L439.857 313.643C440.17 310.596 441.042 308.204 442.47 306.469C443.9 304.733 446.109 303.63 449.091 303.159C452.051 302.691 454.093 303.131 455.219 304.474C456.345 305.817 456.751 308.001 456.441 311.025L455.354 321.591C455.044 324.615 454.167 327.013 452.722 328.785C451.278 330.557 449.074 331.677 446.112 332.145C443.127 332.617 441.081 332.168 439.97 330.8H439.967ZM448.595 326.726C448.998 326.009 449.26 325.07 449.379 323.907L450.753 310.548C450.871 309.386 450.795 308.511 450.527 307.924C450.256 307.338 449.639 307.12 448.665 307.275C447.695 307.431 447.006 307.851 446.606 308.542C446.205 309.233 445.945 310.162 445.824 311.327L444.45 324.686C444.329 325.874 444.397 326.765 444.653 327.366C444.91 327.967 445.536 328.187 446.532 328.032C447.503 327.88 448.188 327.442 448.595 326.728V326.726Z" fill="#4FABB7"/>
<path d="M463.423 327.098C462.312 325.729 461.914 323.52 462.227 320.476L463.311 309.941C463.624 306.897 464.496 304.502 465.926 302.769C467.356 301.034 469.563 299.931 472.548 299.46C475.51 298.992 477.55 299.432 478.675 300.775C479.801 302.118 480.207 304.301 479.897 307.326L478.811 317.892C478.501 320.916 477.623 323.314 476.179 325.083C474.734 326.855 472.531 327.975 469.568 328.443C466.586 328.915 464.538 328.466 463.426 327.095L463.423 327.098ZM472.048 323.024C472.452 322.307 472.714 321.367 472.833 320.205L474.207 306.846C474.325 305.684 474.252 304.812 473.981 304.222C473.71 303.636 473.092 303.418 472.119 303.573C471.148 303.729 470.46 304.149 470.059 304.843C469.659 305.534 469.399 306.462 469.28 307.625L467.906 320.984C467.785 322.172 467.853 323.063 468.11 323.664C468.366 324.265 468.99 324.485 469.986 324.33C470.956 324.177 471.645 323.74 472.048 323.026V323.024Z" fill="#4FABB7"/>
<path d="M488.085 297.35L492.077 296.721L496.814 310.418L498.323 295.733L503.077 294.983L500.171 323.236L496.32 323.845L491.682 309.205L490.076 324.83L485.184 325.603L488.087 297.35H488.085Z" fill="#4FABB7"/>
<path d="M232.042 220.613L213.751 223.499L215.596 205.555L276.173 195.997L274.328 213.94L256.33 216.781L245.928 317.979L221.64 321.813L232.042 220.615V220.613Z" fill="#00B8D4"/>
<path d="M287.633 308.576C282.967 306.372 279.9 302.586 278.436 297.22C276.971 291.856 276.692 284.761 277.6 275.936L285.977 194.448L309.682 190.707L300.958 275.577C300.374 281.265 300.597 285.618 301.63 288.64C302.662 291.659 305.323 292.833 309.617 292.153C313.908 291.476 316.901 289.41 318.603 285.96C320.301 282.507 321.441 277.939 322.028 272.251L330.751 187.38L354.603 183.617L346.226 265.105C345.32 273.93 343.549 281.35 340.916 287.359C338.281 293.371 334.3 298.269 328.971 302.05C323.639 305.833 316.585 308.418 307.805 309.803C299.025 311.188 292.302 310.779 287.636 308.573L287.633 308.576Z" fill="#00B8D4"/>
<path d="M371.426 180.962L388.252 178.307L408.224 236.074L414.589 174.149L434.635 170.986L422.387 290.127L406.145 292.692L386.579 230.953L379.805 296.85L359.173 300.106L371.42 180.965L371.426 180.962Z" fill="#00B8D4"/>
<path d="M452.485 168.17L504.135 160.019L502.411 176.789L474.757 181.154L471.506 212.778L492.869 209.406L491.132 226.32L469.769 229.691L465.929 267.051L493.877 262.642L492.184 279.115L440.241 287.314L452.488 168.173L452.485 168.17Z" fill="#00B8D4"/>
<path d="M516.721 158.033L545.693 153.46C555.644 151.891 563.287 151.961 568.63 153.674C573.971 155.389 577.56 158.755 579.396 163.769C581.23 168.785 581.69 175.756 580.773 184.677L576.313 228.069C575.376 237.188 573.452 244.704 570.54 250.611C567.629 256.522 563.256 261.265 557.418 264.839C551.581 268.414 543.783 270.97 534.03 272.511L504.474 277.174L516.718 158.033H516.721ZM535.477 255.642C539.669 254.982 542.838 253.831 544.973 252.189C547.106 250.549 548.576 248.414 549.375 245.779C550.173 243.146 550.819 239.425 551.313 234.62L556.377 185.346C556.84 180.838 556.874 177.48 556.479 175.274C556.078 173.07 554.964 171.558 553.13 170.737C551.293 169.919 548.277 169.84 544.085 170.5L538.964 171.31L530.21 256.474L535.477 255.642Z" fill="#00B8D4"/>
<path d="M456.325 149.155C455.913 149.155 455.552 148.853 455.487 148.432C455.417 147.97 455.735 147.538 456.201 147.467L701.288 110.514C701.751 110.449 702.183 110.762 702.253 111.228C702.324 111.69 702.005 112.122 701.54 112.193L456.452 149.146C456.41 149.152 456.367 149.157 456.325 149.157V149.155Z" fill="#85E6F5"/>
<path d="M92.841 364.83C92.4291 364.83 92.068 364.528 92.0031 364.11C91.9325 363.647 92.2513 363.213 92.714 363.145L257.112 338.261C257.575 338.202 258.009 338.509 258.077 338.972C258.147 339.435 257.829 339.869 257.366 339.937L92.9679 364.821C92.9256 364.827 92.8833 364.83 92.8382 364.83H92.841Z" fill="#85E6F5"/>
<path d="M564.917 0L0 74.556V27.0451L564.917 0Z" fill="#4FABB7"/>
<path d="M733 324.826V364.835L257.245 387.606L733 324.826Z" fill="#00B8D4"/>
<g style="mix-blend-mode:multiply" opacity="0.3">
<path d="M177.142 275.668C178.967 255.75 177.83 238.616 174.642 230.285C142.756 251.882 108.46 262.848 100.879 265.114L98.255 293.756C102.546 294.774 115.801 298.182 131.761 304.556L131.614 306.144C131.391 308.568 129.227 310.633 126.787 310.751L93.9159 312.337C91.4782 312.455 89.6726 310.579 89.8955 308.156L91.3964 291.772L93.7974 291.657L96.0008 267.622L81.2566 268.333C80.4215 268.372 79.6739 269.349 79.0334 270.869L74.2964 271.098C71.1817 271.247 69.4268 290.404 72.5416 290.243L77.2786 290.015C77.6453 291.493 78.2181 292.407 79.0532 292.368L86.476 292.009L84.9751 308.393C84.5068 313.511 88.3155 317.472 93.4701 317.223L126.341 315.638C131.295 315.398 135.705 311.349 136.453 306.488C146.062 310.54 156.377 315.624 166.184 321.873C170.969 313.206 175.305 295.719 177.142 275.666V275.668Z" fill="black"/>
<path d="M183.163 224.207C181.695 224.278 180.194 225.412 178.719 227.438C182.807 234.347 184.457 253.151 182.415 275.417C180.369 297.756 175.215 316.93 169.801 324.248C169.854 324.288 169.914 324.325 169.97 324.361C171.065 326.133 172.334 327.078 173.745 327.011C180.539 326.683 188.159 303.399 190.76 275.014C193.362 246.628 189.956 223.877 183.165 224.205L183.163 224.207Z" fill="black"/>
</g>
<path d="M177.142 271.8C178.967 251.882 177.83 234.748 174.642 226.417C142.756 248.014 108.46 258.98 100.879 261.246L98.255 289.888C102.546 290.906 115.801 294.314 131.761 300.688L131.614 302.276C131.391 304.7 129.227 306.765 126.787 306.883L93.9159 308.469C91.4782 308.587 89.6726 306.711 89.8955 304.288L91.3964 287.904L93.7974 287.789L96.0008 263.754L81.2566 264.465C80.4215 264.504 79.6739 265.48 79.0334 267.001L74.2964 267.23C71.1817 267.379 69.4268 286.536 72.5416 286.375L77.2786 286.147C77.6453 287.625 78.2181 288.539 79.0532 288.5L86.476 288.141L84.9751 304.525C84.5068 309.642 88.3155 313.604 93.4701 313.355L126.341 311.77C131.295 311.53 135.705 307.481 136.453 302.62C146.062 306.672 156.377 311.756 166.184 318.005C170.969 309.338 175.305 291.851 177.142 271.797V271.8Z" fill="#007682"/>
<path d="M183.163 220.339C181.695 220.41 180.194 221.547 178.719 223.57C182.807 230.479 184.457 249.283 182.415 271.549C180.369 293.888 175.215 313.062 169.801 320.38C169.854 320.42 169.914 320.456 169.97 320.493C171.065 322.265 172.334 323.21 173.745 323.142C180.539 322.815 188.159 299.531 190.76 271.146C193.362 242.76 189.956 220.009 183.165 220.336L183.163 220.339Z" fill="#007682"/>
<path d="M177.142 266.645C178.967 246.727 177.83 229.593 174.642 221.262C142.756 242.859 108.46 253.825 100.879 256.091L98.2551 284.733C102.546 285.751 115.801 289.159 131.761 295.533L131.614 297.121C131.391 299.545 129.227 301.61 126.787 301.728L93.9159 303.314C91.4783 303.432 89.6726 301.556 89.8955 299.133L91.3965 282.749L93.7974 282.634L96.0008 258.599L81.2566 259.31C80.4215 259.349 79.6739 260.326 79.0335 261.846L74.2965 262.075C71.1817 262.224 69.4269 281.381 72.5416 281.22L77.2786 280.992C77.6454 282.47 78.2181 283.384 79.0532 283.345L86.4761 282.986L84.9751 299.37C84.5068 304.488 88.3156 308.449 93.4701 308.201L126.341 306.615C131.295 306.375 135.705 302.327 136.453 297.465C146.062 301.517 156.377 306.601 166.184 312.85C170.969 304.183 175.305 286.696 177.142 266.643V266.645Z" fill="#00B8D4"/>
<path d="M183.163 215.185C181.695 215.256 180.195 216.393 178.719 218.415C182.807 225.325 184.458 244.129 182.415 266.395C180.369 288.734 175.215 307.908 169.801 315.226C169.854 315.266 169.914 315.302 169.97 315.339C171.065 317.111 172.334 318.056 173.745 317.988C180.539 317.661 188.159 294.376 190.76 265.991C193.362 237.606 189.956 214.855 183.165 215.182L183.163 215.185Z" fill="#00B8D4"/>
</g>
<defs>
<clipPath id="clip0_1031_2067">
<rect width="733" height="387.606" fill="white"/>
</clipPath>
</defs>
</svg>
