<svg width="175" height="51" viewBox="0 0 175 51" fill="none" xmlns="http://www.w3.org/2000/svg">
<rect x="0.5" y="0.5" width="173.08" height="49.9805" rx="7.5" fill="#0097A7" stroke="white"/>
<rect width="142.372" height="36.5568" transform="translate(16.1646 7.46045)" fill="#0097A7"/>
<path fill-rule="evenodd" clip-rule="evenodd" d="M52.7213 25.7397C52.7211 29.3549 51.6489 32.8887 49.6403 35.8945C47.6317 38.9003 44.7769 41.2429 41.4369 42.6262C38.0969 44.0095 34.4217 44.3713 30.8761 43.6658C27.3305 42.9604 24.0737 41.2194 21.5175 38.663C18.9614 36.1065 17.2207 32.8496 16.5156 29.3039C15.8105 25.7582 16.1727 22.083 17.5563 18.7432C18.9399 15.4033 21.2828 12.5487 24.2888 10.5404C27.2947 8.5321 30.8287 7.46027 34.4438 7.46045C36.8442 7.46057 39.221 7.93347 41.4386 8.85216C43.6562 9.77084 45.6711 11.1173 47.3683 12.8147C49.0656 14.5121 50.4118 16.5272 51.3303 18.7448C52.2488 20.9625 52.7214 23.3394 52.7213 25.7397Z" fill="white"/>
<path d="M63.7497 21.4317C63.1063 21.4317 62.5117 21.3218 61.966 21.1019C61.4204 20.8738 60.9439 20.5603 60.5367 20.1612C60.1376 19.7621 59.8281 19.2979 59.6082 18.7685C59.3883 18.2309 59.2783 17.6486 59.2783 17.0214C59.2783 16.4024 59.3883 15.8282 59.6082 15.2988C59.8362 14.7613 60.1539 14.2971 60.5611 13.9061C60.9683 13.507 61.4448 13.1975 61.9905 12.9776C62.5443 12.7577 63.1389 12.6478 63.7741 12.6478C64.2221 12.6478 64.6538 12.7089 65.0691 12.831C65.4845 12.9532 65.8592 13.1242 66.1931 13.3441C66.527 13.564 66.8039 13.8125 67.0238 14.0894L66.0221 15.14C65.794 14.9201 65.5578 14.7369 65.3135 14.5903C65.0773 14.4437 64.8289 14.3296 64.5682 14.2482C64.3076 14.1667 64.0388 14.126 63.7619 14.126C63.3547 14.126 62.976 14.1993 62.6258 14.3459C62.2837 14.4925 61.9823 14.6961 61.7217 14.9568C61.4692 15.2174 61.2697 15.5228 61.1231 15.873C60.9765 16.2233 60.9032 16.6061 60.9032 17.0214C60.9032 17.4205 60.9765 17.7992 61.1231 18.1576C61.2778 18.516 61.4896 18.8295 61.7584 19.0983C62.0271 19.3671 62.3366 19.5788 62.6868 19.7336C63.0452 19.8802 63.4239 19.9535 63.823 19.9535C64.1244 19.9535 64.4054 19.9087 64.666 19.8191C64.9266 19.7295 65.1587 19.6073 65.3623 19.4526C65.566 19.2897 65.7207 19.1024 65.8266 18.8906C65.9406 18.6789 65.9976 18.4508 65.9976 18.2065V17.9377L66.2175 18.1943H63.6886V16.7771H67.5614C67.5777 16.8667 67.5899 16.9685 67.598 17.0825C67.6062 17.1884 67.6103 17.2943 67.6103 17.4002C67.6184 17.4979 67.6225 17.5834 67.6225 17.6567C67.6225 18.2187 67.5247 18.7318 67.3293 19.196C67.1338 19.6521 66.8569 20.0472 66.4985 20.3811C66.1483 20.715 65.737 20.9756 65.2646 21.163C64.8004 21.3421 64.2954 21.4317 63.7497 21.4317ZM69.2899 21.3096V12.7577H74.8852V14.1993H70.8537V19.868H74.9341V21.3096H69.2899ZM70.0229 17.6445V16.2273H74.2622V17.6445H70.0229ZM78.6358 21.3096V14.2238H76.1925V12.7577H82.7407V14.2238H80.224V21.3096H78.6358ZM87.6331 21.3096V19.9046H89.0381V14.1627H87.6331V12.7577H92.0312V14.1627H90.6263V19.9046H92.0312V21.3096H87.6331ZM95.7682 21.3096V14.2238H93.3248V12.7577H99.873V14.2238H97.3564V21.3096H95.7682ZM108.712 21.4317C108.101 21.4317 107.535 21.3218 107.013 21.1019C106.492 20.882 106.036 20.5766 105.645 20.1856C105.262 19.7865 104.965 19.3182 104.753 18.7807C104.541 18.2431 104.436 17.6567 104.436 17.0214C104.436 16.3862 104.541 15.7997 104.753 15.2622C104.965 14.7246 105.262 14.2604 105.645 13.8695C106.036 13.4704 106.492 13.1609 107.013 12.941C107.535 12.7211 108.101 12.6111 108.712 12.6111C109.33 12.6111 109.901 12.7211 110.422 12.941C110.943 13.1609 111.395 13.4704 111.778 13.8695C112.161 14.2686 112.458 14.7369 112.67 15.2744C112.882 15.8038 112.987 16.3862 112.987 17.0214C112.987 17.6486 112.882 18.2309 112.67 18.7685C112.458 19.306 112.161 19.7743 111.778 20.1734C111.395 20.5725 110.943 20.882 110.422 21.1019C109.901 21.3218 109.33 21.4317 108.712 21.4317ZM108.712 19.9168C109.102 19.9168 109.457 19.8476 109.774 19.7092C110.1 19.5626 110.381 19.3589 110.617 19.0983C110.854 18.8295 111.037 18.52 111.167 18.1698C111.306 17.8196 111.375 17.4368 111.375 17.0214C111.375 16.6061 111.306 16.2233 111.167 15.873C111.037 15.5228 110.854 15.2174 110.617 14.9568C110.381 14.688 110.1 14.4844 109.774 14.3459C109.457 14.1993 109.102 14.126 108.712 14.126C108.329 14.126 107.974 14.1993 107.649 14.3459C107.323 14.4844 107.042 14.6839 106.806 14.9446C106.569 15.2052 106.386 15.5106 106.256 15.8608C106.126 16.211 106.06 16.5979 106.06 17.0214C106.06 17.4368 106.126 17.8237 106.256 18.182C106.386 18.5323 106.569 18.8377 106.806 19.0983C107.042 19.3589 107.323 19.5626 107.649 19.7092C107.974 19.8476 108.329 19.9168 108.712 19.9168ZM114.71 21.3096V12.7577H116.139L121.099 19.4404L120.83 19.4892C120.798 19.2612 120.769 19.0291 120.745 18.7929C120.72 18.5485 120.696 18.2961 120.671 18.0354C120.655 17.7748 120.639 17.502 120.623 17.2169C120.614 16.9318 120.606 16.6346 120.598 16.3251C120.59 16.0074 120.586 15.6735 120.586 15.3233V12.7577H122.162V21.3096H120.708L115.724 14.7247L116.041 14.6391C116.082 15.0952 116.115 15.4862 116.139 15.812C116.172 16.1296 116.196 16.4065 116.212 16.6427C116.229 16.8708 116.241 17.0622 116.249 17.2169C116.265 17.3716 116.273 17.5142 116.273 17.6445C116.282 17.7667 116.286 17.8848 116.286 17.9988V21.3096H114.71Z" fill="white"/>
<path d="M57.7009 38.6401L62.1081 27.5028H64.3992L68.7746 38.6401H66.038L63.9378 32.9919C63.853 32.7692 63.7681 32.5305 63.6833 32.2759C63.5984 32.0214 63.5135 31.7615 63.4287 31.4963C63.3438 31.2206 63.259 30.9554 63.1741 30.7008C63.0999 30.4356 63.0362 30.1917 62.9832 29.9689L63.4605 29.953C63.3969 30.2182 63.3226 30.4781 63.2378 30.7326C63.1635 30.9872 63.084 31.2418 62.9991 31.4963C62.9249 31.7403 62.84 31.9896 62.7445 32.2441C62.6491 32.4881 62.5589 32.7427 62.4741 33.0078L60.3739 38.6401H57.7009ZM59.8011 36.5081L60.6444 34.4716H65.7675L66.5949 36.5081H59.8011ZM70.1642 38.6401V27.5028H74.9691C75.6692 27.5028 76.2897 27.6619 76.8306 27.9801C77.3822 28.2983 77.8171 28.7332 78.1353 29.2848C78.4641 29.8363 78.6285 30.4569 78.6285 31.1463C78.6285 31.8676 78.4641 32.5146 78.1353 33.0874C77.8171 33.6496 77.3822 34.095 76.8306 34.4239C76.2897 34.7527 75.6692 34.9171 74.9691 34.9171H72.8689V38.6401H70.1642ZM72.8212 32.5464H74.5873C74.8206 32.5464 75.0328 32.4881 75.2237 32.3714C75.4146 32.2547 75.5684 32.0956 75.6851 31.8941C75.8018 31.6926 75.8601 31.4592 75.8601 31.194C75.8601 30.9183 75.8018 30.6849 75.6851 30.494C75.5684 30.303 75.4146 30.1546 75.2237 30.0485C75.0328 29.9424 74.8206 29.8894 74.5873 29.8894H72.8212V32.5464ZM80.6986 38.6401V27.5028H85.5036C86.2037 27.5028 86.8242 27.6619 87.3651 27.9801C87.9167 28.2983 88.3516 28.7332 88.6698 29.2848C88.9986 29.8363 89.163 30.4569 89.163 31.1463C89.163 31.8676 88.9986 32.5146 88.6698 33.0874C88.3516 33.6496 87.9167 34.095 87.3651 34.4239C86.8242 34.7527 86.2037 34.9171 85.5036 34.9171H83.4034V38.6401H80.6986ZM83.3557 32.5464H85.1217C85.3551 32.5464 85.5672 32.4881 85.7582 32.3714C85.9491 32.2547 86.1029 32.0956 86.2196 31.8941C86.3362 31.6926 86.3946 31.4592 86.3946 31.194C86.3946 30.9183 86.3362 30.6849 86.2196 30.494C86.1029 30.303 85.9491 30.1546 85.7582 30.0485C85.5672 29.9424 85.3551 29.8894 85.1217 29.8894H83.3557V32.5464ZM100.021 38.7992C99.2888 38.7992 98.6258 38.7144 98.0318 38.5447C97.4485 38.3644 96.9287 38.1098 96.4726 37.781C96.0165 37.4415 95.6082 37.0438 95.2475 36.5877L96.8863 34.7262C97.4166 35.4368 97.947 35.9141 98.4773 36.1581C99.0183 36.4021 99.5752 36.524 100.148 36.524C100.434 36.524 100.694 36.4869 100.928 36.4127C101.161 36.3384 101.341 36.2324 101.469 36.0945C101.596 35.946 101.659 35.7656 101.659 35.5535C101.659 35.3944 101.617 35.2512 101.532 35.1239C101.458 34.9966 101.352 34.8853 101.214 34.7898C101.076 34.6943 100.912 34.6095 100.721 34.5352C100.53 34.4504 100.328 34.3814 100.116 34.3284C99.904 34.2648 99.6865 34.2117 99.4638 34.1693C98.8486 34.0314 98.3129 33.8617 97.8568 33.6602C97.4007 33.4586 97.0189 33.2147 96.7113 32.9283C96.4143 32.6313 96.1915 32.2972 96.043 31.9259C95.8945 31.5441 95.8203 31.1198 95.8203 30.6531C95.8203 30.1546 95.9317 29.6985 96.1544 29.2848C96.3878 28.8605 96.6954 28.4999 97.0772 28.2029C97.4697 27.8953 97.9205 27.6619 98.4296 27.5028C98.9387 27.3331 99.4691 27.2482 100.021 27.2482C100.753 27.2482 101.378 27.3278 101.898 27.4869C102.428 27.6354 102.879 27.8528 103.25 28.1392C103.632 28.4256 103.956 28.7703 104.221 29.1734L102.55 30.7804C102.328 30.5046 102.084 30.2765 101.819 30.0962C101.564 29.9159 101.288 29.778 100.991 29.6825C100.705 29.5871 100.408 29.5393 100.1 29.5393C99.782 29.5393 99.5062 29.5818 99.2729 29.6666C99.0501 29.7409 98.8751 29.8523 98.7478 30.0007C98.6205 30.1386 98.5569 30.3084 98.5569 30.5099C98.5569 30.6902 98.6099 30.844 98.716 30.9713C98.8221 31.0986 98.9653 31.2152 99.1456 31.3213C99.3259 31.4168 99.5327 31.5016 99.7661 31.5759C99.9994 31.6395 100.243 31.6926 100.498 31.735C101.081 31.8517 101.606 32.0055 102.073 32.1964C102.55 32.3873 102.959 32.6207 103.298 32.8965C103.648 33.1722 103.913 33.5011 104.094 33.8829C104.285 34.2541 104.38 34.689 104.38 35.1876C104.38 35.9619 104.189 36.6195 103.807 37.1605C103.436 37.6908 102.922 38.0992 102.264 38.3856C101.617 38.6614 100.869 38.7992 100.021 38.7992ZM108.832 38.6401V29.8894H105.522V27.5028H114.925V29.8894H111.536V38.6401H108.832ZM121.433 38.7992C120.584 38.7992 119.81 38.656 119.11 38.3697C118.41 38.0833 117.8 37.6802 117.28 37.1605C116.76 36.6407 116.357 36.0308 116.071 35.3308C115.785 34.6307 115.641 33.8617 115.641 33.0237C115.641 32.1858 115.785 31.4168 116.071 30.7167C116.357 30.0167 116.76 29.4068 117.28 28.887C117.8 28.3673 118.41 27.9642 119.11 27.6778C119.81 27.3914 120.579 27.2482 121.417 27.2482C122.255 27.2482 123.024 27.3914 123.724 27.6778C124.424 27.9642 125.034 28.3673 125.554 28.887C126.073 29.4068 126.471 30.0167 126.747 30.7167C127.033 31.4168 127.176 32.1858 127.176 33.0237C127.176 33.8511 127.033 34.6201 126.747 35.3308C126.471 36.0308 126.073 36.6407 125.554 37.1605C125.034 37.6802 124.424 38.0833 123.724 38.3697C123.024 38.656 122.26 38.7992 121.433 38.7992ZM121.417 36.2536C121.852 36.2536 122.25 36.174 122.61 36.0149C122.981 35.8558 123.3 35.6331 123.565 35.3467C123.841 35.0497 124.053 34.7049 124.201 34.3125C124.35 33.92 124.424 33.4904 124.424 33.0237C124.424 32.557 124.35 32.1274 124.201 31.735C124.053 31.3425 123.841 31.0031 123.565 30.7167C123.3 30.4197 122.981 30.1917 122.61 30.0326C122.25 29.8735 121.852 29.7939 121.417 29.7939C120.982 29.7939 120.579 29.8735 120.208 30.0326C119.847 30.1917 119.529 30.4197 119.253 30.7167C118.977 31.0031 118.765 31.3425 118.617 31.735C118.479 32.1274 118.41 32.557 118.41 33.0237C118.41 33.4904 118.479 33.9253 118.617 34.3284C118.765 34.7209 118.977 35.0603 119.253 35.3467C119.529 35.6331 119.847 35.8558 120.208 36.0149C120.579 36.174 120.982 36.2536 121.417 36.2536ZM129.269 38.6401V27.5028H134.281C134.992 27.5028 135.633 27.6566 136.206 27.9642C136.789 28.2718 137.246 28.6961 137.574 29.237C137.903 29.7674 138.068 30.372 138.068 31.0508C138.068 31.7509 137.903 32.382 137.574 32.9442C137.246 33.4958 136.795 33.9306 136.222 34.2488C135.649 34.5671 135.002 34.7262 134.281 34.7262H131.847V38.6401H129.269ZM135.442 38.6401L132.61 33.6124L135.379 33.2147L138.529 38.6401H135.442ZM131.847 32.6578H134.042C134.318 32.6578 134.557 32.5995 134.758 32.4828C134.97 32.3555 135.129 32.1805 135.236 31.9577C135.352 31.735 135.411 31.4804 135.411 31.194C135.411 30.9076 135.347 30.6584 135.22 30.4462C135.092 30.2235 134.907 30.0538 134.663 29.9371C134.429 29.8204 134.143 29.7621 133.804 29.7621H131.847V32.6578ZM140.441 38.6401V27.5028H148.205V29.8098H143.066V36.3331H148.364V38.6401H140.441ZM141.713 34.0738V31.8782H147.489V34.0738H141.713Z" fill="white"/>
<path d="M34.4267 44.0172C44.5126 44.0172 52.6888 35.8337 52.6888 25.7388C52.6888 15.644 44.5126 7.46045 34.4267 7.46045C24.3408 7.46045 16.1646 15.644 16.1646 25.7388C16.1646 35.8337 24.3408 44.0172 34.4267 44.0172Z" stroke="#00A5BA" stroke-width="0.227072" stroke-miterlimit="10"/>
<path fill-rule="evenodd" clip-rule="evenodd" d="M27.0584 17.2124L36.7811 26.4156L27.0257 35.6525C26.8261 35.4477 26.7158 35.172 26.719 34.8859V18.0135C26.7194 17.864 26.7498 17.716 26.8083 17.5784C26.8669 17.4408 26.9523 17.3164 27.0597 17.2124" fill="#00A5BA"/>
<path fill-rule="evenodd" clip-rule="evenodd" d="M27.0243 35.6523L36.7797 26.415L40.0661 29.5168L28.4037 35.8567C28.1832 35.979 27.9287 36.0253 27.6794 35.9884C27.4301 35.9514 27.1998 35.8333 27.0243 35.6523Z" fill="#007E8F"/>
<path fill-rule="evenodd" clip-rule="evenodd" d="M39.9988 23.3645L36.7804 26.415L27.0577 17.2123C27.2347 17.0444 27.4605 16.9373 27.7025 16.9066C27.9444 16.8759 28.1898 16.9231 28.403 17.0415L39.9988 23.3645Z" fill="#97ECF6"/>
<path fill-rule="evenodd" clip-rule="evenodd" d="M36.7811 26.4152L39.9994 23.3647L43.8653 25.4779C44.043 25.5745 44.1914 25.7173 44.2947 25.8913C44.3981 26.0653 44.4527 26.2639 44.4527 26.4663C44.4527 26.6687 44.3981 26.8674 44.2947 27.0413C44.1914 27.2153 44.043 27.3581 43.8653 27.4548L40.0675 29.517L36.7811 26.4152Z" fill="#3CD7EB"/>
</svg>
