<svg width="175" height="51" viewBox="0 0 175 51" fill="none" xmlns="http://www.w3.org/2000/svg">
<rect x="0.5" y="0.5" width="173.08" height="49.9805" rx="7.5" fill="#0097A7" stroke="white"/>
<rect width="142.372" height="36.5568" transform="translate(16.1646 7.46045)" fill="#0097A7"/>
<path fill-rule="evenodd" clip-rule="evenodd" d="M52.7213 25.7397C52.7211 29.3549 51.6489 32.8887 49.6403 35.8945C47.6317 38.9003 44.7769 41.2429 41.4369 42.6262C38.0969 44.0095 34.4217 44.3713 30.8761 43.6658C27.3305 42.9604 24.0737 41.2194 21.5175 38.663C18.9614 36.1065 17.2207 32.8496 16.5156 29.3039C15.8105 25.7582 16.1727 22.083 17.5563 18.7432C18.9399 15.4033 21.2828 12.5487 24.2888 10.5404C27.2947 8.5321 30.8287 7.46027 34.4438 7.46045C36.8442 7.46057 39.221 7.93347 41.4386 8.85216C43.6562 9.77084 45.6711 11.1173 47.3683 12.8147C49.0656 14.5121 50.4118 16.5272 51.3303 18.7448C52.2488 20.9625 52.7214 23.3394 52.7213 25.7397Z" fill="white"/>
<path d="M63.7497 21.4317C63.1063 21.4317 62.5117 21.3218 61.966 21.1019C61.4204 20.8738 60.9439 20.5603 60.5367 20.1612C60.1376 19.7621 59.8281 19.2979 59.6082 18.7685C59.3883 18.2309 59.2783 17.6486 59.2783 17.0214C59.2783 16.4024 59.3883 15.8282 59.6082 15.2988C59.8362 14.7613 60.1539 14.2971 60.5611 13.9061C60.9683 13.507 61.4448 13.1975 61.9905 12.9776C62.5443 12.7577 63.1389 12.6478 63.7741 12.6478C64.2221 12.6478 64.6538 12.7089 65.0691 12.831C65.4845 12.9532 65.8592 13.1242 66.1931 13.3441C66.527 13.564 66.8039 13.8125 67.0238 14.0894L66.0221 15.14C65.794 14.9201 65.5578 14.7369 65.3135 14.5903C65.0773 14.4437 64.8289 14.3296 64.5682 14.2482C64.3076 14.1667 64.0388 14.126 63.7619 14.126C63.3547 14.126 62.976 14.1993 62.6258 14.3459C62.2837 14.4925 61.9823 14.6961 61.7217 14.9568C61.4692 15.2174 61.2697 15.5228 61.1231 15.873C60.9765 16.2233 60.9032 16.6061 60.9032 17.0214C60.9032 17.4205 60.9765 17.7992 61.1231 18.1576C61.2778 18.516 61.4896 18.8295 61.7584 19.0983C62.0271 19.3671 62.3366 19.5788 62.6868 19.7336C63.0452 19.8802 63.4239 19.9535 63.823 19.9535C64.1244 19.9535 64.4054 19.9087 64.666 19.8191C64.9266 19.7295 65.1587 19.6073 65.3623 19.4526C65.566 19.2897 65.7207 19.1024 65.8266 18.8906C65.9406 18.6789 65.9976 18.4508 65.9976 18.2065V17.9377L66.2175 18.1943H63.6886V16.7771H67.5614C67.5777 16.8667 67.5899 16.9685 67.598 17.0825C67.6062 17.1884 67.6103 17.2943 67.6103 17.4002C67.6184 17.4979 67.6225 17.5834 67.6225 17.6567C67.6225 18.2187 67.5247 18.7318 67.3293 19.196C67.1338 19.6521 66.8569 20.0472 66.4985 20.3811C66.1483 20.715 65.737 20.9756 65.2646 21.163C64.8004 21.3421 64.2954 21.4317 63.7497 21.4317ZM69.2899 21.3096V12.7577H74.8852V14.1993H70.8537V19.868H74.9341V21.3096H69.2899ZM70.0229 17.6445V16.2273H74.2622V17.6445H70.0229ZM78.6358 21.3096V14.2238H76.1925V12.7577H82.7407V14.2238H80.224V21.3096H78.6358ZM87.6331 21.3096V19.9046H89.0381V14.1627H87.6331V12.7577H92.0312V14.1627H90.6263V19.9046H92.0312V21.3096H87.6331ZM95.7682 21.3096V14.2238H93.3248V12.7577H99.873V14.2238H97.3564V21.3096H95.7682ZM108.712 21.4317C108.101 21.4317 107.535 21.3218 107.013 21.1019C106.492 20.882 106.036 20.5766 105.645 20.1856C105.262 19.7865 104.965 19.3182 104.753 18.7807C104.541 18.2431 104.436 17.6567 104.436 17.0214C104.436 16.3862 104.541 15.7997 104.753 15.2622C104.965 14.7246 105.262 14.2604 105.645 13.8695C106.036 13.4704 106.492 13.1609 107.013 12.941C107.535 12.7211 108.101 12.6111 108.712 12.6111C109.33 12.6111 109.901 12.7211 110.422 12.941C110.943 13.1609 111.395 13.4704 111.778 13.8695C112.161 14.2686 112.458 14.7369 112.67 15.2744C112.882 15.8038 112.987 16.3862 112.987 17.0214C112.987 17.6486 112.882 18.2309 112.67 18.7685C112.458 19.306 112.161 19.7743 111.778 20.1734C111.395 20.5725 110.943 20.882 110.422 21.1019C109.901 21.3218 109.33 21.4317 108.712 21.4317ZM108.712 19.9168C109.102 19.9168 109.457 19.8476 109.774 19.7092C110.1 19.5626 110.381 19.3589 110.617 19.0983C110.854 18.8295 111.037 18.52 111.167 18.1698C111.306 17.8196 111.375 17.4368 111.375 17.0214C111.375 16.6061 111.306 16.2233 111.167 15.873C111.037 15.5228 110.854 15.2174 110.617 14.9568C110.381 14.688 110.1 14.4844 109.774 14.3459C109.457 14.1993 109.102 14.126 108.712 14.126C108.329 14.126 107.974 14.1993 107.649 14.3459C107.323 14.4844 107.042 14.6839 106.806 14.9446C106.569 15.2052 106.386 15.5106 106.256 15.8608C106.126 16.211 106.06 16.5979 106.06 17.0214C106.06 17.4368 106.126 17.8237 106.256 18.182C106.386 18.5323 106.569 18.8377 106.806 19.0983C107.042 19.3589 107.323 19.5626 107.649 19.7092C107.974 19.8476 108.329 19.9168 108.712 19.9168ZM114.71 21.3096V12.7577H116.139L121.099 19.4404L120.83 19.4892C120.798 19.2612 120.769 19.0291 120.745 18.7929C120.72 18.5485 120.696 18.2961 120.671 18.0354C120.655 17.7748 120.639 17.502 120.623 17.2169C120.614 16.9318 120.606 16.6346 120.598 16.3251C120.59 16.0074 120.586 15.6735 120.586 15.3233V12.7577H122.162V21.3096H120.708L115.724 14.7247L116.041 14.6391C116.082 15.0952 116.115 15.4862 116.139 15.812C116.172 16.1296 116.196 16.4065 116.212 16.6427C116.229 16.8708 116.241 17.0622 116.249 17.2169C116.265 17.3716 116.273 17.5142 116.273 17.6445C116.282 17.7667 116.286 17.8848 116.286 17.9988V21.3096H114.71Z" fill="white"/>
<path d="M59.1169 38.6401V27.5028H63.9219C64.622 27.5028 65.2425 27.6619 65.7834 27.9801C66.335 28.2983 66.7699 28.7332 67.0881 29.2848C67.4169 29.8363 67.5813 30.4569 67.5813 31.1463C67.5813 31.8676 67.4169 32.5146 67.0881 33.0874C66.7699 33.6496 66.335 34.095 65.7834 34.4239C65.2425 34.7527 64.622 34.9171 63.9219 34.9171H61.8217V38.6401H59.1169ZM61.774 32.5464H63.5401C63.7734 32.5464 63.9856 32.4881 64.1765 32.3714C64.3674 32.2547 64.5212 32.0956 64.6379 31.8941C64.7546 31.6926 64.8129 31.4592 64.8129 31.194C64.8129 30.9183 64.7546 30.6849 64.6379 30.494C64.5212 30.303 64.3674 30.1546 64.1765 30.0485C63.9856 29.9424 63.7734 29.8894 63.5401 29.8894H61.774V32.5464ZM69.6514 38.6401V27.5028H72.3562V36.2536H77.3203V38.6401H69.6514ZM77.9308 38.6401L82.338 27.5028H84.6291L89.0045 38.6401H86.2679L84.1677 32.9919C84.0829 32.7692 83.998 32.5305 83.9132 32.2759C83.8283 32.0214 83.7435 31.7615 83.6586 31.4963C83.5737 31.2206 83.4889 30.9554 83.404 30.7008C83.3298 30.4356 83.2661 30.1917 83.2131 29.9689L83.6904 29.953C83.6268 30.2182 83.5525 30.4781 83.4677 30.7326C83.3934 30.9872 83.3139 31.2418 83.229 31.4963C83.1548 31.7403 83.0699 31.9896 82.9745 32.2441C82.879 32.4881 82.7888 32.7427 82.704 33.0078L80.6038 38.6401H77.9308ZM80.031 36.5081L80.8743 34.4716H85.9974L86.8248 36.5081H80.031ZM91.9998 38.6401V33.0874L92.1112 33.867L87.6085 27.5028H90.6792L94.1159 32.4351L92.7158 32.3873L95.8183 27.5028H98.7936L94.4818 34.042L94.7205 32.9601V38.6401H91.9998ZM108.877 38.7992C108.145 38.7992 107.482 38.7144 106.888 38.5447C106.305 38.3644 105.785 38.1098 105.329 37.781C104.873 37.4415 104.465 37.0438 104.104 36.5877L105.743 34.7262C106.273 35.4368 106.803 35.9141 107.334 36.1581C107.875 36.4021 108.432 36.524 109.004 36.524C109.291 36.524 109.551 36.4869 109.784 36.4127C110.017 36.3384 110.198 36.2324 110.325 36.0945C110.452 35.946 110.516 35.7656 110.516 35.5535C110.516 35.3944 110.473 35.2512 110.389 35.1239C110.314 34.9966 110.208 34.8853 110.07 34.7898C109.932 34.6943 109.768 34.6095 109.577 34.5352C109.386 34.4504 109.185 34.3814 108.973 34.3284C108.76 34.2648 108.543 34.2117 108.32 34.1693C107.705 34.0314 107.169 33.8617 106.713 33.6602C106.257 33.4586 105.875 33.2147 105.568 32.9283C105.271 32.6313 105.048 32.2972 104.899 31.9259C104.751 31.5441 104.677 31.1198 104.677 30.6531C104.677 30.1546 104.788 29.6985 105.011 29.2848C105.244 28.8605 105.552 28.4999 105.934 28.2029C106.326 27.8953 106.777 27.6619 107.286 27.5028C107.795 27.3331 108.326 27.2482 108.877 27.2482C109.609 27.2482 110.235 27.3278 110.755 27.4869C111.285 27.6354 111.736 27.8528 112.107 28.1392C112.489 28.4256 112.812 28.7703 113.077 29.1734L111.407 30.7804C111.184 30.5046 110.94 30.2765 110.675 30.0962C110.42 29.9159 110.145 29.778 109.848 29.6825C109.561 29.5871 109.264 29.5393 108.957 29.5393C108.638 29.5393 108.363 29.5818 108.129 29.6666C107.907 29.7409 107.732 29.8523 107.604 30.0007C107.477 30.1386 107.413 30.3084 107.413 30.5099C107.413 30.6902 107.466 30.844 107.572 30.9713C107.678 31.0986 107.822 31.2152 108.002 31.3213C108.182 31.4168 108.389 31.5016 108.623 31.5759C108.856 31.6395 109.1 31.6926 109.354 31.735C109.938 31.8517 110.463 32.0055 110.93 32.1964C111.407 32.3873 111.815 32.6207 112.155 32.8965C112.505 33.1722 112.77 33.5011 112.95 33.8829C113.141 34.2541 113.237 34.689 113.237 35.1876C113.237 35.9619 113.046 36.6195 112.664 37.1605C112.293 37.6908 111.778 38.0992 111.12 38.3856C110.473 38.6614 109.726 38.7992 108.877 38.7992ZM117.688 38.6401V29.8894H114.379V27.5028H123.782V29.8894H120.393V38.6401H117.688ZM130.289 38.7992C129.441 38.7992 128.666 38.656 127.966 38.3697C127.266 38.0833 126.656 37.6802 126.137 37.1605C125.617 36.6407 125.214 36.0308 124.927 35.3308C124.641 34.6307 124.498 33.8617 124.498 33.0237C124.498 32.1858 124.641 31.4168 124.927 30.7167C125.214 30.0167 125.617 29.4068 126.137 28.887C126.656 28.3673 127.266 27.9642 127.966 27.6778C128.666 27.3914 129.435 27.2482 130.273 27.2482C131.111 27.2482 131.88 27.3914 132.58 27.6778C133.28 27.9642 133.89 28.3673 134.41 28.887C134.93 29.4068 135.328 30.0167 135.603 30.7167C135.89 31.4168 136.033 32.1858 136.033 33.0237C136.033 33.8511 135.89 34.6201 135.603 35.3308C135.328 36.0308 134.93 36.6407 134.41 37.1605C133.89 37.6802 133.28 38.0833 132.58 38.3697C131.88 38.656 131.117 38.7992 130.289 38.7992ZM130.273 36.2536C130.708 36.2536 131.106 36.174 131.467 36.0149C131.838 35.8558 132.156 35.6331 132.421 35.3467C132.697 35.0497 132.909 34.7049 133.058 34.3125C133.206 33.92 133.28 33.4904 133.28 33.0237C133.28 32.557 133.206 32.1274 133.058 31.735C132.909 31.3425 132.697 31.0031 132.421 30.7167C132.156 30.4197 131.838 30.1917 131.467 30.0326C131.106 29.8735 130.708 29.7939 130.273 29.7939C129.838 29.7939 129.435 29.8735 129.064 30.0326C128.703 30.1917 128.385 30.4197 128.109 30.7167C127.834 31.0031 127.622 31.3425 127.473 31.735C127.335 32.1274 127.266 32.557 127.266 33.0237C127.266 33.4904 127.335 33.9253 127.473 34.3284C127.622 34.7209 127.834 35.0603 128.109 35.3467C128.385 35.6331 128.703 35.8558 129.064 36.0149C129.435 36.174 129.838 36.2536 130.273 36.2536ZM138.125 38.6401V27.5028H143.137C143.848 27.5028 144.49 27.6566 145.062 27.9642C145.646 28.2718 146.102 28.6961 146.431 29.237C146.76 29.7674 146.924 30.372 146.924 31.0508C146.924 31.7509 146.76 32.382 146.431 32.9442C146.102 33.4958 145.651 33.9306 145.078 34.2488C144.506 34.5671 143.859 34.7262 143.137 34.7262H140.703V38.6401H138.125ZM144.299 38.6401L141.467 33.6124L144.235 33.2147L147.385 38.6401H144.299ZM140.703 32.6578H142.899C143.174 32.6578 143.413 32.5995 143.615 32.4828C143.827 32.3555 143.986 32.1805 144.092 31.9577C144.209 31.735 144.267 31.4804 144.267 31.194C144.267 30.9076 144.203 30.6584 144.076 30.4462C143.949 30.2235 143.763 30.0538 143.519 29.9371C143.286 29.8204 142.999 29.7621 142.66 29.7621H140.703V32.6578ZM149.297 38.6401V27.5028H157.061V29.8098H151.922V36.3331H157.22V38.6401H149.297ZM150.57 34.0738V31.8782H156.345V34.0738H150.57Z" fill="white"/>
<path d="M34.4267 44.0172C44.5126 44.0172 52.6888 35.8337 52.6888 25.7388C52.6888 15.644 44.5126 7.46045 34.4267 7.46045C24.3408 7.46045 16.1646 15.644 16.1646 25.7388C16.1646 35.8337 24.3408 44.0172 34.4267 44.0172Z" stroke="#00A5BA" stroke-width="0.227072" stroke-miterlimit="10"/>
<path fill-rule="evenodd" clip-rule="evenodd" d="M27.0584 17.2124L36.7811 26.4156L27.0257 35.6525C26.8261 35.4477 26.7158 35.172 26.719 34.8859V18.0135C26.7194 17.864 26.7498 17.716 26.8083 17.5784C26.8669 17.4408 26.9523 17.3164 27.0597 17.2124" fill="#00A5BA"/>
<path fill-rule="evenodd" clip-rule="evenodd" d="M27.0243 35.6523L36.7797 26.415L40.0661 29.5168L28.4037 35.8567C28.1832 35.979 27.9287 36.0253 27.6794 35.9884C27.4301 35.9514 27.1998 35.8333 27.0243 35.6523Z" fill="#007E8F"/>
<path fill-rule="evenodd" clip-rule="evenodd" d="M39.9988 23.3645L36.7804 26.415L27.0577 17.2123C27.2347 17.0444 27.4605 16.9373 27.7024 16.9066C27.9444 16.8759 28.1898 16.9231 28.403 17.0415L39.9988 23.3645Z" fill="#97ECF6"/>
<path fill-rule="evenodd" clip-rule="evenodd" d="M36.7811 26.4152L39.9994 23.3647L43.8653 25.4779C44.043 25.5745 44.1914 25.7173 44.2947 25.8913C44.3981 26.0653 44.4527 26.2639 44.4527 26.4663C44.4527 26.6687 44.3981 26.8674 44.2947 27.0413C44.1914 27.2153 44.043 27.3581 43.8653 27.4548L40.0675 29.517L36.7811 26.4152Z" fill="#3CD7EB"/>
</svg>
