<svg width="365" height="374" viewBox="0 0 365 374" fill="none" xmlns="http://www.w3.org/2000/svg">
<path d="M323.197 253.396C323.212 255.956 321.525 258.515 318.151 260.464L178.092 341.306C171.388 345.189 160.554 345.189 153.879 341.306L59.4977 286.452C56.1675 284.532 54.5094 282.017 54.5094 279.487L54.4659 268.827C54.4511 266.282 56.1388 263.723 59.5125 261.759L199.571 180.903C206.275 177.035 217.11 177.035 223.785 180.903L318.18 235.772C321.496 237.692 323.154 240.222 323.154 242.752L323.197 253.397V253.396Z" fill="#92B2F9"/>
<path d="M323.202 253.397C323.214 255.956 321.531 258.514 318.155 260.461L178.096 341.311C171.39 345.182 160.557 345.182 153.885 341.311L59.4947 286.458C56.1758 284.534 54.5168 282.011 54.5168 279.487L54.4707 268.822C54.4707 271.346 56.1297 273.869 59.4486 275.793L153.839 330.646C160.512 334.517 171.343 334.517 178.051 330.646L318.11 249.796C321.475 247.848 323.157 245.313 323.157 242.755L323.203 253.397H323.202Z" fill="#008392"/>
<path d="M59.5145 261.764C52.8081 265.635 52.7794 271.916 59.4424 275.788L153.842 330.646C160.511 334.522 171.346 334.522 178.052 330.65L318.106 249.79C324.812 245.919 324.848 239.642 318.178 235.766L223.779 180.908C217.116 177.036 206.274 177.032 199.568 180.903L59.5145 261.764Z" fill="#6CCBD5"/>
<path d="M203.339 178.78L59.2229 261.977C56.1986 263.722 53.1883 264.085 50.5559 263.257L42.8918 260.858C39.1106 259.665 36.1585 256.044 35.1843 250.591L14.8973 138.759C13.2252 129.555 17.8346 118.619 25.2224 114.371L169.324 31.1586C172.349 29.4136 175.374 29.0642 177.992 29.8933L185.54 32.264C189.364 33.4129 192.375 37.0629 193.364 42.5457L213.651 154.377C215.323 163.597 210.698 174.533 203.34 178.779L203.339 178.78Z" fill="#B0C4FF"/>
<path d="M185.646 32.2946C183.029 31.4699 180.016 31.8218 176.992 33.5703L32.8795 116.77C25.5021 121.036 20.884 131.954 22.5552 141.169L42.8413 253C43.8199 258.443 46.7885 262.071 50.5602 263.258L42.8996 260.854C39.1166 259.666 36.1592 256.037 35.1807 250.595L14.8946 138.764C13.2234 129.55 17.8415 118.621 25.2188 114.366L169.332 31.1657C172.345 29.4172 175.368 29.0661 177.985 29.8899L185.646 32.2946Z" fill="#008392"/>
<path d="M176.989 33.571C184.361 29.3153 191.697 33.3355 193.367 42.5456L213.655 154.383C215.327 163.602 210.702 174.528 203.331 178.784L59.224 261.984C51.8458 266.244 44.5093 262.224 42.8373 253.005L22.5494 141.168C20.8782 131.957 25.5042 121.031 32.8824 116.771L176.989 33.571Z" fill="#AAE9F0"/>
<path d="M198.292 170.067L58.8459 250.605C56.1102 252.184 52.6357 250.575 52.0717 247.466L32.4565 139.375C31.4667 133.905 34.5709 127.411 37.9098 125.482L175.756 45.9122C179.264 43.8821 183.71 45.946 184.448 49.9228L203.745 156.173C204.735 161.66 201.631 168.137 198.292 170.067Z" fill="#EBFDFF"/>
<path d="M153.443 220.168V217.768C153.443 217.87 153.473 217.958 153.487 218.06C153.341 217.289 153.763 216.474 154.796 215.878L162.518 211.428C164.306 210.381 167.215 210.381 168.989 211.413L176.668 215.877C177.555 216.387 177.991 217.055 177.991 217.739V217.754L178.005 220.138C178.005 220.822 177.555 221.505 176.653 222.029L168.931 226.479C167.128 227.526 164.234 227.511 162.445 226.479L154.781 222.029C153.894 221.505 153.457 220.836 153.443 220.167V220.168Z" fill="#DDE9FE"/>
<path d="M97.3813 267.795L89.6737 272.245C87.8704 273.278 84.9617 273.278 83.1871 272.245L75.5083 267.795C74.621 267.271 74.1847 266.603 74.1847 265.933L74.1699 263.534C74.1699 263.621 74.1995 263.723 74.2281 263.81C74.0821 263.04 74.5045 262.24 75.5369 261.644L83.2593 257.18C85.0478 256.147 87.9417 256.147 89.7302 257.18L97.3943 261.644C98.2816 262.153 98.7326 262.836 98.7326 263.505V265.905C98.7326 266.588 98.2816 267.272 97.3795 267.795H97.3813Z" fill="#DDE9FE"/>
<path d="M236.829 228.981V231.38C236.829 232.064 236.378 232.747 235.476 233.256L227.769 237.721C225.965 238.753 223.057 238.753 221.283 237.721L213.604 233.256C212.717 232.747 212.28 232.079 212.28 231.395L212.266 228.995C212.266 229.097 212.295 229.185 212.309 229.272C212.178 228.501 212.6 227.701 213.618 227.105L221.339 222.655C223.143 221.608 226.037 221.622 227.826 222.655L235.489 227.119C236.376 227.628 236.827 228.311 236.827 228.981H236.829Z" fill="#DDE9FE"/>
<path d="M217.009 240.411L217.023 242.81C217.023 243.493 216.572 244.177 215.671 244.7L168.32 272.041C166.517 273.073 163.623 273.073 161.835 272.041L154.17 267.576C153.283 267.067 152.833 266.384 152.833 265.715V263.315C152.833 263.417 152.863 263.505 152.876 263.607C152.73 262.836 153.153 262.021 154.17 261.425L201.521 234.1C203.325 233.053 206.233 233.053 208.007 234.1L215.686 238.55C216.573 239.074 217.009 239.729 217.009 240.412L217.009 240.411Z" fill="#DDE9FE"/>
<path d="M256.651 219.935C256.651 220.619 256.2 221.302 255.298 221.825L247.576 226.276C245.788 227.308 242.879 227.308 241.09 226.276L233.426 221.825C232.539 221.302 232.103 220.633 232.103 219.949L232.088 217.564C232.088 217.651 232.117 217.754 232.146 217.855C231.986 217.085 232.408 216.27 233.441 215.659L241.163 211.209C242.952 210.176 245.861 210.176 247.634 211.209L255.313 215.673C256.2 216.182 256.637 216.865 256.637 217.535L256.651 219.934L256.651 219.935Z" fill="#DDE9FE"/>
<path d="M113.51 263.432C113.51 263.518 113.539 263.606 113.553 263.708C113.407 262.937 113.83 262.123 114.862 261.541L122.57 257.077C124.373 256.045 127.267 256.045 129.055 257.077L136.719 261.541C137.607 262.051 138.057 262.734 138.057 263.403V265.802C138.057 266.485 137.607 267.169 136.705 267.692L128.997 272.143C127.194 273.175 124.3 273.175 122.511 272.143L114.847 267.679C113.96 267.169 113.51 266.501 113.51 265.832V263.432V263.432Z" fill="#DDE9FE"/>
<path d="M93.9932 252.089C93.9932 252.191 94.0227 252.292 94.0514 252.38C93.8915 251.609 94.3138 250.795 95.3463 250.199L103.069 245.748C104.857 244.701 107.766 244.701 109.54 245.748L117.218 250.199C118.106 250.722 118.542 251.376 118.542 252.06L118.557 254.46C118.557 255.144 118.106 255.827 117.205 256.35L109.482 260.8C107.694 261.847 104.785 261.847 102.996 260.8L95.3324 256.35C94.4451 255.827 94.0088 255.157 94.0088 254.488L93.994 252.089H93.9932Z" fill="#DDE9FE"/>
<path d="M157.559 274.731L157.573 277.13C157.573 277.813 157.122 278.497 156.22 279.021L148.499 283.471C146.709 284.518 143.802 284.518 142.012 283.471L134.348 279.021C133.461 278.511 133.025 277.828 133.025 277.159L133.01 274.76C133.01 274.847 133.039 274.934 133.053 275.021C132.922 274.25 133.344 273.451 134.362 272.869L142.07 268.418C143.873 267.371 146.782 267.371 148.555 268.418L156.234 272.869C157.121 273.392 157.558 274.046 157.558 274.73L157.559 274.731Z" fill="#DDE9FE"/>
<path d="M116.898 279.123L109.177 283.587C107.388 284.62 104.479 284.62 102.691 283.587L95.0268 279.123C94.1395 278.614 93.7033 277.945 93.6885 277.261V274.877C93.6885 274.964 93.718 275.066 93.7319 275.153C93.5868 274.382 94.0083 273.568 95.0407 272.972L102.763 268.521C104.566 267.489 107.445 267.489 109.234 268.521L116.897 272.972C117.799 273.495 118.236 274.179 118.236 274.848L118.25 277.247C118.25 277.917 117.799 278.6 116.897 279.124L116.898 279.123Z" fill="#DDE9FE"/>
<path d="M113.814 243.043V240.644C113.814 240.746 113.844 240.833 113.858 240.935C113.712 240.164 114.134 239.35 115.167 238.754L122.889 234.303C124.678 233.271 127.571 233.256 129.36 234.303L137.039 238.754C137.926 239.277 138.362 239.931 138.362 240.615L138.376 243.015C138.376 243.699 137.926 244.382 137.024 244.905L129.303 249.369C127.499 250.401 124.605 250.402 122.816 249.354L115.152 244.904C114.265 244.395 113.814 243.712 113.814 243.042V243.043Z" fill="#DDE9FE"/>
<path d="M142.333 260.697L134.654 256.247C133.766 255.724 133.33 255.055 133.33 254.386L133.315 251.986C133.315 252.073 133.345 252.161 133.359 252.248C133.229 251.477 133.65 250.691 134.668 250.095L142.39 245.645C144.193 244.597 147.087 244.597 148.876 245.63L156.54 250.094C157.427 250.603 157.877 251.287 157.877 251.956V254.355C157.877 255.038 157.426 255.722 156.524 256.245L148.803 260.696C147.014 261.743 144.106 261.728 142.332 260.696L142.333 260.697Z" fill="#DDE9FE"/>
<path d="M133.621 229.214C133.621 229.301 133.651 229.388 133.679 229.49C133.534 228.719 133.956 227.905 134.988 227.324L142.696 222.859C144.499 221.827 147.393 221.827 149.166 222.859L156.845 227.324C157.733 227.833 158.183 228.516 158.183 229.185V231.585C158.183 232.268 157.732 232.952 156.831 233.461L149.108 237.925C147.32 238.957 144.411 238.957 142.637 237.925L134.958 233.461C134.071 232.952 133.635 232.283 133.635 231.614L133.62 229.215L133.621 229.214Z" fill="#DDE9FE"/>
<path d="M162.14 249.267L154.476 244.803C153.589 244.294 153.139 243.611 153.139 242.941V240.542C153.139 240.644 153.168 240.745 153.182 240.833C153.036 240.062 153.458 239.248 154.491 238.652L162.213 234.201C164.002 233.154 166.896 233.154 168.684 234.201L176.348 238.652C177.249 239.176 177.686 239.844 177.686 240.528L177.701 242.913C177.701 243.597 177.249 244.28 176.348 244.803L168.626 249.267C166.837 250.3 163.929 250.3 162.14 249.267Z" fill="#DDE9FE"/>
<path d="M201.768 226.376L194.104 221.926C193.217 221.403 192.781 220.734 192.767 220.064V217.665C192.767 217.767 192.796 217.854 192.81 217.956C192.664 217.17 193.086 216.371 194.119 215.775L201.841 211.31C203.644 210.278 206.524 210.278 208.312 211.31L215.976 215.775C216.877 216.284 217.314 216.952 217.314 217.636L217.328 220.036C217.328 220.72 216.877 221.403 215.976 221.926L208.254 226.376C206.465 227.409 203.557 227.409 201.768 226.376Z" fill="#DDE9FE"/>
<path d="M181.961 237.823L174.282 233.358C173.409 232.849 172.958 232.181 172.958 231.497L172.943 229.097C172.943 229.199 172.973 229.287 173.002 229.374C172.856 228.603 173.278 227.803 174.296 227.221L182.019 222.757C183.822 221.724 186.716 221.724 188.504 222.757L196.169 227.207C197.056 227.73 197.506 228.414 197.506 229.083V231.468C197.506 232.166 197.055 232.85 196.153 233.373L188.431 237.823C186.643 238.856 183.734 238.856 181.961 237.823V237.823Z" fill="#DDE9FE"/>
<path d="M193.086 197.278L193.071 194.893C193.071 194.98 193.1 195.068 193.115 195.155C192.984 194.384 193.406 193.585 194.424 192.988L202.146 188.538C203.934 187.506 206.843 187.506 208.617 188.538L216.296 193.002C217.183 193.512 217.619 194.195 217.619 194.864L217.633 197.263C217.633 197.946 217.183 198.63 216.281 199.139L208.559 203.604C206.77 204.636 203.862 204.636 202.073 203.604L194.409 199.139C193.521 198.63 193.085 197.962 193.085 197.278H193.086Z" fill="#DDE9FE"/>
<path d="M213.939 204.331L221.661 199.88C223.449 198.848 226.344 198.833 228.132 199.88L235.796 204.331C236.684 204.854 237.134 205.508 237.134 206.192V208.592C237.134 209.276 236.698 209.959 235.796 210.482L228.074 214.932C226.271 215.98 223.377 215.98 221.588 214.932L213.924 210.482C213.037 209.973 212.586 209.29 212.586 208.62V206.221C212.586 206.323 212.615 206.41 212.629 206.497C212.484 205.727 212.906 204.927 213.938 204.331H213.939Z" fill="#DDE9FE"/>
<path d="M137.751 286.176V288.576C137.751 289.26 137.301 289.943 136.399 290.466L128.691 294.916C126.888 295.963 123.979 295.963 122.206 294.916L114.527 290.466C113.64 289.943 113.203 289.274 113.203 288.604L113.188 286.205C113.188 286.292 113.218 286.38 113.232 286.467C113.101 285.696 113.523 284.896 114.541 284.314L122.263 279.85C124.066 278.817 126.96 278.817 128.749 279.864L136.413 284.315C137.3 284.838 137.75 285.492 137.75 286.176H137.751Z" fill="#DDE9FE"/>
<path d="M173.249 206.323C173.249 206.425 173.278 206.512 173.307 206.614C173.162 205.828 173.584 205.029 174.616 204.433L182.337 199.982C184.127 198.95 187.021 198.95 188.809 199.982L196.473 204.433C197.361 204.956 197.811 205.625 197.811 206.309V208.694C197.811 209.377 197.36 210.061 196.459 210.584L188.751 215.048C186.948 216.081 184.039 216.081 182.265 215.048L174.586 210.584C173.699 210.075 173.263 209.406 173.263 208.722L173.248 206.323H173.249Z" fill="#DDE9FE"/>
<path d="M194.409 199.142L202.078 203.599C203.862 204.636 206.768 204.636 208.563 203.599L216.283 199.142C217.182 198.622 217.632 197.939 217.63 197.256L217.623 194.86C217.625 195.543 217.175 196.227 216.276 196.746L208.556 201.204C206.761 202.24 203.855 202.24 202.071 201.204L194.402 196.746C193.517 196.233 193.075 195.56 193.074 194.886L193.081 197.282C193.083 197.956 193.525 198.628 194.41 199.142H194.409Z" fill="white"/>
<path d="M174.591 210.584L182.26 215.041C184.043 216.078 186.949 216.078 188.745 215.041L196.464 210.585C197.367 210.064 197.816 209.381 197.814 208.699L197.807 206.303C197.809 206.985 197.359 207.668 196.458 208.189L188.738 212.645C186.942 213.682 184.037 213.682 182.253 212.645L174.584 208.188C173.699 207.674 173.257 207.001 173.255 206.328L173.262 208.724C173.264 209.397 173.706 210.069 174.591 210.584Z" fill="white"/>
<path d="M154.779 222.023L162.448 226.48C164.232 227.517 167.131 227.52 168.927 226.484L176.647 222.026C177.55 221.505 178.001 220.819 178 220.135L177.993 217.739C177.994 218.423 177.543 219.109 176.64 219.63L168.92 224.088C167.124 225.124 164.225 225.121 162.441 224.084L154.772 219.627C153.886 219.111 153.442 218.439 153.44 217.765L153.447 220.161C153.449 220.835 153.892 221.507 154.779 222.023Z" fill="white"/>
<path d="M134.961 233.465L142.63 237.922C144.413 238.959 147.319 238.959 149.115 237.922L156.835 233.465C157.736 232.945 158.186 232.262 158.184 231.58L158.177 229.184C158.179 229.866 157.73 230.549 156.828 231.069L149.108 235.526C147.312 236.563 144.407 236.563 142.623 235.526L134.954 231.069C134.069 230.554 133.627 229.882 133.625 229.209L133.632 231.605C133.634 232.278 134.076 232.95 134.961 233.465Z" fill="white"/>
<path d="M115.149 244.903L122.818 249.36C124.601 250.397 127.501 250.4 129.297 249.363L137.017 244.906C137.92 244.385 138.372 243.699 138.37 243.015L138.363 240.619C138.365 241.303 137.914 241.989 137.01 242.51L129.29 246.968C127.495 248.004 124.595 248 122.811 246.964L115.142 242.507C114.256 241.991 113.812 241.319 113.811 240.645L113.817 243.041C113.819 243.715 114.262 244.387 115.149 244.903Z" fill="white"/>
<path d="M95.3308 256.344L103 260.802C104.784 261.838 107.69 261.838 109.485 260.802L117.198 256.349C118.102 255.827 118.553 255.141 118.551 254.457L118.544 252.062C118.546 252.745 118.095 253.431 117.191 253.953L109.478 258.406C107.683 259.442 104.777 259.442 102.993 258.406L95.3239 253.948C94.4392 253.435 93.9969 252.762 93.9951 252.088L94.0021 254.484C94.0038 255.158 94.4462 255.83 95.3308 256.344Z" fill="white"/>
<path d="M98.736 265.902L98.729 263.506C98.7316 264.188 98.2815 264.871 97.3794 265.392L89.6597 269.848C87.8642 270.885 84.959 270.885 83.1749 269.848L75.5055 265.391C74.6208 264.876 74.1785 264.205 74.1768 263.531L74.1837 265.927C74.1854 266.601 74.6278 267.272 75.5125 267.787L83.1818 272.244C84.9651 273.281 87.8712 273.281 89.6666 272.244L97.3864 267.788C98.2884 267.267 98.7377 266.584 98.736 265.902Z" fill="white"/>
<path d="M212.583 206.224L212.59 208.62C212.592 209.294 213.034 209.966 213.919 210.48L221.588 214.937C223.371 215.974 226.277 215.974 228.073 214.937L235.793 210.481C236.692 209.961 237.142 209.278 237.14 208.594L237.133 206.198C237.134 206.881 236.684 207.565 235.786 208.085L228.066 212.541C226.27 213.578 223.365 213.578 221.581 212.541L213.912 208.084C213.027 207.57 212.585 206.898 212.583 206.224Z" fill="white"/>
<path d="M208.255 226.379L215.974 221.922C216.876 221.402 217.326 220.719 217.324 220.037L217.317 217.641C217.319 218.323 216.869 219.006 215.967 219.526L208.248 223.983C206.452 225.02 203.546 225.02 201.763 223.983L194.093 219.526C193.209 219.012 192.766 218.339 192.765 217.666L192.772 220.062C192.773 220.735 193.216 221.407 194.1 221.922L201.77 226.379C203.554 227.416 206.459 227.416 208.255 226.379Z" fill="white"/>
<path d="M188.436 237.821L196.155 233.364C197.059 232.843 197.51 232.157 197.508 231.473L197.501 229.077C197.503 229.761 197.052 230.447 196.148 230.968L188.429 235.426C186.633 236.462 183.734 236.459 181.95 235.422L174.281 230.965C173.394 230.449 172.95 229.777 172.949 229.103L172.956 231.499C172.958 232.173 173.401 232.845 174.288 233.361L181.957 237.818C183.74 238.855 186.64 238.858 188.436 237.821Z" fill="white"/>
<path d="M168.624 249.259L176.343 244.801C177.245 244.281 177.695 243.598 177.693 242.915L177.686 240.52C177.688 241.202 177.239 241.885 176.336 242.405L168.617 246.863C166.821 247.899 163.916 247.899 162.132 246.863L154.463 242.405C153.578 241.891 153.136 241.219 153.134 240.546L153.141 242.942C153.143 243.615 153.585 244.287 154.47 244.801L162.139 249.259C163.923 250.295 166.828 250.295 168.624 249.259Z" fill="white"/>
<path d="M148.807 260.701L156.526 256.245C157.43 255.724 157.881 255.038 157.88 254.354L157.873 251.958C157.874 252.642 157.423 253.328 156.519 253.849L148.8 258.306C147.004 259.342 144.105 259.338 142.321 258.302L134.652 253.845C133.765 253.329 133.322 252.657 133.32 251.983L133.327 254.379C133.329 255.053 133.773 255.726 134.659 256.241L142.328 260.698C144.111 261.735 147.011 261.738 148.807 260.701Z" fill="white"/>
<path d="M136.701 265.289L128.988 269.742C127.192 270.779 124.287 270.779 122.503 269.742L114.834 265.285C113.949 264.772 113.507 264.099 113.505 263.425L113.512 265.821C113.514 266.495 113.956 267.167 114.841 267.681L122.51 272.138C124.293 273.175 127.199 273.175 128.995 272.138L136.708 267.685C137.612 267.164 138.063 266.478 138.062 265.794L138.055 263.398C138.057 264.082 137.606 264.768 136.701 265.289H136.701Z" fill="white"/>
<path d="M118.246 277.239L118.239 274.843C118.241 275.525 117.791 276.208 116.889 276.729L109.169 281.185C107.374 282.222 104.469 282.222 102.685 281.185L95.0153 276.728C94.1306 276.214 93.6883 275.541 93.6865 274.868L93.6935 277.264C93.6952 277.937 94.1376 278.609 95.0214 279.124L102.691 283.581C104.475 284.618 107.38 284.618 109.176 283.581L116.895 279.125C117.796 278.604 118.247 277.921 118.245 277.239H118.246Z" fill="white"/>
<path d="M256.641 217.534C256.643 218.217 256.194 218.901 255.294 219.42L247.574 223.877C245.779 224.914 242.873 224.914 241.09 223.877L233.42 219.42C232.535 218.905 232.091 218.23 232.089 217.555L232.096 219.951C232.098 220.626 232.541 221.301 233.427 221.816L241.097 226.273C242.88 227.31 245.786 227.31 247.581 226.273L255.301 221.816C256.201 221.297 256.651 220.613 256.648 219.93L256.641 217.534Z" fill="white"/>
<path d="M235.476 230.863L227.756 235.32C225.961 236.357 223.054 236.357 221.271 235.32L213.602 230.862C212.715 230.348 212.272 229.673 212.271 228.998L212.277 231.393C212.279 232.069 212.723 232.744 213.609 233.258L221.278 237.716C223.061 238.753 225.968 238.753 227.763 237.716L235.483 233.259C236.385 232.739 236.834 232.056 236.832 231.373L236.825 228.978C236.828 229.66 236.378 230.343 235.476 230.863Z" fill="white"/>
<path d="M215.658 242.305L168.308 269.643C166.513 270.679 163.614 270.675 161.829 269.639L154.16 265.182C153.273 264.666 152.827 263.991 152.825 263.315L152.832 265.711C152.834 266.387 153.279 267.062 154.167 267.578L161.836 272.035C163.62 273.072 166.52 273.075 168.315 272.039L215.665 244.701C216.568 244.18 217.019 243.494 217.018 242.81L217.011 240.414C217.013 241.098 216.562 241.784 215.658 242.305Z" fill="white"/>
<path d="M156.21 276.627L148.496 281.08C146.701 282.117 143.796 282.117 142.011 281.08L134.342 276.623C133.457 276.108 133.012 275.433 133.011 274.758L133.018 277.154C133.019 277.829 133.463 278.504 134.349 279.019L142.018 283.476C143.803 284.513 146.708 284.513 148.503 283.476L156.216 279.023C157.12 278.502 157.571 277.816 157.569 277.132L157.562 274.736C157.564 275.42 157.113 276.106 156.209 276.627H156.21Z" fill="white"/>
<path d="M136.399 288.066L128.679 292.522C126.883 293.559 123.978 293.559 122.194 292.522L114.525 288.065C113.639 287.55 113.195 286.875 113.193 286.2L113.2 288.596C113.202 289.271 113.646 289.946 114.532 290.461L122.201 294.918C123.984 295.955 126.89 295.955 128.686 294.918L136.406 290.461C137.308 289.941 137.757 289.258 137.755 288.576L137.748 286.18C137.75 286.862 137.3 287.545 136.399 288.066Z" fill="white"/>
<path d="M194.43 192.994C192.635 194.031 192.619 195.71 194.402 196.747L202.072 201.204C203.856 202.241 206.761 202.241 208.557 201.204L216.276 196.748C218.066 195.715 218.075 194.032 216.291 192.995L208.622 188.538C206.838 187.501 203.938 187.505 202.149 188.538L194.429 192.994H194.43Z" fill="#D0FAFF"/>
<path d="M174.613 204.436C172.817 205.473 172.802 207.152 174.585 208.189L182.254 212.646C184.038 213.683 186.944 213.683 188.739 212.646L196.459 208.19C198.254 207.153 198.258 205.474 196.474 204.437L188.804 199.98C187.02 198.943 184.127 198.943 182.332 199.98L174.612 204.436H174.613Z" fill="#D0FAFF"/>
<path d="M154.794 215.878C152.999 216.915 152.989 218.591 154.773 219.627L162.443 224.085C164.227 225.121 167.126 225.125 168.921 224.088L176.641 219.631C178.437 218.594 178.446 216.912 176.662 215.875L168.993 211.417C167.209 210.381 164.309 210.384 162.514 211.421L154.794 215.878Z" fill="#D0FAFF"/>
<path d="M134.982 227.316C133.186 228.353 133.171 230.032 134.955 231.069L142.624 235.526C144.408 236.563 147.314 236.563 149.109 235.526L156.829 231.069C158.624 230.033 158.628 228.354 156.844 227.317L149.174 222.86C147.39 221.823 144.497 221.823 142.702 222.86L134.982 227.316Z" fill="#D0FAFF"/>
<path d="M115.163 238.758C113.368 239.795 113.358 241.471 115.142 242.507L122.812 246.965C124.596 248.001 127.495 248.005 129.291 246.968L137.01 242.512C138.806 241.475 138.815 239.792 137.031 238.756L129.362 234.298C127.578 233.262 124.679 233.265 122.883 234.302L115.163 238.758Z" fill="#D0FAFF"/>
<path d="M95.3521 250.196C93.5566 251.233 93.541 252.912 95.3243 253.949L102.994 258.406C104.778 259.443 107.683 259.443 109.478 258.406L117.192 253.953C118.988 252.916 118.997 251.234 117.213 250.197L109.544 245.74C107.759 244.703 104.86 244.706 103.065 245.743L95.3512 250.196H95.3521Z" fill="#D0FAFF"/>
<path d="M75.5347 261.639C73.7392 262.676 73.7236 264.355 75.5069 265.392L83.1762 269.849C84.9604 270.886 87.8656 270.886 89.661 269.849L97.3808 265.393C99.1762 264.356 99.1797 262.677 97.3955 261.64L89.7262 257.183C87.9421 256.146 85.049 256.146 83.2536 257.183L75.5338 261.639H75.5347Z" fill="#D0FAFF"/>
<path d="M213.939 204.332C212.144 205.369 212.128 207.048 213.911 208.085L221.581 212.542C223.365 213.579 226.27 213.579 228.065 212.542L235.785 208.086C237.574 207.052 237.584 205.37 235.8 204.333L228.131 199.876C226.346 198.839 223.447 198.843 221.658 199.876L213.938 204.332H213.939Z" fill="#D0FAFF"/>
<path d="M194.121 215.774C192.325 216.811 192.31 218.49 194.093 219.527L201.762 223.984C203.546 225.021 206.452 225.021 208.247 223.984L215.967 219.527C217.762 218.491 217.766 216.812 215.981 215.775L208.312 211.318C206.528 210.281 203.635 210.281 201.839 211.318L194.12 215.774H194.121Z" fill="#D0FAFF"/>
<path d="M174.303 227.216C172.508 228.253 172.498 229.928 174.282 230.965L181.951 235.423C183.736 236.459 186.635 236.463 188.43 235.426L196.15 230.969C197.945 229.932 197.955 228.249 196.171 227.213L188.501 222.755C186.717 221.719 183.818 221.722 182.023 222.759L174.303 227.216Z" fill="#D0FAFF"/>
<path d="M154.492 238.654C152.696 239.691 152.681 241.37 154.465 242.407L162.134 246.864C163.918 247.901 166.823 247.901 168.619 246.864L176.339 242.407C178.134 241.371 178.137 239.692 176.353 238.655L168.684 234.198C166.9 233.161 164.007 233.161 162.211 234.198L154.492 238.654Z" fill="#D0FAFF"/>
<path d="M134.673 250.096C132.878 251.133 132.868 252.808 134.652 253.845L142.322 258.303C144.106 259.339 147.005 259.343 148.8 258.306L156.52 253.85C158.316 252.813 158.325 251.13 156.541 250.094L148.872 245.636C147.087 244.599 144.188 244.603 142.393 245.64L134.673 250.096Z" fill="#D0FAFF"/>
<path d="M114.861 261.534C113.065 262.571 113.05 264.25 114.833 265.287L122.502 269.744C124.287 270.781 127.192 270.781 128.987 269.744L136.701 265.291C138.496 264.254 138.506 262.572 136.722 261.535L129.052 257.078C127.268 256.041 124.369 256.044 122.574 257.081L114.86 261.534H114.861Z" fill="#D0FAFF"/>
<path d="M95.0435 272.975C93.248 274.012 93.2324 275.691 95.0157 276.728L102.685 281.185C104.469 282.222 107.374 282.222 109.17 281.185L116.89 276.729C118.685 275.692 118.688 274.013 116.904 272.976L109.235 268.519C107.451 267.482 104.558 267.482 102.762 268.519L95.0426 272.975H95.0435Z" fill="#D0FAFF"/>
<path d="M233.442 215.665C231.646 216.701 231.637 218.385 233.421 219.421L241.09 223.878C242.874 224.915 245.78 224.915 247.575 223.878L255.295 219.421C257.084 218.388 257.094 216.706 255.309 215.669L247.64 211.212C245.857 210.175 242.951 210.175 241.161 211.208L233.442 215.665Z" fill="#D0FAFF"/>
<path d="M213.624 227.106C211.829 228.143 211.819 229.826 213.603 230.862L221.273 235.32C223.057 236.356 225.962 236.356 227.758 235.32L235.477 230.863C237.273 229.826 237.276 228.147 235.492 227.111L227.823 222.653C226.039 221.617 223.139 221.613 221.344 222.65L213.624 227.106Z" fill="#D0FAFF"/>
<path d="M154.176 261.43C152.38 262.466 152.377 264.145 154.161 265.182L161.83 269.639C163.615 270.676 166.514 270.68 168.309 269.643L215.659 242.305C217.455 241.269 217.464 239.586 215.68 238.549L208.011 234.092C206.227 233.055 203.321 233.055 201.526 234.092L154.176 261.43Z" fill="#D0FAFF"/>
<path d="M134.365 272.868C132.569 273.905 132.56 275.588 134.344 276.624L142.013 281.082C143.797 282.118 146.702 282.118 148.498 281.082L156.211 276.629C158.007 275.592 158.016 273.909 156.232 272.873L148.563 268.415C146.78 267.379 143.874 267.379 142.078 268.415L134.365 272.868Z" fill="#D0FAFF"/>
<path d="M114.546 284.31C112.751 285.347 112.741 287.031 114.525 288.066L122.195 292.524C123.979 293.561 126.884 293.561 128.679 292.524L136.399 288.067C138.195 287.031 138.198 285.352 136.414 284.315L128.745 279.857C126.961 278.821 124.061 278.817 122.266 279.854L114.546 284.31Z" fill="#D0FAFF"/>
<path d="M179.315 274.755C175.027 277.231 175.004 281.251 179.265 283.727L197.584 294.373C201.845 296.849 208.785 296.849 213.073 294.373L252.405 271.665C256.693 269.189 256.7 265.177 252.44 262.701L234.122 252.056C229.862 249.58 222.936 249.571 218.647 252.047L179.316 274.755H179.315Z" fill="#1EABBA"/>
<path d="M252.993 267.387C252.945 267.317 252.937 267.305 252.912 267.269C252.83 267.173 252.745 267.079 252.656 266.99C252.468 266.794 252.271 266.608 252.067 266.429C251.997 266.368 251.356 265.84 251.655 266.075C251.449 265.913 251.237 265.761 251.027 265.605C250.665 265.335 250.402 265.009 250.187 264.664C250.006 264.622 249.823 264.561 249.638 264.477C248.457 263.94 247.49 263.143 246.511 262.355C245.087 262.199 243.918 261.67 242.76 260.709C242.469 260.468 242.272 260.168 242.15 259.839C240.786 259.327 239.375 258.887 238.101 258.184C237.357 257.774 236.967 257.182 236.845 256.55L236.835 256.544C236.613 256.491 236.389 256.416 236.161 256.296C231.404 253.784 225.712 251.747 220.616 254.237C216.883 256.062 213.276 258.538 209.874 260.91C209.33 261.289 208.796 261.41 208.304 261.358C208.08 261.494 207.831 261.61 207.532 261.683C207.102 261.785 206.669 261.951 206.235 262.115L200.619 265.358C198.282 267.037 196.005 268.883 193.928 270.076C192.365 270.974 179.2 276.999 179.261 278.23C179.295 278.924 179.094 279.468 178.763 279.878C179.035 280.444 179.647 281.036 180.527 281.548L198.847 292.195C200.505 293.159 202.864 293.71 205.316 293.71C207.769 293.71 210.139 293.157 211.812 292.191L251.145 269.483C252.225 268.86 252.89 268.12 253.043 267.449C253.028 267.427 253.008 267.408 252.992 267.385L252.993 267.387Z" fill="#D0FAFF"/>
<path d="M253.118 267.17C253.118 267.404 253.034 267.673 252.883 267.925C252.581 267.404 251.994 266.868 251.172 266.398L232.848 255.76C231.186 254.787 228.838 254.233 226.371 254.233C223.904 254.233 221.572 254.787 219.91 255.743L180.578 278.463C179.74 278.933 179.135 279.487 178.833 280.024C178.683 279.772 178.599 279.503 178.599 279.268C178.599 278.513 179.336 277.641 180.578 276.936L219.91 254.233C221.572 253.26 223.938 252.706 226.371 252.706C228.804 252.706 231.186 253.26 232.848 254.233L251.172 264.872C252.396 265.577 253.118 266.449 253.118 267.17V267.17Z" fill="#008392"/>
<path d="M187.546 153.243C187.561 159.409 183.227 166.913 177.861 170.01L69.4462 232.615C66.7418 234.172 64.298 234.317 62.5382 233.285L62.4513 233.226H62.4365L58.4224 230.9C56.6773 229.882 55.6015 227.73 55.6015 224.661L55.3399 80.6906C55.3251 74.5248 59.659 67.0206 65.0254 63.9233L173.454 1.33199C176.145 -0.223601 178.588 -0.369601 180.348 0.648921L184.464 3.03358C184.391 2.99013 184.304 2.94668 184.216 2.91713C186.106 3.86265 187.284 6.07263 187.299 9.27246L187.546 153.243Z" fill="#DDE9FE"/>
<path d="M184.462 3.04025C182.693 2.01565 180.246 2.15991 177.553 3.71724L69.1321 66.3172C63.764 69.4075 59.437 76.9187 59.4535 83.0741L59.6995 227.057C59.7081 230.113 60.7918 232.273 62.536 233.289L58.4254 230.895C56.6813 229.879 55.6063 227.729 55.5976 224.663L55.3438 80.6886C55.3264 74.5245 59.6621 67.022 65.0224 63.923L173.451 1.33258C176.144 -0.225623 178.591 -0.369016 180.353 0.655589L184.463 3.04025H184.462Z" fill="#7FDAE4"/>
<path d="M177.55 3.7188C182.913 0.622392 187.274 3.10786 187.291 9.27026L187.539 153.246C187.556 159.408 183.224 166.919 177.861 170.015L69.44 232.612C64.0772 235.709 59.7163 233.217 59.6989 227.055L59.4512 83.0792C59.4338 76.9168 63.766 69.4126 69.1289 66.3162L177.55 3.7188Z" fill="#D4F5F9"/>
<path d="M66.3623 83.0602C66.3519 79.3824 69.3762 74.155 72.5847 72.3022L180.381 10.0664L180.626 153.264C180.637 156.946 177.613 162.176 174.405 164.029L66.6091 226.264L66.3623 83.0602Z" fill="white"/>
<path d="M196.839 27.0429C196.839 29.3111 195.254 32.0451 193.291 33.1801L81.7644 97.5746C80.7319 98.1708 79.8012 98.2003 79.1468 97.7632L76.4128 96.1928C75.7584 95.8148 75.3656 95.0292 75.3656 93.8951L75.336 83.3518C75.3213 81.0836 76.9212 78.3496 78.8843 77.2146L190.411 12.8209C191.4 12.2395 192.301 12.1952 192.941 12.5741L195.632 14.1445C195.675 14.1593 195.719 14.1732 195.763 14.2175C196.403 14.5669 196.796 15.3516 196.81 16.4857L196.84 27.0437L196.839 27.0429Z" fill="#285294"/>
<path d="M195.765 14.2103C195.123 13.8375 194.231 13.8887 193.236 14.4588L81.7064 78.8516C79.7372 79.9814 78.1616 82.7284 78.1616 84.9888L78.1929 95.5417C78.2033 96.661 78.597 97.4596 79.2296 97.822L76.407 96.1891C75.7648 95.8163 75.3702 95.028 75.3702 93.8983L75.3389 83.3455C75.3285 81.0859 76.9145 78.3493 78.8838 77.2083L190.414 12.8163C191.398 12.2462 192.3 12.1941 192.943 12.5678L195.764 14.2103H195.765Z" fill="#005F69"/>
<path d="M193.238 14.4586C195.204 13.3236 196.798 14.2318 196.804 16.4904L196.833 27.0467C196.839 29.3054 195.256 32.0481 193.291 33.183L81.7603 97.5759C79.7945 98.7108 78.2007 97.8027 78.1946 95.544L78.1651 84.9877C78.159 82.7291 79.7415 79.9864 81.7073 78.8514L193.238 14.4586Z" fill="#008392"/>
<path d="M86.7699 82.8829C88.0474 82.1451 89.0876 82.7377 89.092 84.2012C89.0963 85.669 88.063 87.4593 86.7855 88.1962C85.508 88.934 84.4721 88.3387 84.4678 86.8709C84.4634 85.4074 85.4924 83.6207 86.7699 82.8829Z" fill="white"/>
<path d="M95.055 78.0991C96.3325 77.3613 97.3684 77.9566 97.3728 79.4201C97.3771 80.8879 96.3482 82.6755 95.0707 83.4133C93.7932 84.1512 92.7573 83.5559 92.7529 82.0881C92.7486 80.6246 93.7775 78.8378 95.055 78.1V78.0991Z" fill="white"/>
<path d="M103.34 73.3159C104.618 72.5781 105.654 73.1734 105.658 74.6369C105.662 76.1047 104.633 77.8923 103.356 78.6301C102.078 79.368 101.042 78.7727 101.038 77.3048C101.034 75.8414 102.063 74.0546 103.34 73.3168V73.3159Z" fill="white"/>
<path d="M91.8626 109.041C92.3328 109.774 92.5805 110.78 92.6065 112.048C92.5874 113.345 92.3458 114.633 91.8817 115.905C91.4177 117.182 90.7624 118.349 89.9238 119.401C89.0817 120.457 88.0971 121.308 86.9699 121.959C85.8427 122.61 84.8529 122.899 84.0012 122.82C83.1522 122.743 82.4969 122.336 82.0302 121.605C81.567 120.871 81.322 119.864 81.2959 118.578C81.315 117.27 81.5531 115.983 82.0111 114.717C82.4717 113.45 83.1235 112.288 83.9691 111.233C84.8173 110.172 85.8054 109.321 86.9325 108.67C88.0597 108.019 89.0461 107.731 89.8916 107.814C90.7337 107.894 91.3933 108.304 91.8626 109.041ZM90.6468 115.778C90.9797 114.818 91.1413 113.861 91.1387 112.895C91.1361 111.933 90.9693 111.166 90.6321 110.593C90.2983 110.018 89.8134 109.694 89.1773 109.616C88.542 109.539 87.7972 109.746 86.9369 110.243C86.067 110.745 85.3178 111.4 84.6913 112.207C84.0647 113.013 83.5867 113.893 83.2539 114.853C82.9245 115.811 82.7594 116.769 82.762 117.731C82.7646 118.697 82.9349 119.462 83.2686 120.037C83.6058 120.609 84.0873 120.935 84.7165 121.017C85.3457 121.099 86.0965 120.888 86.9664 120.385C87.8259 119.889 88.5698 119.237 89.2025 118.426C89.836 117.616 90.3175 116.734 90.6468 115.777" fill="#00707C"/>
<path d="M99.0749 105.144C99.6641 104.803 100.177 104.667 100.612 104.738C101.048 104.809 101.384 105.053 101.614 105.475C101.848 105.897 101.965 106.44 101.967 107.11L101.982 112.365C101.982 112.598 101.909 112.84 101.765 113.084C101.62 113.326 101.446 113.508 101.243 113.625C101.04 113.742 100.866 113.761 100.727 113.682C100.584 113.605 100.517 113.444 100.516 113.211L100.501 108.141C100.497 106.635 99.9022 106.222 98.7203 106.905C98.1858 107.213 97.7061 107.653 97.282 108.217C96.8579 108.784 96.4599 109.447 96.0845 110.205L96.1001 115.76C96.1001 115.993 96.0306 116.234 95.8863 116.477C95.7421 116.72 95.5648 116.904 95.3623 117.021C95.1598 117.139 94.9851 117.158 94.8461 117.079C94.707 116.999 94.6358 116.84 94.6349 116.608L94.6123 108.666C94.6123 108.433 94.6818 108.193 94.82 107.946C94.9582 107.699 95.132 107.514 95.3345 107.396C95.537 107.279 95.7151 107.262 95.8603 107.345C96.0054 107.428 96.0767 107.587 96.0775 107.82L96.0793 108.578C96.4868 107.824 96.9266 107.158 97.3959 106.576C97.8686 105.996 98.4283 105.517 99.0723 105.145L99.0749 105.144Z" fill="#00707C"/>
<path d="M105.133 97.6615C105.349 97.5373 105.526 97.5121 105.665 97.5955C105.808 97.6728 105.875 97.8371 105.876 98.0856L105.91 110.098C105.91 110.33 105.841 110.571 105.696 110.815C105.552 111.057 105.378 111.24 105.172 111.359C104.969 111.476 104.795 111.495 104.656 111.416C104.517 111.337 104.446 111.178 104.445 110.945L104.411 98.9329C104.411 98.6957 104.481 98.455 104.619 98.209C104.757 97.9622 104.931 97.7806 105.133 97.6633V97.6615Z" fill="#00707C"/>
<path d="M109.793 95.5279C109.954 95.62 110.035 95.7956 110.036 96.0546V96.1284C110.037 96.3874 109.957 96.6559 109.796 96.934C109.635 97.2121 109.442 97.4164 109.217 97.5467L109.121 97.6023C108.896 97.7327 108.702 97.7518 108.54 97.6597C108.379 97.5676 108.298 97.392 108.297 97.133V97.0592C108.296 96.8002 108.376 96.5317 108.537 96.2536C108.698 95.9755 108.89 95.7713 109.116 95.6409L109.212 95.5853C109.437 95.4549 109.631 95.4358 109.793 95.5279Z" fill="#00707C"/>
<path d="M109.159 99.4155C109.374 99.2912 109.551 99.2704 109.69 99.3495C109.829 99.432 109.901 99.5954 109.902 99.8396L109.924 107.781C109.924 108.014 109.851 108.256 109.707 108.5C109.563 108.742 109.389 108.925 109.186 109.041C108.98 109.16 108.808 109.177 108.669 109.098C108.527 109.021 108.459 108.86 108.458 108.627L108.436 100.686C108.436 100.453 108.502 100.214 108.643 99.9656C108.781 99.7188 108.952 99.5354 109.158 99.4164L109.159 99.4155Z" fill="#00707C"/>
<path d="M116.907 94.8496C117.496 94.509 118.012 94.3708 118.448 94.442C118.883 94.5133 119.216 94.7584 119.45 95.179C119.68 95.6022 119.797 96.1454 119.799 96.8154L119.814 102.071C119.814 102.303 119.744 102.544 119.6 102.787C119.456 103.03 119.279 103.214 119.076 103.331C118.873 103.448 118.699 103.467 118.56 103.388C118.421 103.309 118.349 103.15 118.349 102.917L118.334 97.847C118.33 96.3409 117.738 95.9264 116.556 96.6086C116.018 96.9188 115.538 97.3586 115.114 97.9226C114.69 98.4901 114.292 99.1531 113.916 99.911L113.932 105.466C113.932 105.699 113.863 105.94 113.718 106.183C113.574 106.425 113.4 106.608 113.194 106.727C112.991 106.844 112.821 106.861 112.678 106.784C112.539 106.705 112.468 106.546 112.467 106.313L112.444 98.3719C112.444 98.139 112.514 97.8982 112.652 97.6514C112.794 97.4029 112.964 97.2195 113.167 97.1022C113.372 96.9831 113.547 96.9675 113.692 97.0509C113.837 97.1335 113.909 97.2925 113.91 97.5254L113.911 98.2841C114.319 97.5298 114.759 96.8641 115.231 96.2801C115.701 95.7013 116.26 95.2225 116.904 94.8505L116.907 94.8496Z" fill="#00707C"/>
<path d="M129.252 92.988C129.118 93.2252 128.938 93.4103 128.712 93.5407L123.253 96.6927C123.34 97.507 123.622 98.018 124.096 98.2257C124.568 98.4352 125.232 98.2926 126.079 97.8042C126.53 97.5435 126.925 97.2672 127.263 96.9717C127.601 96.6762 127.929 96.346 128.25 95.9749C128.337 95.8767 128.434 95.795 128.54 95.7333C128.714 95.6334 128.862 95.6142 128.991 95.6768C129.12 95.7394 129.185 95.8724 129.186 96.0835C129.186 96.3538 129.048 96.6632 128.769 97.0099C128.351 97.5253 127.939 97.9668 127.531 98.3361C127.122 98.7089 126.598 99.0791 125.954 99.4511C124.643 100.208 123.618 100.37 122.881 99.9386C122.144 99.5041 121.77 98.5116 121.766 96.9569C121.763 96.0801 121.903 95.1875 122.178 94.2872C122.456 93.3851 122.886 92.5404 123.464 91.747C124.043 90.957 124.756 90.3148 125.603 89.8255C126.399 89.3667 127.085 89.185 127.666 89.2754C128.247 89.3667 128.69 89.6778 128.992 90.2157C129.297 90.7511 129.45 91.4376 129.452 92.278C129.452 92.5109 129.386 92.7464 129.251 92.9871L129.252 92.988ZM123.25 95.3231L128 92.5804C127.966 91.9921 127.83 91.5636 127.587 91.296C127.344 91.0283 127.043 90.9049 126.689 90.9171C126.334 90.9292 125.973 91.0413 125.609 91.2516C125.245 91.4619 124.885 91.7661 124.531 92.1633C124.177 92.5604 123.882 93.0271 123.648 93.5702C123.411 94.1151 123.28 94.6983 123.25 95.324" fill="#00707C"/>
<path d="M151.339 80.237C151.205 80.4743 151.025 80.6594 150.799 80.7897L145.34 83.9418C145.426 84.7561 145.709 85.2671 146.183 85.4748C146.655 85.6842 147.316 85.5434 148.166 85.0533C148.617 84.7926 149.012 84.5162 149.35 84.2207C149.688 83.9252 150.016 83.595 150.337 83.2239C150.424 83.1257 150.521 83.044 150.627 82.9823C150.8 82.8815 150.949 82.8633 151.078 82.9258C151.207 82.9884 151.272 83.1214 151.272 83.3326C151.272 83.6028 151.135 83.9122 150.855 84.259C150.437 84.7743 150.025 85.2158 149.617 85.5851C149.208 85.9579 148.683 86.3282 148.04 86.7001C146.729 87.457 145.704 87.6187 144.967 87.1876C144.23 86.7531 143.856 85.7607 143.852 84.2059C143.849 83.3291 143.989 82.4366 144.264 81.5362C144.542 80.6342 144.972 79.7895 145.55 78.996C146.128 78.2061 146.843 77.5638 147.689 77.0746C148.484 76.6157 149.171 76.4341 149.752 76.5245C150.333 76.6157 150.776 76.9268 151.078 77.4648C151.383 78.0001 151.536 78.6866 151.538 79.527C151.538 79.7599 151.472 79.9954 151.338 80.2361L151.339 80.237ZM145.336 82.5721L150.086 79.8294C150.052 79.2411 149.916 78.8126 149.672 78.545C149.43 78.2773 149.129 78.1539 148.775 78.1661C148.42 78.1782 148.059 78.2904 147.695 78.5007C147.331 78.711 146.971 79.0151 146.618 79.4123C146.264 79.8094 145.969 80.2761 145.735 80.8193C145.498 81.3642 145.367 81.9473 145.337 82.573" fill="#00707C"/>
<path d="M143.186 76.3787C143.379 76.2675 143.544 76.2501 143.679 76.324C143.812 76.4031 143.88 76.5525 143.881 76.775C143.881 76.9975 143.814 77.2208 143.683 77.445C143.548 77.671 143.384 77.8396 143.191 77.9517L139.923 79.8393L139.953 90.4451C139.953 90.678 139.88 90.9205 139.736 91.1638C139.591 91.4063 139.418 91.5888 139.214 91.7052C139.008 91.8243 138.837 91.8417 138.698 91.7626C138.556 91.6852 138.488 91.5245 138.487 91.2915L138.456 80.6857L135.168 82.5837C134.975 82.695 134.813 82.7141 134.684 82.6402C134.554 82.5663 134.49 82.4186 134.489 82.197C134.489 81.9754 134.553 81.7494 134.681 81.5191C134.81 81.2932 134.971 81.122 135.164 81.0107L143.186 76.3787Z" fill="#00707C"/>
<path d="M156.116 72.2114C156.944 71.7334 157.724 71.4388 158.452 71.3258C158.604 71.2902 158.72 71.3119 158.801 71.4023C158.882 71.4927 158.921 71.6109 158.922 71.7595C158.922 71.9594 158.862 72.1645 158.739 72.3835C158.614 72.6042 158.463 72.7659 158.279 72.871C158.228 72.9006 158.157 72.931 158.07 72.9544C157.448 73.0909 156.836 73.3333 156.234 73.681C155.654 74.0155 155.2 74.3997 154.873 74.8298C154.549 75.2583 154.385 75.6641 154.386 76.0448C154.387 76.415 154.536 76.6036 154.839 76.6027C155.139 76.6001 155.606 76.4967 156.242 76.2933C156.877 76.1117 157.392 75.9961 157.789 75.9448C158.189 75.8918 158.528 75.9778 158.816 76.1977C159.1 76.415 159.243 76.8478 159.245 77.4883C159.248 78.2765 158.978 79.0873 158.439 79.9181C157.896 80.7506 157.134 81.4502 156.145 82.0212C155.073 82.64 154.093 82.9285 153.212 82.8807C153.028 82.839 152.937 82.6869 152.937 82.4279C152.937 82.2315 152.993 82.0247 153.112 81.8074C153.228 81.5928 153.379 81.4311 153.562 81.3251C153.659 81.2695 153.755 81.2391 153.853 81.2321C154.194 81.2086 154.539 81.1435 154.884 81.0444C155.229 80.9453 155.616 80.7706 156.044 80.523C157.236 79.8347 157.83 79.0543 157.828 78.1774C157.828 77.8924 157.691 77.7559 157.416 77.7663C157.143 77.7768 156.691 77.8698 156.069 78.0436C155.433 78.2356 154.911 78.3599 154.496 78.4147C154.083 78.4677 153.728 78.3912 153.43 78.1844C153.133 77.9775 152.986 77.5656 152.984 76.9477C152.982 76.0856 153.25 75.2261 153.79 74.3701C154.332 73.5115 155.105 72.7954 156.116 72.2114Z" fill="#00707C"/>
<path d="M162.765 66.7042C162.852 66.6538 162.923 66.6504 162.982 66.6903C163.043 66.7286 163.072 66.7972 163.073 66.8972L163.077 68.3772L164.897 67.3265C165.08 67.2205 165.232 67.1996 165.348 67.27C165.468 67.3378 165.526 67.4786 165.527 67.6854C165.527 67.8853 165.47 68.0852 165.351 68.2981C165.236 68.5058 165.085 68.6631 164.901 68.7691L163.082 69.8198L163.097 75.4112C163.099 75.8927 163.199 76.1377 163.4 76.156C163.596 76.1725 163.848 76.0899 164.147 75.917C164.363 75.7927 164.575 75.6328 164.791 75.4338C164.836 75.3964 164.881 75.3556 164.929 75.3165C164.978 75.2774 165.039 75.2348 165.113 75.1922C165.264 75.1044 165.399 75.0931 165.516 75.1557C165.636 75.2165 165.694 75.3382 165.694 75.5233C165.694 75.8084 165.573 76.0934 165.325 76.3845C164.907 76.8486 164.463 77.2162 163.99 77.4891C162.421 78.3946 161.636 78.0323 161.632 76.4037L161.615 70.6636L160.472 71.3241C160.385 71.3745 160.311 71.3841 160.253 71.3502C160.195 71.3171 160.165 71.2485 160.165 71.1485C160.165 71.026 160.213 70.8948 160.309 70.7505L162.492 67.0249C162.589 66.8581 162.678 66.7503 162.765 66.7008V66.7042Z" fill="#00707C"/>
<path d="M92.4137 129.392C94.1457 128.392 95.5501 129.201 95.5553 131.192L95.5883 142.893C95.5944 144.884 94.1996 147.307 92.4676 148.308L82.2772 154.191C80.5452 155.191 79.1408 154.382 79.1356 152.391L79.1026 140.69C79.0973 138.699 80.4913 136.276 82.2233 135.275L92.4137 129.392Z" fill="#C5F9FF"/>
<path d="M92.4137 155.049C94.1457 154.049 95.5501 154.858 95.5553 156.849L95.5883 168.55C95.5944 170.541 94.1996 172.965 92.4676 173.965L82.2772 179.848C80.5452 180.849 79.1408 180.039 79.1356 178.048L79.1026 166.348C79.0973 164.357 80.4913 161.933 82.2233 160.933L92.4137 155.049Z" fill="#C5F9FF"/>
<path d="M92.4137 180.706C94.1457 179.706 95.5501 180.515 95.5553 182.506L95.5883 194.207C95.5944 196.198 94.1996 198.622 92.4676 199.622L82.2772 205.505C80.5452 206.506 79.1408 205.697 79.1356 203.706L79.1026 192.005C79.0973 190.014 80.4913 187.59 82.2233 186.59L92.4137 180.706Z" fill="#C5F9FF"/>
<path d="M86.6818 146.165C86.5132 146.165 86.3411 146.122 86.1829 146.032L82.9449 144.186C82.4617 143.911 82.2931 143.295 82.5695 142.81C82.8423 142.328 83.4576 142.153 83.9452 142.435L86.3124 143.784L96.9504 125.356C97.2276 124.876 97.8447 124.706 98.3279 124.988C98.8102 125.265 98.9753 125.882 98.6963 126.365L87.5569 145.661C87.3709 145.983 87.0311 146.166 86.6826 146.166L86.6818 146.165Z" fill="#008392"/>
<path d="M86.6818 171.575C86.5132 171.575 86.3411 171.532 86.1829 171.442L82.9449 169.596C82.4617 169.321 82.2931 168.705 82.5695 168.221C82.8423 167.738 83.4576 167.563 83.9452 167.845L86.3124 169.194L96.9504 150.767C97.2276 150.286 97.8447 150.117 98.3279 150.398C98.8102 150.675 98.9753 151.292 98.6963 151.776L87.5569 171.071C87.3709 171.393 87.0311 171.576 86.6826 171.576L86.6818 171.575Z" fill="#008392"/>
<path d="M86.6818 196.986C86.5132 196.986 86.3411 196.944 86.1829 196.853L82.9449 195.007C82.4617 194.732 82.2931 194.117 82.5695 193.632C82.8423 193.149 83.4576 192.974 83.9452 193.256L86.3124 194.605L96.9504 176.178C97.2276 175.697 97.8447 175.528 98.3279 175.809C98.8102 176.087 98.9753 176.704 98.6963 177.187L87.5569 196.482C87.3709 196.805 87.0311 196.987 86.6826 196.987L86.6818 196.986Z" fill="#008392"/>
<path d="M107.644 130.251C107.187 130.251 106.746 130.014 106.502 129.592C106.137 128.961 106.353 128.155 106.983 127.792L168.197 92.4505C168.828 92.0855 169.633 92.3036 169.997 92.9319C170.362 93.5629 170.145 94.3685 169.515 94.7317L108.301 130.073C108.094 130.193 107.867 130.251 107.644 130.251Z" fill="#C5F9FF"/>
<path d="M107.644 144.544C107.187 144.544 106.746 144.308 106.502 143.886C106.137 143.255 106.353 142.449 106.983 142.086L168.197 106.744C168.828 106.379 169.633 106.598 169.997 107.226C170.362 107.857 170.145 108.662 169.515 109.026L108.301 144.367C108.094 144.487 107.867 144.544 107.644 144.544Z" fill="#C5F9FF"/>
<path d="M107.644 158.838C107.187 158.838 106.746 158.602 106.502 158.18C106.137 157.549 106.353 156.743 106.983 156.38L168.197 121.038C168.828 120.673 169.633 120.892 169.997 121.52C170.362 122.151 170.145 122.956 169.515 123.32L108.301 158.661C108.094 158.781 107.867 158.838 107.644 158.838Z" fill="#C5F9FF"/>
<path d="M107.644 173.131C107.187 173.131 106.746 172.895 106.502 172.473C106.137 171.842 106.353 171.036 106.983 170.673L168.197 135.331C168.828 134.966 169.633 135.184 169.997 135.813C170.362 136.444 170.145 137.249 169.515 137.613L108.301 172.954C108.094 173.074 107.867 173.131 107.644 173.131Z" fill="#C5F9FF"/>
<path d="M107.644 187.426C107.187 187.426 106.746 187.19 106.502 186.768C106.137 186.137 106.353 185.331 106.983 184.968L168.197 149.626C168.828 149.261 169.633 149.479 169.997 150.108C170.362 150.739 170.145 151.544 169.515 151.908L108.301 187.249C108.094 187.369 107.867 187.426 107.644 187.426Z" fill="#C5F9FF"/>
<path d="M291.946 346.155C287.278 348.798 282.307 349.858 276.892 348.596C275.924 348.37 274.936 348.183 273.943 348.158C268.208 348.014 266.646 350.418 268.014 354.612C270.058 359.642 274.999 362.054 282.498 362.134C284.387 362.154 286.289 362.014 288.138 361.631C292.664 360.695 298.108 360.825 303.9 361.359C307.127 361.656 309.921 359.14 309.921 355.899V347.108L291.945 346.156L291.946 346.155Z" fill="#00B8D4"/>
<path d="M309.922 355.909C309.908 359.149 307.123 361.649 303.898 361.365C298.114 360.826 292.658 360.698 288.14 361.635C286.292 362.019 284.389 362.161 282.499 362.133C274.997 362.047 270.052 359.646 268.02 354.616C267.21 352.144 267.423 350.282 268.915 349.217C268.986 349.785 269.128 350.396 269.342 351.064C271.388 356.094 276.333 358.495 283.835 358.58C285.725 358.609 287.614 358.466 289.476 358.083C293.994 357.145 299.436 357.273 305.233 357.813C307.095 357.983 308.814 357.215 309.923 355.908L309.922 355.909Z" fill="#27909A"/>
<path d="M347.44 321.076V333.987C347.44 335.747 346.293 337.341 344.596 337.808C339.698 339.154 335.871 337.37 332.746 333.535C331.906 332.503 330.774 331.748 329.485 331.421C323.464 329.89 319.305 326.652 317.889 321.505C317.456 319.927 317.372 318.24 317.851 316.676C319.53 311.194 325.387 313.673 331.156 319.129L347.439 321.076H347.44Z" fill="#00B8D4"/>
<path d="M347.135 335.505C346.695 336.599 345.786 337.48 344.592 337.807C339.689 339.156 335.867 337.366 332.741 333.53C331.903 332.507 330.766 331.754 329.488 331.427C323.463 329.892 319.3 326.653 317.893 321.51C317.452 319.932 317.367 318.242 317.85 316.679C318.347 315.059 319.2 314.121 320.323 313.78C320.223 313.993 320.138 314.235 320.066 314.491C319.583 316.055 319.669 317.745 320.095 319.322C321.516 324.466 325.679 327.705 331.69 329.226C332.983 329.553 334.12 330.32 334.957 331.343C338.083 335.179 341.905 336.97 346.808 335.619C346.922 335.591 347.035 335.548 347.134 335.506L347.135 335.505Z" fill="#27909A"/>
<path d="M349.656 229.209L349.392 276.988L347.439 321.076C346.467 329.199 330.184 327.251 331.155 319.129C330.441 297.989 328.221 287.715 324.305 268.528L327.328 229.209L334.63 223.177L349.656 229.209Z" fill="#878787"/>
<path d="M349.65 229.207L349.395 276.992L347.434 321.082C346.979 324.847 343.227 326.453 339.434 326.268C339.022 325.643 338.681 324.975 338.454 324.25C337.984 322.744 338.056 321.124 338.127 319.547C338.383 314.588 338.624 309.63 338.88 304.656C339.122 299.697 339.364 294.724 340.329 289.85C340.812 287.392 341.48 284.891 341.068 282.419C340.627 279.875 339.065 277.304 339.974 274.888C340.258 274.135 340.77 273.495 341.039 272.742C341.366 271.804 341.309 270.767 341.281 269.773C341.153 264.842 341.834 259.883 343.326 255.18C343.667 254.071 344.065 252.963 344.222 251.812C344.407 250.306 344.165 248.771 343.909 247.265C342.9 241.311 341.678 235.202 342.871 229.277C343.041 228.438 343.269 227.6 343.567 226.762L349.649 229.205L349.65 229.207Z" fill="#979595"/>
<path d="M297.109 232.175C297.109 232.175 293.191 272.061 292.565 285.401C291.7 303.835 291.93 345.458 291.93 345.458C291.561 353.853 309.658 354.646 310.026 346.251L316.025 300.355C316.47 296.952 317.165 293.586 318.106 290.285L332.671 239.172L314.366 229.209L297.11 232.175H297.109Z" fill="#878787"/>
<path d="M332.671 239.168L318.107 290.292C317.169 293.588 316.473 296.956 316.032 300.352L310.022 346.247C309.908 349.033 307.834 350.808 305.134 351.618C305.12 351.604 305.106 351.589 305.091 351.575C302.704 349.159 302.406 345.437 302.235 342.027C302.093 338.915 301.937 335.789 301.795 332.663C301.681 330.418 301.582 328.145 302.079 325.957C302.477 324.223 303.258 322.589 303.827 320.898C306.484 313.04 304.836 304.018 308.473 296.558C309.084 295.307 309.838 294.114 310.15 292.764C310.647 290.647 310.022 288.445 310.036 286.271C310.05 284.197 310.661 282.136 311.784 280.388C312.48 279.308 313.361 278.343 313.815 277.163C314.569 275.245 314.1 273.1 314.086 271.039C314.057 266.307 316.458 261.917 319.102 257.981C320.636 255.707 322.299 253.463 323.165 250.848C324.188 247.736 324.003 244.255 325.453 241.313C326.234 239.722 327.655 238.273 329.303 237.335L332.671 239.168Z" fill="#979595"/>
<path d="M350.543 120.046C337.375 117.039 320.561 122.75 310.412 132.687C309.684 133.399 308.74 133.845 307.724 133.897L279.65 135.337C277.016 135.472 274.497 134.251 272.969 132.102L259.372 112.966C256.589 106.473 243.255 112.187 246.038 118.681L266.765 152.257C268.426 154.948 271.205 156.754 274.338 157.179L297.181 160.277C300.391 160.712 302.679 163.612 302.355 166.835L296.287 227.249C296.082 229.288 296.487 231.375 297.604 233.093C307.489 248.301 355.165 239.942 351.295 221.211L347.285 191.938C346.801 188.403 347.279 184.799 348.674 181.515C357.327 161.134 363.203 141.639 357.373 126.108C356.242 123.094 353.681 120.762 350.542 120.045L350.543 120.046Z" fill="#5BC5D0"/>
<path d="M364.466 163.175C363.28 173.189 348.415 200.18 348.415 200.18L347.285 191.938C346.803 188.382 347.298 184.776 348.695 181.473C356.111 164 361.483 147.174 359.171 132.951C359.171 132.951 365.369 155.557 364.467 163.175H364.466Z" fill="#5BC5D0"/>
<path d="M338.095 114.448C338.095 114.448 330.729 123.324 320.49 121.685L320.241 115.826L325.086 109.145L337.394 108.623L338.095 114.449V114.448Z" fill="#F7B2B2"/>
<path d="M308.971 78.5279C306.447 88.6271 306.096 98.8514 308.186 109.215C308.974 113.118 312.349 115.963 316.33 115.985C321.197 116.012 326.456 114.778 331.961 112.754L330.903 87.8311L312.353 77.8145L308.971 78.5271V78.5279Z" fill="#F7B2B2"/>
<path d="M331.967 112.753C326.453 114.782 321.191 116.008 316.325 115.991C313.359 115.968 310.718 114.377 309.256 111.952C310.529 112.78 312.04 113.237 313.645 113.251C318.51 113.283 323.76 112.042 329.273 110.014L328.278 86.4082L330.909 87.8378L331.966 112.752L331.967 112.753Z" fill="#EAA7A7"/>
<path d="M338.094 114.444C338.094 114.444 330.728 123.322 320.486 121.686L315.997 128.346C327.912 129.693 340.449 126.628 343.3 119.249L338.094 114.444Z" fill="#83D2DA"/>
<path d="M326.267 66.236C324.585 66.0091 322.841 65.8918 321.037 65.8779C320.237 65.8718 319.44 65.6972 318.724 65.3374L318.038 64.9915C316.141 64.0373 313.853 64.3362 312.266 65.7467C311.557 66.3759 310.696 66.7843 309.765 66.9573L309.633 66.9816C307.105 67.4509 305.178 69.7035 305.371 72.2671C305.672 76.2813 308.449 79.0648 313.446 80.7447C314.078 80.9567 314.499 81.5468 314.476 82.2134C314.357 85.5444 314.715 88.6391 316.291 91.1306C316.415 91.3271 316.806 91.8493 317.11 92.343C317.781 93.431 318.592 94.4348 319.614 95.2021C320.182 95.6288 320.766 95.9799 321.226 96.0616C322.505 96.2876 323.384 97.4842 323.406 98.7817L323.508 104.963C323.529 106.21 323.632 107.463 323.9 108.682C325.45 115.737 329.743 116.749 335.895 113.915C337.15 113.337 338.142 112.325 338.759 111.089C339.819 108.963 341.375 106.537 343.234 103.929C345.965 100.099 347.911 95.6975 348.519 91.0333C349.496 83.543 347.054 77.6552 341.801 73.0832C339.471 71.0044 336.867 69.4036 334.009 68.2452C333.446 68.0166 332.947 67.6525 332.581 67.1667L332.38 66.899C331.41 65.6103 329.657 65.1992 328.215 65.9231C327.611 66.2264 326.936 66.3263 326.266 66.236H326.267Z" fill="#353437"/>
<path d="M348.517 91.0378C347.902 95.6915 345.961 100.101 343.241 103.936C341.378 106.541 339.823 108.964 338.75 111.091C338.133 112.321 337.155 113.339 335.888 113.909C335.239 114.207 334.616 114.462 334.004 114.678C334.098 114.527 334.191 114.376 334.264 114.212C335.332 112.067 336.886 109.644 338.75 107.039C341.471 103.204 343.415 98.8131 344.026 94.1411C345.015 86.6569 342.562 80.763 337.305 76.2005C334.982 74.1244 332.382 72.5184 329.517 71.36C328.947 71.1236 328.457 70.7586 328.086 70.2737L327.895 70.0051C326.917 68.7224 325.166 68.3183 323.731 69.0379C323.498 69.1474 323.261 69.2386 322.999 69.2994C322.597 69.3924 322.197 69.4116 321.775 69.3438C320.104 69.1239 318.344 68.9979 316.556 68.9892C315.747 68.9927 314.949 68.8093 314.237 68.4408L313.551 68.1028C311.653 67.1433 309.367 67.4527 307.777 68.8528C307.198 69.3733 306.526 69.7322 305.783 69.9417C306.466 68.4391 307.912 67.2937 309.628 66.9878L309.977 66.907C310.833 66.708 311.61 66.3256 312.268 65.7494C313.854 64.332 316.143 64.04 318.042 64.9994L318.729 65.3375C319.44 65.7068 320.234 65.8719 321.043 65.8685C322.835 65.8945 324.591 66.0032 326.267 66.2404C326.665 66.2952 327.084 66.2717 327.486 66.1787C327.73 66.1222 327.985 66.0258 328.217 65.9171C329.652 65.1976 331.407 65.619 332.386 66.9018L332.577 67.1703C332.947 67.6552 333.455 68.0159 334.003 68.2392C336.868 69.3976 339.469 71.0036 341.791 73.0798C347.052 77.6597 349.501 83.5362 348.517 91.0378Z" fill="#1A1A1C"/>
<path d="M351.299 221.208C355.165 239.95 307.493 248.305 297.603 233.101C296.495 231.382 296.083 229.293 296.282 227.247L296.594 224.206C298.556 225.115 300.36 226.366 301.937 227.815C302.875 228.682 303.77 229.606 304.878 230.203C306.015 230.8 307.293 231.013 308.559 231.183C317.482 232.334 326.675 231.453 335.229 228.625C338.539 227.531 342.134 225.77 343.157 222.43C343.967 219.745 342.859 216.888 341.807 214.288C337.985 204.782 334.759 194.523 336.451 184.407C337.232 179.675 339.079 175.17 340.23 170.511C343.924 155.591 340.841 138.484 349.551 125.823C350.687 124.161 352.122 122.598 353.686 121.404C355.348 122.541 356.655 124.19 357.38 126.108C363.206 141.638 357.323 161.133 348.67 181.522C347.278 184.805 346.809 188.399 347.292 191.938L351.298 221.208H351.299Z" fill="#83D2DA"/>
<path d="M316.927 154.44C316.046 156.899 315.379 159.47 314.669 161.971C312.438 169.886 309.709 177.657 306.484 185.217C305.049 188.571 303.059 191.697 300.488 194.282C300.175 194.595 299.848 194.907 299.507 195.191L302.363 166.83C302.676 163.619 300.388 160.72 297.176 160.28L274.342 157.183C271.202 156.756 268.432 154.952 266.769 152.252L246.038 118.676C245.498 117.426 245.569 116.204 246.038 115.096C248.525 118.62 251.026 122.144 253.527 125.682C254.749 127.429 255.985 129.163 257.221 130.911C257.96 131.948 260.916 134.918 260.916 136.126C262.493 138.37 264.098 140.63 266.172 142.406C269.909 145.604 274.84 146.982 279.657 147.92C290.399 150.023 301.482 150.349 312.323 148.9C315.449 148.488 318.007 151.471 316.926 154.442L316.927 154.44Z" fill="#83D2DA"/>
<path d="M333.218 123.155C331.632 122.107 329.276 122.239 326.572 123.794C321.395 126.79 316.945 133.828 316.595 139.544C316.435 142.263 317.236 144.183 318.675 145.142L219.758 79.6718C219.234 79.3225 218.797 78.8428 218.463 78.2466L203.484 53.0738C202.364 51.1837 204.124 48.8998 206.247 49.496L233.18 57.1888C233.195 57.1888 233.209 57.1888 233.238 57.2035L233.355 57.2322V57.247C233.704 57.3487 234.024 57.4938 234.315 57.698L333.218 123.154L333.218 123.155Z" fill="#7CA2E5"/>
<path d="M233.351 57.2306L206.241 49.5005C204.127 48.8982 202.365 51.189 203.488 53.0775L218.464 78.245L233.351 57.2315L233.351 57.2306Z" fill="#00B8D4"/>
<path d="M206.035 57.3522L203.491 53.0756C202.37 51.1854 204.131 48.8981 206.248 49.4951L211.05 50.8734C208.436 51.1011 205.595 54.7807 206.034 57.353L206.035 57.3522Z" fill="#008392"/>
<path d="M333.222 123.153C331.639 122.106 329.276 122.237 326.566 123.802C321.396 126.786 316.939 133.834 316.599 139.547C316.436 142.257 317.233 144.181 318.673 145.136L219.762 79.6707C218.329 78.7217 217.53 76.7977 217.694 74.0819C218.035 68.3749 222.491 61.3269 227.661 58.3426C230.371 56.7783 232.733 56.641 234.316 57.6943L333.221 123.153L333.222 123.153Z" fill="#D2FBFF"/>
<path d="M318.675 145.134L219.767 79.6727C218.332 78.7211 217.536 76.8023 217.692 74.0882C217.806 72.1989 218.375 70.1523 219.27 68.1631L318.178 133.638C317.283 135.627 316.715 137.659 316.601 139.549C316.431 142.263 317.241 144.181 318.675 145.134Z" fill="#B3F8FF"/>
<path d="M326.569 123.803C331.733 120.821 335.639 123.042 335.298 128.749C334.957 134.461 330.498 141.501 325.334 144.483C320.165 147.467 316.259 145.256 316.6 139.544C316.94 133.837 321.4 126.786 326.569 123.803Z" fill="#DDE9FE"/>
<path d="M342.35 132.258C341.972 138.613 337.013 146.422 331.283 149.738C328.273 151.468 325.655 151.628 323.895 150.465C323.809 150.407 323.721 150.348 323.634 150.29L316.509 145.563C314.909 144.516 314.021 142.378 314.211 139.354C314.589 133.028 319.533 125.204 325.277 121.889C328.288 120.144 330.905 119.999 332.665 121.162L340.053 126.048C340.009 126.02 339.966 125.99 339.922 125.975C341.594 126.993 342.539 129.174 342.35 132.258Z" fill="#008392"/>
<path d="M340.046 126.051C338.287 124.888 335.665 125.033 332.656 126.77C326.915 130.084 321.966 137.911 321.589 144.255C321.407 147.263 322.293 149.4 323.892 150.461L316.503 145.568C314.912 144.514 314.025 142.378 314.207 139.362C314.585 133.025 319.533 125.198 325.274 121.885C328.283 120.147 330.907 119.995 332.665 121.165L340.046 126.051Z" fill="white"/>
<path d="M332.656 126.773C338.391 123.461 342.728 125.927 342.35 132.265C341.971 138.607 337.02 146.426 331.285 149.736C325.546 153.05 321.208 150.595 321.586 144.252C321.965 137.915 326.916 130.086 332.656 126.773Z" fill="#008392"/>
<path d="M257.846 111.059H257.832C254.776 108.885 249.093 110.69 246.734 113.887C246.734 113.887 237.299 102.25 246.45 90.9253C246.649 90.6837 246.904 90.4847 247.189 90.343C248.851 89.547 254.79 87.2736 259.92 92.7442C260.474 93.3551 260.645 94.2216 260.347 94.989L257.434 102.264C257.007 103.344 257.391 104.58 258.371 105.233L261.057 107.01C257.803 107.408 256.666 108.146 257.845 111.059H257.846Z" fill="#F7B2B2"/>
<path d="M97.7965 347.892C98.0781 348.217 97.3759 351.177 96.2653 350.857L59.8218 370.488C58.865 371.031 58.0194 371.083 57.3902 370.729L4.20898 338.286C4.83817 338.64 5.68375 338.588 6.64057 338.036L43.1996 316.928C43.6393 316.678 44.0443 316.653 44.3293 316.816L97.7965 347.891V347.892Z" fill="#018A99"/>
<path d="M91.8744 338.084L91.9031 348.184L56.4174 368.672L56.3887 358.572L91.8744 338.084Z" fill="#FBF8F2"/>
<path d="M57.6511 363.774C57.0402 364.843 56.6587 366.045 56.6587 367.152C56.6587 368.259 57.0402 368.984 57.6694 369.346C58.2994 369.709 59.139 369.651 60.074 369.136V372.8C58.2603 373.831 56.6196 373.926 55.4177 373.258L1.94619 342.19C0.744296 341.504 0.0003925 340.015 0.0003925 337.915C-0.0195955 335.816 0.725177 333.469 1.92707 331.408C3.11071 329.348 4.77058 327.515 6.60253 326.466L60.074 357.533V361.216C59.1198 361.77 58.2803 362.686 57.6503 363.774H57.6511Z" fill="#0FA2B2"/>
<path d="M97.7664 336.32C98.3773 337.205 97.0799 340.418 95.838 339.743C81.0573 347.702 59.896 360.19 60.0733 357.535C37.7553 355.488 21.5885 342.069 6.60352 326.464L43.1651 305.364C43.6083 305.107 44.0072 305.081 44.2966 305.249L97.7664 336.32Z" fill="#018A99"/>
<path d="M96.6297 336.433C97.5126 335.924 98.2287 336.332 98.2313 337.346C98.2339 338.36 97.5222 339.593 96.6401 340.102L60.0837 361.208C59.1312 361.758 58.283 362.687 57.6573 363.766C57.0351 364.848 56.6562 366.045 56.6553 367.146C56.6623 368.237 57.0473 368.994 57.673 369.355C58.303 369.71 59.1538 369.657 60.1063 369.107L96.6627 348.002C97.5457 347.492 98.2618 347.905 98.2644 348.914C98.267 349.928 97.5552 351.162 96.6731 351.671L60.1167 372.777C58.29 373.832 56.6214 373.939 55.423 373.252C54.2203 372.571 53.4677 371.088 53.4659 368.987C53.4555 366.89 54.1977 364.539 55.3926 362.475C56.5832 360.413 58.2474 358.592 60.0742 357.538L96.6306 336.432L96.6297 336.433Z" fill="#008392"/>
<path d="M55.4244 373.254L1.9572 342.182C0.75444 341.501 0.00184657 340.018 0.00010848 337.917C-0.0103201 335.82 0.731845 333.469 1.92678 331.405C3.11738 329.343 4.7816 327.522 6.60833 326.468L60.0755 357.54C59.0318 359.201 58.1566 361.558 56.4038 363.184C55.2088 365.249 55.3149 367.373 55.3236 369.47C57.1294 371.185 55.8693 372.222 55.4244 373.255V373.254Z" fill="#0FA2B2"/>
<path d="M57.6584 363.766C57.0379 364.852 56.6581 366.042 56.6581 367.146C56.6581 368.249 57.0457 368.991 57.6758 369.353C58.2963 369.707 59.1332 369.655 60.0726 369.129V372.802C58.2624 373.837 56.6147 373.932 55.4249 373.251C54.2178 372.569 53.4678 371.087 53.4678 368.992C53.4592 366.896 54.2005 364.542 55.3902 362.473C55.9855 361.447 56.7007 360.472 57.4941 359.628C58.2876 358.783 59.1584 358.067 60.0726 357.541V361.214C59.1245 361.766 58.2789 362.689 57.6584 363.767V363.766Z" fill="#008392"/>
<path d="M99.8181 326.679C100.1 327.005 99.3975 329.965 98.2868 329.644L61.8434 349.275C60.8866 349.818 60.041 349.871 59.4118 349.517L6.23145 317.074C6.86063 317.428 7.70622 317.376 8.66304 316.824L45.2221 295.717C45.6618 295.467 46.0668 295.44 46.3518 295.605L99.819 326.679H99.8181Z" fill="#6CCBD5"/>
<path d="M93.8959 316.871L93.9246 326.971L58.4388 347.459L58.4102 337.359L93.8959 316.871Z" fill="#FBF8F2"/>
<path d="M99.7889 315.108C100.4 315.994 99.1023 319.207 97.8604 318.531C83.0797 326.491 61.9185 338.978 62.0957 336.323C39.7778 334.277 23.6109 320.858 8.62598 305.252L45.1876 284.153C45.6308 283.896 46.0297 283.87 46.3191 284.037L99.7889 315.108Z" fill="#6CCBD5"/>
<path d="M57.4449 352.04L3.97771 320.969C2.77495 320.289 2.02235 318.805 2.02062 316.704C2.01019 314.608 2.75235 312.256 3.94729 310.192C5.13788 308.13 6.80211 306.309 8.62884 305.255L62.096 336.327C61.0523 337.988 60.1772 340.345 58.4243 341.971C57.2294 344.036 57.3354 346.16 57.3441 348.257C59.1499 349.973 57.8898 351.009 57.4449 352.042V352.04Z" fill="#079CAD"/>
<path d="M98.6521 315.221C99.5351 314.712 100.251 315.12 100.254 316.134C100.256 317.148 99.5447 318.381 98.6626 318.89L62.1062 339.996C61.1537 340.546 60.3055 341.475 59.6798 342.554C59.0576 343.636 58.6787 344.833 58.6778 345.934C58.6847 347.026 59.0697 347.782 59.6954 348.143C60.3255 348.498 61.1763 348.446 62.1288 347.895L98.6852 326.79C99.5681 326.281 100.284 326.693 100.287 327.702C100.289 328.717 99.5777 329.95 98.6956 330.459L62.1392 351.565C60.3125 352.62 58.6439 352.727 57.4455 352.04C56.2427 351.36 55.4901 349.876 55.4884 347.775C55.478 345.679 56.2201 343.327 57.4151 341.263C58.6057 339.201 60.2699 337.38 62.0966 336.326L98.653 315.22L98.6521 315.221Z" fill="#53ADB7"/>
<path d="M59.6818 342.553C59.0613 343.639 58.6816 344.829 58.6816 345.933C58.6816 347.037 59.0691 347.778 59.6992 348.14C60.3197 348.494 61.1566 348.442 62.096 347.916V351.589C60.2858 352.624 58.6381 352.719 57.4484 352.038C56.2413 351.357 55.4913 349.874 55.4913 347.779C55.4826 345.683 56.2239 343.329 57.4136 341.26C58.0089 340.234 58.7241 339.259 59.5176 338.415C60.311 337.57 61.1818 336.854 62.096 336.328V340.002C61.1479 340.553 60.3023 341.476 59.6818 342.554V342.553Z" fill="#4DAAB4"/>
</svg>
